<svg xmlns="http://www.w3.org/2000/svg" viewBox="0 0 90.29 86.66"><defs><style>.cls-1{opacity:0.2;}.cls-2{fill:#a38d1d;}.cls-3{fill:#fc0;}.cls-4{fill:#fff;}</style></defs><title>Asset 4</title><g id="Layer_2" data-name="Layer 2"><g id="Layer_1-2" data-name="Layer 1"><g class="cls-1"><path class="cls-2" d="M69.05,85.66a6,6,0,0,1-3.54-1.18l-17-12.34a4.06,4.06,0,0,0-4.76,0l-17,12.34a6,6,0,0,1-3.53,1.18A6.15,6.15,0,0,1,18.3,83.1a6,6,0,0,1-.83-5.38l6.49-20a4,4,0,0,0-1.47-4.53l-17-12.33A6.05,6.05,0,0,1,9.06,29.94h21a4,4,0,0,0,3.85-2.8l6.48-20a6.05,6.05,0,0,1,11.51,0l6.49,20a4,4,0,0,0,3.85,2.8h21a6.06,6.06,0,0,1,3.56,11l-17,12.33a4.06,4.06,0,0,0-1.47,4.53l6.49,20A5.91,5.91,0,0,1,74,83.1,6.15,6.15,0,0,1,69.05,85.66Z"/><path class="cls-2" d="M46.15,4A5,5,0,0,1,51,7.49l6.49,20a5,5,0,0,0,4.8,3.49h21a5.05,5.05,0,0,1,3,9.14l-17,12.34a5.05,5.05,0,0,0-1.84,5.64l6.49,20a5.07,5.07,0,0,1-4.82,6.64,4.93,4.93,0,0,1-3-1l-17-12.34a5.07,5.07,0,0,0-5.94,0l-17,12.34a5,5,0,0,1-2.95,1A5.06,5.06,0,0,1,18.43,78l6.48-20a5,5,0,0,0-1.83-5.64L6.1,40.08a5.05,5.05,0,0,1,3-9.14h21a5.06,5.06,0,0,0,4.8-3.49l6.48-20A5,5,0,0,1,46.15,4m0-2a7,7,0,0,0-6.71,4.87L33,26.83a3,3,0,0,1-2.9,2.11h-21A7,7,0,0,0,4.92,41.69L21.9,54A3,3,0,0,1,23,57.44l-6.49,20a7,7,0,0,0,1,6.28,7.15,7.15,0,0,0,5.76,3,7,7,0,0,0,4.12-1.37L44.35,73a3.07,3.07,0,0,1,1.8-.58,3,3,0,0,1,1.79.58l17,12.34a7,7,0,0,0,4.13,1.37,7.15,7.15,0,0,0,5.76-3,6.91,6.91,0,0,0,1-6.28l-6.49-20A3,3,0,0,1,70.39,54l17-12.34a7,7,0,0,0-4.14-12.75h-21a3,3,0,0,1-2.9-2.1l-6.49-20A6.94,6.94,0,0,0,46.15,2Z"/></g><path class="cls-3" d="M67.05,83.66a6,6,0,0,1-3.54-1.18l-17-12.34a4.06,4.06,0,0,0-4.76,0l-17,12.34a6,6,0,0,1-3.53,1.18A6.15,6.15,0,0,1,16.3,81.1a6,6,0,0,1-.83-5.38l6.49-20a4,4,0,0,0-1.47-4.53l-17-12.33A6.05,6.05,0,0,1,7.06,27.94h21a4,4,0,0,0,3.85-2.8l6.48-20a6.05,6.05,0,0,1,11.51,0l6.49,20a4,4,0,0,0,3.85,2.8h21a6.06,6.06,0,0,1,3.56,11l-17,12.33a4.06,4.06,0,0,0-1.47,4.53l6.49,20A5.91,5.91,0,0,1,72,81.1,6.15,6.15,0,0,1,67.05,83.66Z"/><path class="cls-4" d="M44.15,2A5,5,0,0,1,49,5.49l6.49,20a5,5,0,0,0,4.8,3.49h21a5.05,5.05,0,0,1,3,9.14l-17,12.34a5.05,5.05,0,0,0-1.84,5.64l6.49,20a5.07,5.07,0,0,1-4.82,6.64,4.93,4.93,0,0,1-3-1l-17-12.34a5.07,5.07,0,0,0-5.94,0l-17,12.34a5,5,0,0,1-2.95,1A5.06,5.06,0,0,1,16.43,76l6.48-20a5,5,0,0,0-1.83-5.64L4.1,38.08a5.05,5.05,0,0,1,3-9.14h21a5.06,5.06,0,0,0,4.8-3.49l6.48-20A5,5,0,0,1,44.15,2m0-2a7,7,0,0,0-6.71,4.87L31,24.83a3,3,0,0,1-2.9,2.11h-21A7,7,0,0,0,2.92,39.69L19.9,52A3,3,0,0,1,21,55.44l-6.49,20a7,7,0,0,0,1,6.28,7.15,7.15,0,0,0,5.76,3,7,7,0,0,0,4.12-1.37L42.35,71a3.07,3.07,0,0,1,1.8-.58,3,3,0,0,1,1.79.58l17,12.34a7,7,0,0,0,4.13,1.37,7.15,7.15,0,0,0,5.76-3,6.91,6.91,0,0,0,1-6.28l-6.49-20A3,3,0,0,1,68.39,52l17-12.34a7,7,0,0,0-4.14-12.75h-21a3,3,0,0,1-2.9-2.1l-6.49-20A6.94,6.94,0,0,0,44.15,0Z"/></g></g></svg>