<svg class="app__overlay__icon app__overlay__icon--pause" enable-background="new 0 0 308.3 307.3" version="1.1" viewBox="0 0 308.3 307.3" xml:space="preserve" xmlns="http://www.w3.org/2000/svg">
<style type="text/css">
	.st0111{opacity:0.2;fill:none;stroke:#000000;stroke-width:17;stroke-miterlimit:10;}
	.st1111{opacity:0.2;}
	.st2111{fill:#FFFFFF;}
</style>
<circle class="st0111" cx="159.7" cy="154.7" r="131.2"></circle>
<path class="st1111" d="M156.7,307.3C73,307.3,5,239.3,5,155.7C5,72,73,4,156.7,4s151.7,68,151.7,151.7  C308.3,239.3,240.3,307.3,156.7,307.3z M156.7,45C95.6,45,46,94.6,46,155.7s49.6,110.7,110.7,110.7s110.7-49.6,110.7-110.7  S217.7,45,156.7,45z"></path>
<path class="st2111" d="M151.7,303.3C68,303.3,0,235.3,0,151.7C0,68,68,0,151.7,0s151.7,68,151.7,151.7  C303.3,235.3,235.3,303.3,151.7,303.3z M151.7,41C90.6,41,41,90.6,41,151.7s49.6,110.7,110.7,110.7s110.7-49.6,110.7-110.7  S212.7,41,151.7,41z"></path>
<g class="st1111">
	<path d="m139.1 213.5h-16c-4 0-7.2-3.2-7.2-7.2v-99.8c0-4 3.2-7.2 7.2-7.2h16c4 0 7.2 3.2 7.2 7.2v99.8c0 4-3.3 7.2-7.2 7.2z"></path>
	<path d="m189.3 213.5h-16c-4 0-7.2-3.2-7.2-7.2v-99.8c0-4 3.2-7.2 7.2-7.2h16c4 0 7.2 3.2 7.2 7.2v99.8c0 4-3.2 7.2-7.2 7.2z"></path>
</g>
	<path class="st2111" d="m135.1 209.5h-16c-4 0-7.2-3.2-7.2-7.2v-99.8c0-4 3.2-7.2 7.2-7.2h16c4 0 7.2 3.2 7.2 7.2v99.8c0 4-3.3 7.2-7.2 7.2z"></path>
	<path class="st2111" d="m185.3 209.5h-16c-4 0-7.2-3.2-7.2-7.2v-99.8c0-4 3.2-7.2 7.2-7.2h16c4 0 7.2 3.2 7.2 7.2v99.8c0 4-3.2 7.2-7.2 7.2z"></path>
</svg>
