<svg class="app__overlay__icon app__overlay__icon--stop" enable-background="new 0 0 308.3 307.3" version="1.1" viewBox="0 0 308.3 307.3" xml:space="preserve" xmlns="http://www.w3.org/2000/svg">
<style type="text/css">
	.st0222{opacity:0.2;fill:none;stroke:#000000;stroke-width:17;stroke-miterlimit:10;}
	.st1222{opacity:0.2;}
	.st2222{fill:#FFFFFF;}
</style>
<circle class="st0222" cx="159.7" cy="154.7" r="131.2"></circle>
<path class="st1222" d="M156.7,307.3C73,307.3,5,239.3,5,155.7C5,72,73,4,156.7,4s151.7,68,151.7,151.7  C308.3,239.3,240.3,307.3,156.7,307.3z M156.7,45C95.6,45,46,94.6,46,155.7s49.6,110.7,110.7,110.7s110.7-49.6,110.7-110.7  S217.7,45,156.7,45z"></path>
<path class="st2222" d="M151.7,303.3C68,303.3,0,235.3,0,151.7C0,68,68,0,151.7,0s151.7,68,151.7,151.7  C303.3,235.3,235.3,303.3,151.7,303.3z M151.7,41C90.6,41,41,90.6,41,151.7s49.6,110.7,110.7,110.7s110.7-49.6,110.7-110.7  S212.7,41,151.7,41z"></path>
<g class="st1222">
	<path d="m189.5 202.6h-71.4c-6.5 0-11.8-5.3-11.8-11.8v-74.5c0-6.5 5.3-11.8 11.8-11.8h71.4c6.5 0 11.8 5.3 11.8 11.8v74.5c-0.1 6.5-5.3 11.8-11.8 11.8z"></path>
</g>
	<path class="st2222" d="m185.2 199.2h-71.4c-6.5 0-11.8-5.3-11.8-11.8v-74.5c0-6.5 5.3-11.8 11.8-11.8h71.4c6.5 0 11.8 5.3 11.8 11.8v74.5c-0.1 6.5-5.3 11.8-11.8 11.8z"></path>
</svg>
