<svg version="1.1" id="Layer_1" xmlns="http://www.w3.org/2000/svg" xmlns:xlink="http://www.w3.org/1999/xlink" x="0px" y="0px"
	 viewBox="0 0 675.8 510" style="enable-background:new 0 0 675.8 510;" xml:space="preserve">
<style type="text/css">
	.st0{fill:#0097CD;}
	.st1{fill:#13BFEB;}
	.st2{fill:#00AAE3;}
	.st3{fill:#42D9FD;}
	.st4{fill:#8CA7B6;}
	.st5{fill:#C4D8E4;}
	.st6{fill:#8C9DAA;}
	.st7{fill:#AAEDFF;}
	.st8{fill:#B6F8FD;}
	.st9{fill:#43201F;}
	.st10{fill:#7FFCEA;}
	.st11{fill:#071A5C;}
	.st12{fill:#FFFFFF;}
	.st13{fill:#B8B8B8;}
	.st14{fill:none;stroke:#098099;stroke-width:3.0842;stroke-miterlimit:10;}
	.st15{fill:#CCE6F2;}
	.st16{fill:#666666;}
	.st17{fill:#FF0000;}
	.st18{fill:#098099;}
</style>
<polygon class="st0" points="342.6,83.2 342.4,214.3 121.5,341.2 121.5,267.6 149.9,193 "/>
<polygon class="st1" points="342.7,82.9 221.5,11 28.4,121.7 150.7,193.5 "/>
<polygon class="st2" points="121.5,341.2 121.5,267.6 0.1,195.8 0.2,269.4 "/>
<polygon class="st2" points="346.4,101.2 344.6,158.9 336.9,180.8 337,221.8 675.4,417.8 675.2,291.7 "/>
<polygon class="st1" points="184.4,190 512.9,380.7 675.8,292 342.1,99 "/>
<polygon class="st3" points="241.3,191.8 486.8,334 604.2,270.1 355.3,126 "/>
<polygon class="st2" points="184.9,189.9 183,247.6 175.3,269.5 175.4,310.5 507.7,510 513.8,461.9 513.6,380.4 "/>
<polygon class="st2" points="200.5,199.3 419.9,326.7 420,384.7 198.7,257 "/>
<polygon class="st1" points="506.8,460.5 175.1,269.4 182.8,247.5 513.7,437.1 "/>
<polygon class="st2" points="241.4,191.8 241.1,202.6 419.9,307.1 419.9,295.4 "/>
<path class="st4" d="M204.6,335.3v31.1c0,4.8,6.4,8.7,14.3,8.7c7.9,0,14.3-3.9,14.3-8.7v-31.1H204.6z"/>
<g>
	<ellipse class="st5" cx="219" cy="335.3" rx="13.6" ry="8"/>
	<path class="st6" d="M219,328.1c6.9,0,12.8,3.3,12.8,7.2s-5.9,7.2-12.8,7.2c-6.9,0-12.8-3.3-12.8-7.2S212.1,328.1,219,328.1
		 M219,326.6c-7.9,0-14.3,3.9-14.3,8.7c0,4.8,6.4,8.7,14.3,8.7c7.9,0,14.3-3.9,14.3-8.7C233.3,330.5,226.9,326.6,219,326.6
		L219,326.6z"/>
</g>
<polygon class="st7" points="283.8,178.5 362.6,223.9 368.1,217.6 290.2,172.6 "/>
<polygon class="st1" points="368.1,217.6 368.1,220.7 362.6,223.9 "/>
<polygon class="st7" points="294.1,172.7 372.8,218.1 378.3,211.8 300.5,166.7 "/>
<polygon class="st1" points="378.3,211.8 378.3,214.9 372.8,218.1 "/>
<polygon class="st7" points="304.4,166.4 383.1,211.8 388.7,205.5 310.8,160.5 "/>
<polygon class="st1" points="388.7,205.5 388.7,208.6 383.1,211.8 "/>
<polygon class="st7" points="314.6,160.4 393.4,205.7 398.9,199.5 321,154.4 "/>
<polygon class="st1" points="398.9,199.5 398.9,202.6 393.4,205.7 "/>
<polygon class="st7" points="324.9,154.1 403.7,199.5 409.2,193.2 331.3,148.1 "/>
<polygon class="st1" points="409.2,193.2 409.2,196.3 403.7,199.5 "/>
<polygon class="st7" points="335.2,148 413.9,193.4 419.4,187.2 341.6,142.1 "/>
<polygon class="st1" points="419.4,187.2 419.4,190.2 413.9,193.4 "/>
<polygon class="st7" points="345.5,141.8 424.2,187.2 429.7,180.9 351.9,135.8 "/>
<polygon class="st1" points="429.7,180.9 429.7,184 424.2,187.2 "/>
<g>
	<polygon class="st8" points="2.9,195.3 29.7,125.1 147.1,194 120.3,264.2 	"/>
	<path class="st9" d="M30.8,128.4L144.2,195l-25.1,65.9L5.7,194.3L30.8,128.4 M28.5,121.7L0,196.3l121.5,71.3l28.5-74.6L28.5,121.7
		L28.5,121.7z"/>
</g>
<polygon class="st10" points="96.1,204 107.5,173.7 67.3,150.8 56,180.4 "/>
<polygon class="st10" points="47.7,218.7 59.1,188.3 18.9,165.4 7.6,195 "/>
<g>
	<g>
		<g>
			<path class="st11" d="M258.5,260c7.3-0.3,13.1,5.7,12.9,13.2c-0.1,7.6-6.2,13.9-13.5,14.1c-7.3,0.3-13.1-5.7-12.9-13.2
				C245.2,266.6,251.2,260.2,258.5,260z"/>
		</g>
	</g>
</g>
<polygon class="st10" points="119,260.9 130.4,230.5 90.3,207.6 78.9,237.2 "/>
<path class="st12" d="M211.6,288l37.8-21.7c17.8-8.7,24.1,9.8,14.3,16.4l-31.5,18.1c-1.6,0.9-2.6,2.6-2.6,4.5c0,0,0.1,27.9,0.1,28.2
	c0,3.6-4.8,6.5-10.7,6.5c-5.6,0-10.3-2.6-10.8-6l-0.2-39.7C208,291.6,209.4,289.3,211.6,288z"/>
<path class="st13" d="M226.5,338.1c1.7-1.2,3.2-3,3.2-4.7c0-0.3-0.2-27.7-0.2-27.7c0-1.8,0.7-3.6,2.3-4.6l31.8-18.3
	c0,0,5-2.5,4.7-8.6l-39.7,21.8c-1.6,0.9-2.5,2.5-2.5,4.3L226.5,338.1z"/>
<path class="st4" d="M251.5,362.6v31.1c0,4.8,6.4,8.7,14.3,8.7c7.9,0,14.3-3.9,14.3-8.7v-31.1H251.5z"/>
<g>
	<ellipse class="st5" cx="265.9" cy="362.6" rx="13.6" ry="8"/>
	<path class="st6" d="M265.9,355.4c6.9,0,12.8,3.3,12.8,7.2s-5.9,7.2-12.8,7.2c-6.9,0-12.8-3.3-12.8-7.2S258.9,355.4,265.9,355.4
		 M265.9,353.9c-7.9,0-14.3,3.9-14.3,8.7c0,4.8,6.4,8.7,14.3,8.7c7.9,0,14.3-3.9,14.3-8.7C280.2,357.8,273.8,353.9,265.9,353.9
		L265.9,353.9z"/>
</g>
<g>
	<g>
		<g>
			<path class="st11" d="M305.4,287.3c7.3-0.3,13.1,5.7,12.9,13.2c-0.1,7.6-6.2,13.9-13.4,14.1c-7.3,0.3-13.1-5.7-12.9-13.2
				C292.1,293.9,298.1,287.5,305.4,287.3z"/>
		</g>
	</g>
</g>
<path class="st12" d="M258.5,315.2l37.8-21.7c17.8-8.7,24.1,9.8,14.3,16.4L279.1,328c-1.6,0.9-2.6,2.6-2.6,4.5
	c0,0,0.1,27.9,0.1,28.2c0,3.6-4.8,6.5-10.7,6.5c-5.6,0-10.3-2.6-10.8-6l-0.2-39.7C254.9,318.9,256.3,316.5,258.5,315.2z"/>
<path class="st13" d="M273.4,365.3c1.7-1.2,3.2-3,3.2-4.7c0-0.3-0.2-27.7-0.2-27.7c0-1.8,0.7-3.6,2.3-4.6l31.8-18.3
	c0,0,5-2.5,4.7-8.6l-39.7,21.8c-1.6,0.9-2.5,2.5-2.5,4.3L273.4,365.3z"/>
<path class="st4" d="M297.5,389.6v31.1c0,4.8,6.4,8.7,14.3,8.7c7.9,0,14.3-3.9,14.3-8.7v-31.1H297.5z"/>
<g>
	<ellipse class="st5" cx="311.9" cy="389.6" rx="13.6" ry="8"/>
	<path class="st6" d="M311.9,382.5c6.9,0,12.8,3.3,12.8,7.2s-5.9,7.2-12.8,7.2c-6.9,0-12.8-3.3-12.8-7.2S304.9,382.5,311.9,382.5
		 M311.9,380.9c-7.9,0-14.3,3.9-14.3,8.7s6.4,8.7,14.3,8.7c7.9,0,14.3-3.9,14.3-8.7S319.8,380.9,311.9,380.9L311.9,380.9z"/>
</g>
<g>
	<g>
		<g>

				<ellipse transform="matrix(0.465 -0.8853 0.8853 0.465 -102.5335 486.3362)" class="st11" cx="351.1" cy="328" rx="13.9" ry="13"/>
		</g>
	</g>
</g>
<path class="st12" d="M304.5,342.3l37.8-21.7c17.8-8.7,24.1,9.8,14.3,16.4L325.1,355c-1.6,0.9-2.6,2.6-2.6,4.5
	c0,0,0.1,27.9,0.1,28.2c0,3.6-4.8,6.5-10.7,6.5c-5.6,0-10.3-2.6-10.8-6l-0.2-39.7C300.9,346,302.3,343.6,304.5,342.3z"/>
<path class="st13" d="M319.3,392.4c1.7-1.2,3.2-3,3.2-4.7c0-0.3-0.2-27.7-0.2-27.7c0-1.8,0.7-3.6,2.3-4.6l31.8-18.3
	c0,0,5-2.5,4.7-8.6l-39.7,21.8c-1.6,0.9-2.5,2.5-2.5,4.3L319.3,392.4z"/>
<polygon class="st14" points="135.5,74 221.3,24.3 318.3,80.6 232.3,129.9 "/>
<g>
	<path class="st15" d="M221,46.5v-4.9h-4.4c-2-0.9-4.5-1.4-7.2-1.4c-2.7,0-5.2,0.5-7.2,1.4H198v5h0c0,0.1,0,0.1,0,0.2
		c0,3.7,5.2,6.6,11.5,6.6c6.4,0,11.5-3,11.5-6.6C221,46.7,221,46.6,221,46.5z"/>
	<g>
		<path class="st5" d="M209.5,47.2c-5.8,0-10.8-2.7-10.8-5.8s4.9-5.8,10.8-5.8s10.8,2.7,10.8,5.8S215.3,47.2,209.5,47.2z"/>
		<path class="st16" d="M209.5,36.3c5.9,0,10,2.7,10,5.1s-4.1,5.1-10,5.1s-10-2.7-10-5.1S203.6,36.3,209.5,36.3 M209.5,34.7
			c-6.4,0-11.5,3-11.5,6.6s5.2,6.6,11.5,6.6s11.5-3,11.5-6.6S215.9,34.7,209.5,34.7L209.5,34.7z"/>
	</g>
	<path class="st15" d="M221,40.1v-4.9h-4.4c-2-0.9-4.5-1.4-7.2-1.4c-2.7,0-5.2,0.5-7.2,1.4H198v5h0c0,0.1,0,0.1,0,0.2
		c0,3.7,5.2,6.6,11.5,6.6c6.4,0,11.5-3,11.5-6.6C221,40.2,221,40.2,221,40.1z"/>
	<g>
		<path class="st5" d="M209.5,40.8c-5.8,0-10.8-2.7-10.8-5.8s4.9-5.8,10.8-5.8s10.8,2.7,10.8,5.8S215.3,40.8,209.5,40.8z"/>
		<path class="st16" d="M209.5,29.9c5.9,0,10,2.7,10,5.1s-4.1,5.1-10,5.1s-10-2.7-10-5.1S203.6,29.9,209.5,29.9 M209.5,28.3
			c-6.4,0-11.5,3-11.5,6.6c0,3.7,5.2,6.6,11.5,6.6s11.5-3,11.5-6.6C221,31.3,215.9,28.3,209.5,28.3L209.5,28.3z"/>
	</g>
	<path class="st15" d="M221,33.7v-4.9h-4.4c-2-0.9-4.5-1.4-7.2-1.4c-2.7,0-5.2,0.5-7.2,1.4H198v5h0c0,0.1,0,0.1,0,0.2
		c0,3.7,5.2,6.6,11.5,6.6c6.4,0,11.5-3,11.5-6.6C221,33.8,221,33.8,221,33.7z"/>
	<g>
		<path class="st5" d="M209.5,34.4c-5.8,0-10.8-2.7-10.8-5.8c0-3.2,4.9-5.8,10.8-5.8s10.8,2.7,10.8,5.8
			C220.3,31.7,215.3,34.4,209.5,34.4z"/>
		<path class="st16" d="M209.5,23.5c5.9,0,10,2.7,10,5.1s-4.1,5.1-10,5.1s-10-2.7-10-5.1S203.6,23.5,209.5,23.5 M209.5,21.9
			c-6.4,0-11.5,3-11.5,6.6s5.2,6.6,11.5,6.6s11.5-3,11.5-6.6S215.9,21.9,209.5,21.9L209.5,21.9z"/>
	</g>
	<g>
		<path class="st15" d="M221,27.5v-4.9h-4.4c-2-0.9-4.5-1.4-7.2-1.4c-2.7,0-5.2,0.5-7.2,1.4H198v5h0c0,0.1,0,0.1,0,0.2
			c0,3.7,5.2,6.6,11.5,6.6c6.4,0,11.5-3,11.5-6.6C221,27.7,221,27.6,221,27.5z"/>
		<g>
			<path class="st5" d="M209.5,27.7c-5.8,0-10.8-2.7-10.8-5.8s4.9-5.8,10.8-5.8s10.8,2.7,10.8,5.8S215.3,27.7,209.5,27.7z"/>
			<path class="st16" d="M209.5,16.8c5.9,0,10,2.7,10,5.1s-4.1,5.1-10,5.1s-10-2.7-10-5.1S203.6,16.8,209.5,16.8 M209.5,15.2
				c-6.4,0-11.5,3-11.5,6.6s5.2,6.6,11.5,6.6s11.5-3,11.5-6.6S215.9,15.2,209.5,15.2L209.5,15.2z"/>
		</g>
	</g>
	<g>
		<path class="st15" d="M221,20.6v-4.9h-4.4c-2-0.9-4.5-1.4-7.2-1.4c-2.7,0-5.2,0.5-7.2,1.4H198v5h0c0,0.1,0,0.1,0,0.2
			c0,3.7,5.2,6.6,11.5,6.6c6.4,0,11.5-3,11.5-6.6C221,20.8,221,20.7,221,20.6z"/>
		<g>
			<path class="st5" d="M209.5,21.4c-5.8,0-10.8-2.7-10.8-5.8s4.9-5.8,10.8-5.8s10.8,2.7,10.8,5.8S215.3,21.4,209.5,21.4z"/>
			<path class="st16" d="M209.5,10.4c5.9,0,10,2.7,10,5.1s-4.1,5.1-10,5.1s-10-2.7-10-5.1S203.6,10.4,209.5,10.4 M209.5,8.9
				c-6.4,0-11.5,3-11.5,6.6s5.2,6.6,11.5,6.6s11.5-3,11.5-6.6S215.9,8.9,209.5,8.9L209.5,8.9z"/>
		</g>
	</g>
	<path class="st16" d="M211.6,1.1h-4.2v14.4c0,0,0,0,0,0c0,0,0,0,0,0v0h0c0,0.7,0.9,1.2,2.1,1.2s2.1-0.5,2.1-1.2h0V1.1z"/>
	<g>
		<ellipse class="st17" cx="209.5" cy="1.2" rx="2.1" ry="1.2"/>
	</g>
</g>
<g>
	<path class="st15" d="M253.8,65.6v-4.9h-4.4c-2-0.9-4.5-1.4-7.2-1.4c-2.7,0-5.2,0.5-7.2,1.4h-4.4v5h0c0,0.1,0,0.1,0,0.2
		c0,3.7,5.2,6.6,11.5,6.6c6.4,0,11.5-3,11.5-6.6C253.8,65.8,253.8,65.7,253.8,65.6z"/>
	<g>
		<ellipse class="st5" cx="242.2" cy="60.5" rx="10.8" ry="5.8"/>
		<path class="st16" d="M242.2,55.4c5.9,0,10,2.7,10,5.1s-4.1,5.1-10,5.1c-5.9,0-10-2.7-10-5.1S236.3,55.4,242.2,55.4 M242.2,53.9
			c-6.4,0-11.5,3-11.5,6.6c0,3.7,5.2,6.6,11.5,6.6c6.4,0,11.5-3,11.5-6.6C253.8,56.8,248.6,53.9,242.2,53.9L242.2,53.9z"/>
	</g>
	<path class="st15" d="M253.8,59.2v-4.9h-4.4c-2-0.9-4.5-1.4-7.2-1.4c-2.7,0-5.2,0.5-7.2,1.4h-4.4v5h0c0,0.1,0,0.1,0,0.2
		c0,3.7,5.2,6.6,11.5,6.6c6.4,0,11.5-3,11.5-6.6C253.8,59.4,253.8,59.3,253.8,59.2z"/>
	<g>
		<ellipse class="st5" cx="242.2" cy="54.1" rx="10.8" ry="5.8"/>
		<path class="st16" d="M242.2,49c5.9,0,10,2.7,10,5.1s-4.1,5.1-10,5.1c-5.9,0-10-2.7-10-5.1S236.3,49,242.2,49 M242.2,47.5
			c-6.4,0-11.5,3-11.5,6.6s5.2,6.6,11.5,6.6c6.4,0,11.5-3,11.5-6.6S248.6,47.5,242.2,47.5L242.2,47.5z"/>
	</g>
	<path class="st15" d="M253.8,52.8v-4.9h-4.4c-2-0.9-4.5-1.4-7.2-1.4c-2.7,0-5.2,0.5-7.2,1.4h-4.4v5h0c0,0.1,0,0.1,0,0.2
		c0,3.7,5.2,6.6,11.5,6.6c6.4,0,11.5-3,11.5-6.6C253.8,53,253.8,52.9,253.8,52.8z"/>
	<g>
		<ellipse class="st5" cx="242.2" cy="47.7" rx="10.8" ry="5.8"/>
		<path class="st16" d="M242.2,42.6c5.9,0,10,2.7,10,5.1s-4.1,5.1-10,5.1c-5.9,0-10-2.7-10-5.1S236.3,42.6,242.2,42.6 M242.2,41
			c-6.4,0-11.5,3-11.5,6.6s5.2,6.6,11.5,6.6c6.4,0,11.5-3,11.5-6.6S248.6,41,242.2,41L242.2,41z"/>
	</g>
	<g>
		<path class="st15" d="M253.8,46.6v-4.9h-4.4c-2-0.9-4.5-1.4-7.2-1.4c-2.7,0-5.2,0.5-7.2,1.4h-4.4v5h0c0,0.1,0,0.1,0,0.2
			c0,3.7,5.2,6.6,11.5,6.6c6.4,0,11.5-3,11.5-6.6C253.8,46.8,253.8,46.7,253.8,46.6z"/>
		<g>
			<ellipse class="st5" cx="242.2" cy="41" rx="10.8" ry="5.8"/>
			<path class="st16" d="M242.2,35.9c5.9,0,10,2.7,10,5.1s-4.1,5.1-10,5.1c-5.9,0-10-2.7-10-5.1S236.3,35.9,242.2,35.9 M242.2,34.4
				c-6.4,0-11.5,3-11.5,6.6c0,3.7,5.2,6.6,11.5,6.6c6.4,0,11.5-3,11.5-6.6C253.8,37.3,248.6,34.4,242.2,34.4L242.2,34.4z"/>
		</g>
	</g>
	<g>
		<path class="st15" d="M253.8,39.8v-4.9h-4.4c-2-0.9-4.5-1.4-7.2-1.4c-2.7,0-5.2,0.5-7.2,1.4h-4.4v5h0c0,0.1,0,0.1,0,0.2
			c0,3.7,5.2,6.6,11.5,6.6c6.4,0,11.5-3,11.5-6.6C253.8,39.9,253.8,39.8,253.8,39.8z"/>
		<g>
			<ellipse class="st5" cx="242.2" cy="34.6" rx="10.8" ry="5.8"/>
			<path class="st16" d="M242.2,29.6c5.9,0,10,2.7,10,5.1s-4.1,5.1-10,5.1c-5.9,0-10-2.7-10-5.1S236.3,29.6,242.2,29.6 M242.2,28
				c-6.4,0-11.5,3-11.5,6.6s5.2,6.6,11.5,6.6c6.4,0,11.5-3,11.5-6.6S248.6,28,242.2,28L242.2,28z"/>
		</g>
	</g>
	<path class="st16" d="M244.3,20.3h-4.2v14.4c0,0,0,0,0,0s0,0,0,0v0h0c0,0.7,0.9,1.2,2.1,1.2s2.1-0.5,2.1-1.2h0V20.3z"/>
	<g>
		<ellipse class="st17" cx="242.2" cy="20.3" rx="2.1" ry="1.2"/>
	</g>
</g>
<g>
	<path class="st15" d="M289.2,86.1v-4.9h-4.4c-2-0.9-4.5-1.4-7.2-1.4s-5.2,0.5-7.2,1.4h-4.4v5h0c0,0.1,0,0.1,0,0.2
		c0,3.7,5.2,6.6,11.5,6.6c6.4,0,11.5-3,11.5-6.6C289.2,86.3,289.2,86.2,289.2,86.1z"/>
	<g>
		<path class="st5" d="M277.6,86.8c-5.8,0-10.8-2.7-10.8-5.8s4.9-5.8,10.8-5.8s10.8,2.7,10.8,5.8S283.5,86.8,277.6,86.8z"/>
		<path class="st16" d="M277.6,75.9c5.9,0,10,2.7,10,5.1s-4.1,5.1-10,5.1s-10-2.7-10-5.1S271.7,75.9,277.6,75.9 M277.6,74.4
			c-6.4,0-11.5,3-11.5,6.6c0,3.7,5.2,6.6,11.5,6.6s11.5-3,11.5-6.6C289.2,77.3,284,74.4,277.6,74.4L277.6,74.4z"/>
	</g>
	<path class="st15" d="M289.2,79.7v-4.9h-4.4c-2-0.9-4.5-1.4-7.2-1.4s-5.2,0.5-7.2,1.4h-4.4v5h0c0,0.1,0,0.1,0,0.2
		c0,3.7,5.2,6.6,11.5,6.6c6.4,0,11.5-3,11.5-6.6C289.2,79.9,289.2,79.8,289.2,79.7z"/>
	<g>
		<path class="st5" d="M277.6,80.4c-5.8,0-10.8-2.7-10.8-5.8s4.9-5.8,10.8-5.8s10.8,2.7,10.8,5.8S283.5,80.4,277.6,80.4z"/>
		<path class="st16" d="M277.6,69.5c5.9,0,10,2.7,10,5.1s-4.1,5.1-10,5.1s-10-2.7-10-5.1S271.7,69.5,277.6,69.5 M277.6,68
			c-6.4,0-11.5,3-11.5,6.6s5.2,6.6,11.5,6.6s11.5-3,11.5-6.6S284,68,277.6,68L277.6,68z"/>
	</g>
	<path class="st15" d="M289.2,73.3v-4.9h-4.4c-2-0.9-4.5-1.4-7.2-1.4s-5.2,0.5-7.2,1.4h-4.4v5h0c0,0.1,0,0.1,0,0.2
		c0,3.7,5.2,6.6,11.5,6.6c6.4,0,11.5-3,11.5-6.6C289.2,73.5,289.2,73.4,289.2,73.3z"/>
	<g>
		<path class="st5" d="M277.6,74c-5.8,0-10.8-2.7-10.8-5.8s4.9-5.8,10.8-5.8s10.8,2.7,10.8,5.8S283.5,74,277.6,74z"/>
		<path class="st16" d="M277.6,63.1c5.9,0,10,2.7,10,5.1s-4.1,5.1-10,5.1s-10-2.7-10-5.1S271.7,63.1,277.6,63.1 M277.6,61.5
			c-6.4,0-11.5,3-11.5,6.6s5.2,6.6,11.5,6.6s11.5-3,11.5-6.6S284,61.5,277.6,61.5L277.6,61.5z"/>
	</g>
	<g>
		<path class="st15" d="M289.2,67.1v-4.9h-4.4c-2-0.9-4.5-1.4-7.2-1.4s-5.2,0.5-7.2,1.4h-4.4v5h0c0,0.1,0,0.1,0,0.2
			c0,3.7,5.2,6.6,11.5,6.6c6.4,0,11.5-3,11.5-6.6C289.2,67.3,289.2,67.2,289.2,67.1z"/>
		<g>
			<path class="st5" d="M277.6,67.3c-5.8,0-10.8-2.7-10.8-5.8s4.9-5.8,10.8-5.8s10.8,2.7,10.8,5.8S283.5,67.3,277.6,67.3z"/>
			<path class="st16" d="M277.6,56.4c5.9,0,10,2.7,10,5.1s-4.1,5.1-10,5.1s-10-2.7-10-5.1S271.7,56.4,277.6,56.4 M277.6,54.9
				c-6.4,0-11.5,3-11.5,6.6s5.2,6.6,11.5,6.6s11.5-3,11.5-6.6S284,54.9,277.6,54.9L277.6,54.9z"/>
		</g>
	</g>
	<g>
		<path class="st15" d="M289.2,60.3v-4.9h-4.4c-2-0.9-4.5-1.4-7.2-1.4s-5.2,0.5-7.2,1.4h-4.4v5h0c0,0.1,0,0.1,0,0.2
			c0,3.7,5.2,6.6,11.5,6.6c6.4,0,11.5-3,11.5-6.6C289.2,60.4,289.2,60.3,289.2,60.3z"/>
		<g>
			<path class="st5" d="M277.6,61c-5.8,0-10.8-2.7-10.8-5.8s4.9-5.8,10.8-5.8s10.8,2.7,10.8,5.8S283.5,61,277.6,61z"/>
			<path class="st16" d="M277.6,50.1c5.9,0,10,2.7,10,5.1s-4.1,5.1-10,5.1s-10-2.7-10-5.1S271.7,50.1,277.6,50.1 M277.6,48.5
				c-6.4,0-11.5,3-11.5,6.6s5.2,6.6,11.5,6.6s11.5-3,11.5-6.6S284,48.5,277.6,48.5L277.6,48.5z"/>
		</g>
	</g>
	<path class="st16" d="M279.7,40.8h-4.2v14.4c0,0,0,0,0,0s0,0,0,0v0h0c0,0.7,0.9,1.2,2.1,1.2c1.1,0,2.1-0.5,2.1-1.2h0V40.8z"/>
	<g>
		<ellipse class="st17" cx="277.6" cy="40.8" rx="2.1" ry="1.2"/>
	</g>
</g>
<g>
	<path class="st15" d="M180.5,69.5v-4.9h-4.4c-2-0.9-4.5-1.4-7.2-1.4c-2.7,0-5.2,0.5-7.2,1.4h-4.4v5h0c0,0.1,0,0.1,0,0.2
		c0,3.7,5.2,6.6,11.5,6.6c6.4,0,11.5-3,11.5-6.6C180.6,69.7,180.5,69.6,180.5,69.5z"/>
	<g>
		<path class="st5" d="M169,70.2c-5.8,0-10.8-2.7-10.8-5.8s4.9-5.8,10.8-5.8s10.8,2.7,10.8,5.8S174.9,70.2,169,70.2z"/>
		<path class="st16" d="M169,59.3c5.9,0,10,2.7,10,5.1s-4.1,5.1-10,5.1s-10-2.7-10-5.1S163.1,59.3,169,59.3 M169,57.7
			c-6.4,0-11.5,3-11.5,6.6S162.6,71,169,71s11.5-3,11.5-6.6S175.4,57.7,169,57.7L169,57.7z"/>
	</g>
	<path class="st15" d="M180.5,63.1v-4.9h-4.4c-2-0.9-4.5-1.4-7.2-1.4c-2.7,0-5.2,0.5-7.2,1.4h-4.4v5h0c0,0.1,0,0.1,0,0.2
		c0,3.7,5.2,6.6,11.5,6.6c6.4,0,11.5-3,11.5-6.6C180.6,63.2,180.5,63.2,180.5,63.1z"/>
	<g>
		<path class="st5" d="M169,63.8c-5.8,0-10.8-2.7-10.8-5.8s4.9-5.8,10.8-5.8s10.8,2.7,10.8,5.8S174.9,63.8,169,63.8z"/>
		<path class="st16" d="M169,52.9c5.9,0,10,2.7,10,5.1s-4.1,5.1-10,5.1s-10-2.7-10-5.1S163.1,52.9,169,52.9 M169,51.3
			c-6.4,0-11.5,3-11.5,6.6c0,3.7,5.2,6.6,11.5,6.6s11.5-3,11.5-6.6C180.6,54.3,175.4,51.3,169,51.3L169,51.3z"/>
	</g>
	<path class="st15" d="M180.5,56.7v-4.9h-4.4c-2-0.9-4.5-1.4-7.2-1.4c-2.7,0-5.2,0.5-7.2,1.4h-4.4v5h0c0,0.1,0,0.1,0,0.2
		c0,3.7,5.2,6.6,11.5,6.6c6.4,0,11.5-3,11.5-6.6C180.6,56.8,180.5,56.8,180.5,56.7z"/>
	<g>
		<path class="st5" d="M169,57.4c-5.8,0-10.8-2.7-10.8-5.8s4.9-5.8,10.8-5.8s10.8,2.7,10.8,5.8S174.9,57.4,169,57.4z"/>
		<path class="st16" d="M169,46.5c5.9,0,10,2.7,10,5.1s-4.1,5.1-10,5.1s-10-2.7-10-5.1S163.1,46.5,169,46.5 M169,44.9
			c-6.4,0-11.5,3-11.5,6.6s5.2,6.6,11.5,6.6s11.5-3,11.5-6.6S175.4,44.9,169,44.9L169,44.9z"/>
	</g>
	<g>
		<path class="st15" d="M180.5,50.5v-4.9h-4.4c-2-0.9-4.5-1.4-7.2-1.4c-2.7,0-5.2,0.5-7.2,1.4h-4.4v5h0c0,0.1,0,0.1,0,0.2
			c0,3.7,5.2,6.6,11.5,6.6c6.4,0,11.5-3,11.5-6.6C180.6,50.7,180.5,50.6,180.5,50.5z"/>
		<g>
			<path class="st5" d="M169,50.7c-5.8,0-10.8-2.7-10.8-5.8S163.2,39,169,39s10.8,2.7,10.8,5.8S174.9,50.7,169,50.7z"/>
			<path class="st16" d="M169,39.8c5.9,0,10,2.7,10,5.1s-4.1,5.1-10,5.1s-10-2.7-10-5.1S163.1,39.8,169,39.8 M169,38.3
				c-6.4,0-11.5,3-11.5,6.6s5.2,6.6,11.5,6.6s11.5-3,11.5-6.6S175.4,38.3,169,38.3L169,38.3z"/>
		</g>
	</g>
	<g>
		<path class="st15" d="M180.5,43.6v-4.9h-4.4c-2-0.9-4.5-1.4-7.2-1.4c-2.7,0-5.2,0.5-7.2,1.4h-4.4v5h0c0,0.1,0,0.1,0,0.2
			c0,3.7,5.2,6.6,11.5,6.6c6.4,0,11.5-3,11.5-6.6C180.6,43.8,180.5,43.7,180.5,43.6z"/>
		<g>
			<path class="st5" d="M169,44.4c-5.8,0-10.8-2.7-10.8-5.8s4.9-5.8,10.8-5.8s10.8,2.7,10.8,5.8S174.9,44.4,169,44.4z"/>
			<path class="st16" d="M169,33.4c5.9,0,10,2.7,10,5.1s-4.1,5.1-10,5.1s-10-2.7-10-5.1S163.1,33.4,169,33.4 M169,31.9
				c-6.4,0-11.5,3-11.5,6.6c0,3.7,5.2,6.6,11.5,6.6s11.5-3,11.5-6.6C180.6,34.9,175.4,31.9,169,31.9L169,31.9z"/>
		</g>
	</g>
	<path class="st16" d="M171.1,24.1h-4.2v14.4c0,0,0,0,0,0s0,0,0,0v0h0c0,0.7,0.9,1.2,2.1,1.2s2.1-0.5,2.1-1.2h0V24.1z"/>
	<g>
		<ellipse class="st17" cx="169" cy="24.2" rx="2.1" ry="1.2"/>
	</g>
</g>
<g>
	<path class="st15" d="M213.3,88.6v-4.9h-4.4c-2-0.9-4.5-1.4-7.2-1.4s-5.2,0.5-7.2,1.4h-4.4v5h0c0,0.1,0,0.1,0,0.2
		c0,3.7,5.2,6.6,11.5,6.6c6.4,0,11.5-3,11.5-6.6C213.3,88.8,213.3,88.7,213.3,88.6z"/>
	<g>
		<path class="st5" d="M201.7,89.3c-5.8,0-10.8-2.7-10.8-5.8s4.9-5.8,10.8-5.8s10.8,2.7,10.8,5.8S207.6,89.3,201.7,89.3z"/>
		<path class="st16" d="M201.7,78.4c5.9,0,10,2.7,10,5.1s-4.1,5.1-10,5.1c-5.9,0-10-2.7-10-5.1S195.8,78.4,201.7,78.4 M201.7,76.9
			c-6.4,0-11.5,3-11.5,6.6s5.2,6.6,11.5,6.6c6.4,0,11.5-3,11.5-6.6S208.1,76.9,201.7,76.9L201.7,76.9z"/>
	</g>
	<path class="st15" d="M213.3,82.2v-4.9h-4.4c-2-0.9-4.5-1.4-7.2-1.4s-5.2,0.5-7.2,1.4h-4.4v5h0c0,0.1,0,0.1,0,0.2
		c0,3.7,5.2,6.6,11.5,6.6c6.4,0,11.5-3,11.5-6.6C213.3,82.4,213.3,82.3,213.3,82.2z"/>
	<g>
		<path class="st5" d="M201.7,82.9c-5.8,0-10.8-2.7-10.8-5.8s4.9-5.8,10.8-5.8s10.8,2.7,10.8,5.8S207.6,82.9,201.7,82.9z"/>
		<path class="st16" d="M201.7,72c5.9,0,10,2.7,10,5.1s-4.1,5.1-10,5.1c-5.9,0-10-2.7-10-5.1S195.8,72,201.7,72 M201.7,70.5
			c-6.4,0-11.5,3-11.5,6.6s5.2,6.6,11.5,6.6c6.4,0,11.5-3,11.5-6.6S208.1,70.5,201.7,70.5L201.7,70.5z"/>
	</g>
	<path class="st15" d="M213.3,75.8v-4.9h-4.4c-2-0.9-4.5-1.4-7.2-1.4s-5.2,0.5-7.2,1.4h-4.4v5h0c0,0.1,0,0.1,0,0.2
		c0,3.7,5.2,6.6,11.5,6.6c6.4,0,11.5-3,11.5-6.6C213.3,76,213.3,75.9,213.3,75.8z"/>
	<g>
		<path class="st5" d="M201.7,76.5c-5.8,0-10.8-2.7-10.8-5.8s4.9-5.8,10.8-5.8s10.8,2.7,10.8,5.8S207.6,76.5,201.7,76.5z"/>
		<path class="st16" d="M201.7,65.6c5.9,0,10,2.7,10,5.1s-4.1,5.1-10,5.1c-5.9,0-10-2.7-10-5.1S195.8,65.6,201.7,65.6 M201.7,64.1
			c-6.4,0-11.5,3-11.5,6.6s5.2,6.6,11.5,6.6c6.4,0,11.5-3,11.5-6.6S208.1,64.1,201.7,64.1L201.7,64.1z"/>
	</g>
	<g>
		<path class="st15" d="M213.3,69.6v-4.9h-4.4c-2-0.9-4.5-1.4-7.2-1.4s-5.2,0.5-7.2,1.4h-4.4v5h0c0,0.1,0,0.1,0,0.2
			c0,3.7,5.2,6.6,11.5,6.6c6.4,0,11.5-3,11.5-6.6C213.3,69.8,213.3,69.7,213.3,69.6z"/>
		<g>
			<path class="st5" d="M201.7,69.8c-5.8,0-10.8-2.7-10.8-5.8s4.9-5.8,10.8-5.8s10.8,2.7,10.8,5.8S207.6,69.8,201.7,69.8z"/>
			<path class="st16" d="M201.7,58.9c5.9,0,10,2.7,10,5.1s-4.1,5.1-10,5.1c-5.9,0-10-2.7-10-5.1S195.8,58.9,201.7,58.9 M201.7,57.4
				c-6.4,0-11.5,3-11.5,6.6s5.2,6.6,11.5,6.6c6.4,0,11.5-3,11.5-6.6S208.1,57.4,201.7,57.4L201.7,57.4z"/>
		</g>
	</g>
	<g>
		<path class="st15" d="M213.3,62.8v-4.9h-4.4c-2-0.9-4.5-1.4-7.2-1.4s-5.2,0.5-7.2,1.4h-4.4v5h0c0,0.1,0,0.1,0,0.2
			c0,3.7,5.2,6.6,11.5,6.6c6.4,0,11.5-3,11.5-6.6C213.3,62.9,213.3,62.9,213.3,62.8z"/>
		<g>
			<path class="st5" d="M201.7,63.5c-5.8,0-10.8-2.7-10.8-5.8s4.9-5.8,10.8-5.8s10.8,2.7,10.8,5.8S207.6,63.5,201.7,63.5z"/>
			<path class="st16" d="M201.7,52.6c5.9,0,10,2.7,10,5.1s-4.1,5.1-10,5.1c-5.9,0-10-2.7-10-5.1S195.8,52.6,201.7,52.6 M201.7,51
				c-6.4,0-11.5,3-11.5,6.6s5.2,6.6,11.5,6.6c6.4,0,11.5-3,11.5-6.6S208.1,51,201.7,51L201.7,51z"/>
		</g>
	</g>
	<path class="st16" d="M203.8,43.3h-4.2v14.4c0,0,0,0,0,0c0,0,0,0,0,0v0h0c0,0.7,0.9,1.2,2.1,1.2s2.1-0.5,2.1-1.2h0V43.3z"/>
	<g>
		<ellipse class="st17" cx="201.7" cy="43.3" rx="2.1" ry="1.2"/>
	</g>
</g>
<g>
	<path class="st15" d="M248.7,109.1v-4.9h-4.4c-2-0.9-4.5-1.4-7.2-1.4s-5.2,0.5-7.2,1.4h-4.4v5h0c0,0.1,0,0.1,0,0.2
		c0,3.7,5.2,6.6,11.5,6.6c6.4,0,11.5-3,11.5-6.6C248.7,109.3,248.7,109.2,248.7,109.1z"/>
	<g>
		<ellipse class="st5" cx="237.1" cy="104" rx="10.8" ry="5.8"/>
		<path class="st16" d="M237.1,98.9c5.9,0,10,2.7,10,5.1s-4.1,5.1-10,5.1s-10-2.7-10-5.1S231.3,98.9,237.1,98.9 M237.1,97.4
			c-6.4,0-11.5,3-11.5,6.6s5.2,6.6,11.5,6.6s11.5-3,11.5-6.6S243.5,97.4,237.1,97.4L237.1,97.4z"/>
	</g>
	<path class="st15" d="M248.7,102.7v-4.9h-4.4c-2-0.9-4.5-1.4-7.2-1.4s-5.2,0.5-7.2,1.4h-4.4v5h0c0,0.1,0,0.1,0,0.2
		c0,3.7,5.2,6.6,11.5,6.6c6.4,0,11.5-3,11.5-6.6C248.7,102.9,248.7,102.8,248.7,102.7z"/>
	<g>
		<ellipse class="st5" cx="237.1" cy="97.6" rx="10.8" ry="5.8"/>
		<path class="st16" d="M237.1,92.5c5.9,0,10,2.7,10,5.1s-4.1,5.1-10,5.1s-10-2.7-10-5.1S231.3,92.5,237.1,92.5 M237.1,91
			c-6.4,0-11.5,3-11.5,6.6s5.2,6.6,11.5,6.6s11.5-3,11.5-6.6S243.5,91,237.1,91L237.1,91z"/>
	</g>
	<path class="st15" d="M248.7,96.3v-4.9h-4.4c-2-0.9-4.5-1.4-7.2-1.4s-5.2,0.5-7.2,1.4h-4.4v5h0c0,0.1,0,0.1,0,0.2
		c0,3.7,5.2,6.6,11.5,6.6c6.4,0,11.5-3,11.5-6.6C248.7,96.5,248.7,96.4,248.7,96.3z"/>
	<g>
		<ellipse class="st5" cx="237.1" cy="91.2" rx="10.8" ry="5.8"/>
		<path class="st16" d="M237.1,86.1c5.9,0,10,2.7,10,5.1s-4.1,5.1-10,5.1s-10-2.7-10-5.1S231.3,86.1,237.1,86.1 M237.1,84.6
			c-6.4,0-11.5,3-11.5,6.6s5.2,6.6,11.5,6.6s11.5-3,11.5-6.6S243.5,84.6,237.1,84.6L237.1,84.6z"/>
	</g>
	<g>
		<path class="st15" d="M248.7,90.1v-4.9h-4.4c-2-0.9-4.5-1.4-7.2-1.4s-5.2,0.5-7.2,1.4h-4.4v5h0c0,0.1,0,0.1,0,0.2
			c0,3.7,5.2,6.6,11.5,6.6c6.4,0,11.5-3,11.5-6.6C248.7,90.3,248.7,90.2,248.7,90.1z"/>
		<g>
			<ellipse class="st5" cx="237.1" cy="84.5" rx="10.8" ry="5.8"/>
			<path class="st16" d="M237.1,79.4c5.9,0,10,2.7,10,5.1s-4.1,5.1-10,5.1s-10-2.7-10-5.1S231.3,79.4,237.1,79.4 M237.1,77.9
				c-6.4,0-11.5,3-11.5,6.6s5.2,6.6,11.5,6.6s11.5-3,11.5-6.6S243.5,77.9,237.1,77.9L237.1,77.9z"/>
		</g>
	</g>
	<g>
		<path class="st15" d="M248.7,83.3v-4.9h-4.4c-2-0.9-4.5-1.4-7.2-1.4s-5.2,0.5-7.2,1.4h-4.4v5h0c0,0.1,0,0.1,0,0.2
			c0,3.7,5.2,6.6,11.5,6.6c6.4,0,11.5-3,11.5-6.6C248.7,83.4,248.7,83.4,248.7,83.3z"/>
		<g>
			<ellipse class="st5" cx="237.1" cy="78.1" rx="10.8" ry="5.8"/>
			<path class="st16" d="M237.1,73.1c5.9,0,10,2.7,10,5.1s-4.1,5.1-10,5.1s-10-2.7-10-5.1S231.3,73.1,237.1,73.1 M237.1,71.5
				c-6.4,0-11.5,3-11.5,6.6s5.2,6.6,11.5,6.6s11.5-3,11.5-6.6S243.5,71.5,237.1,71.5L237.1,71.5z"/>
		</g>
	</g>
	<path class="st16" d="M239.2,63.8h-4.2v14.4c0,0,0,0,0,0c0,0,0,0,0,0v0h0c0,0.7,0.9,1.2,2.1,1.2s2.1-0.5,2.1-1.2h0V63.8z"/>
	<g>
		<ellipse class="st17" cx="237.1" cy="63.8" rx="2.1" ry="1.2"/>
	</g>
</g>
<polygon class="st18" points="117.8,90.2 174.9,123.5 147.1,133.6 174.5,163.6 118,131.3 146.6,121.6 "/>
<polygon class="st0" points="513.8,380.3 513.8,437.1 506.8,460.5 507.6,509.8 675.6,418 674.8,291.6 "/>
</svg>
