<svg xmlns="http://www.w3.org/2000/svg" id="Layer_1" viewBox="0 0 1186 563.2"><style type="text/css">
	.st0{fill:#13BFEB;}
	.st1{fill:#42D9FD;}
	.st2{fill:#00AAE3;}
	.st3{fill:#7D939E;}
	.st4{fill:#B3C7D5;}
	.st5{fill:#586E75;}
	.st6{fill:#C4D8E4;}
	.st7{fill:#8CA7B6;}
	.st8{fill:none;stroke:#FFFFFF;stroke-width:4;stroke-miterlimit:10;}
	.st9{fill:#00DAFF;}
	.st10{fill:#00FF65;}
	.st11{fill:#1C3740;}
	.st12{fill:#AAEDFF;}
	.st13{fill:#081D68;}
	.st14{fill:#F4F4F4;}
	.st15{fill:none;stroke:#CD1EFF;stroke-miterlimit:10;}
	.st16{fill:none;stroke:#FF5826;stroke-miterlimit:10;}
	.st17{fill:none;stroke:#00E3BF;stroke-miterlimit:10;}
	.st18{fill:#7FFCEA;}
	.st19{fill:#83D7FF;}
	.st20{fill:#8C9DAA;}
	.st21{fill:#94A8B2;}
	.st22{fill:#A1A1A1;}
	.st23{fill:#7CF995;}
	.st24{fill:#BFBFBF;}
	.st25{fill:#FFFFFF;}
	.st26{fill:#E6E6E6;}
	.st27{opacity:0.9;fill:#FF6700;}
	.st28{fill:#FF801A;}
	.st29{fill:#E86100;}
	.st30{fill:#D6D6D6;}
</style><polyline class="st0" points="0.3 190 211.3 312.5 365.9 228.4 64.6 54.2 0 91.4 "/><polygon class="st1" points="0.3 160.4 186.6 268.3 297.9 207.7 66 73.4 0.4 111.2 "/><polyline class="st2" points="0.1 309.2 212.2 431.9 212.1 312.3 0.2 189.7 "/><polyline class="st2" points="0 189.8 123.1 261.3 123.2 316.3 0.2 245.3 "/><polyline class="st0" points="0.5 245.5 123.2 316.3 123.1 341.5 0.4 270.5 "/><polyline class="st2" points="0.3 171 123.1 242.7 123.1 231.6 0.3 160.4 "/><polygon class="st3" points="849.2 468.7 966.8 400.7 966.8 434 849.2 502.1 "/><polyline class="st4" points="857.1 562.8 857.1 506.9 739.5 438.8 739.5 562.9 "/><polygon class="st5" points="739.5 438.8 857.1 506.9 864.9 502.3 747.3 434.2 "/><polygon class="st6" points="739.5 379.9 857.1 448 974.7 380.1 857.1 311.7 "/><polygon class="st3" points="747.3 434.2 864.9 502.3 864.9 469 747.3 400.9 "/><polygon class="st4" points="739.5 413.2 857.1 481.3 857.1 448 739.5 379.9 "/><polyline class="st7" points="857.1 562.9 857.1 506.5 974.7 438.6 974.7 562.9 "/><ellipse class="st8" cx="858.8" cy="379.5" rx="65" ry="39.5"/><polygon class="st7" points="974.6 413.1 857.1 481.3 857.1 448 974.7 380.1 "/><polygon class="st5" points="849.3 502.1 966.9 434 974.7 438.6 857.1 506.7 "/><path class="st9" d="M848.6 459.2c0-2.1-2.2-4.1-4.1-4.1s-3.2 1.6-3 3.7c0.2 2.4 2.2 4 4.2 4S848.6 461.3 848.6 459.2z"/><path class="st10" d="M838.6 454.2c0-2.1-2.2-4.1-4.1-4.1s-3.2 1.6-3 3.7c0.2 2.4 2.2 4 4.2 4S838.6 456.3 838.6 454.2z"/><polyline class="st3" points="941.4 563 965 549.5 962.2 540 922.5 563 "/><polyline class="st3" points="919.8 563 965 537.1 962.2 527.7 901.2 563 "/><polygon class="st7" points="746.7 483.7 849.9 541.4 849.8 513.7 746.7 454 "/><polygon class="st11" points="830.4 509 848.4 519.5 848.4 514.8 830.3 504.3 "/><polygon class="st11" points="830.4 515.3 848.4 525.8 848.4 521.1 830.3 510.7 "/><polygon class="st11" points="830.4 521.6 848.4 532 848.4 527.3 830.3 516.9 "/><polygon class="st11" points="830.4 527.8 848.4 538.2 848.4 533.6 830.3 523.1 "/><path class="st9" d="M758.7 465.4c0-1.3-1.4-2.6-2.6-2.6 -1.2 0-2 1-1.9 2.3 0.1 1.5 1.4 2.5 2.6 2.5C758.1 467.6 758.7 466.7 758.7 465.4z"/><path class="st10" d="M752.6 461.9c0-1.3-1.4-2.6-2.6-2.6 -1.2 0-2 1-1.9 2.3 0.1 1.5 1.4 2.5 2.6 2.5C752 464.1 752.6 463.2 752.6 461.9z"/><polyline class="st7" points="849.8 563 849.8 554 746.7 494.3 746.7 524 816.4 563 "/><polygon class="st11" points="830.4 549.3 848.4 559.8 848.4 555.1 830.3 544.7 "/><polyline class="st11" points="848.4 562.9 848.4 561.4 830.3 551 830.4 555.7 843 563 "/><polyline class="st11" points="840.3 563 830.3 557.2 830.4 561.9 832.2 563 "/><path class="st9" d="M758.7 505.7c0-1.3-1.4-2.6-2.6-2.6 -1.2 0-2 1-1.9 2.3 0.1 1.5 1.4 2.5 2.6 2.5C758.1 507.9 758.7 507 758.7 505.7z"/><path class="st10" d="M752.6 502.2c0-1.3-1.4-2.6-2.6-2.6 -1.2 0-2 1-1.9 2.3 0.1 1.5 1.4 2.5 2.6 2.5C752 504.4 752.6 503.5 752.6 502.2z"/><polyline class="st7" points="795.4 562.9 746.7 534.7 746.7 562.9 "/><path class="st9" d="M758.7 546c0-1.3-1.4-2.6-2.6-2.6 -1.2 0-2 1-1.9 2.3 0.1 1.5 1.4 2.5 2.6 2.5C758.1 548.2 758.7 547.3 758.7 546z"/><path class="st10" d="M752.6 542.5c0-1.3-1.4-2.6-2.6-2.6 -1.2 0-2 1-1.9 2.3 0.1 1.5 1.4 2.5 2.6 2.5C752 544.7 752.6 543.8 752.6 542.5z"/><polyline class="st3" points="1131.9 563 1178.2 536.2 1178.2 562.9 "/><polyline class="st6" points="1103.8 563.1 1186 515.6 1068.4 447.2 950.8 515.4 1032.9 563 "/><polyline class="st3" points="1004.2 562.8 958.6 536.4 958.6 562.9 "/><polyline class="st4" points="1032.9 562.9 950.8 515.4 950.8 548.8 975.6 563.2 "/><ellipse class="st8" cx="1070.1" cy="515" rx="65" ry="39.5"/><polyline class="st7" points="1103.7 563.1 1186 515.6 1186 548.6 1161.1 563.1 "/><polyline class="st3" points="675.2 563 721.4 536.2 721.4 562.9 "/><polyline class="st6" points="647 563.1 729.2 515.6 611.7 447.2 494 515.4 576.2 563 "/><polyline class="st3" points="547.5 562.8 501.9 536.4 501.9 562.9 "/><polyline class="st4" points="576.1 562.9 494 515.4 494 548.8 518.9 563.2 "/><ellipse class="st8" cx="613.4" cy="515" rx="65" ry="39.5"/><polyline class="st7" points="647 563.1 729.2 515.6 729.2 548.6 704.3 563.1 "/><polygon class="st0" points="74 157.9 74 160.8 68.8 163.8 "/><polygon class="st12" points="3.8 115.2 78.5 158.3 83.7 152.3 9.9 109.6 "/><polygon class="st0" points="83.7 152.3 83.7 155.2 78.5 158.3 "/><polygon class="st12" points="13.6 109.3 88.3 152.3 93.5 146.4 19.6 103.6 "/><polygon class="st0" points="93.5 146.4 93.5 149.3 88.3 152.3 "/><polygon class="st12" points="23.3 103.5 98 146.6 103.2 140.6 29.4 97.9 "/><polygon class="st0" points="103.2 140.6 103.2 143.6 98 146.6 "/><polygon class="st12" points="33.1 97.6 107.8 140.6 113 134.7 39.1 92 "/><polygon class="st0" points="113 134.7 113 137.6 107.8 140.6 "/><polygon class="st12" points="42.8 91.9 117.5 134.9 122.7 129 48.8 86.2 "/><polygon class="st0" points="122.7 129 122.7 131.9 117.5 134.9 "/><polygon class="st12" points="52.6 85.9 127.2 129 132.5 123 58.6 80.3 "/><polygon class="st0" points="132.5 123 132.5 125.9 127.2 129 "/><polygon class="st1" points="43.9 108.1 231.1 0 604.2 215.9 417.8 324.1 "/><polygon class="st0" points="43.9 339.7 43.9 108.1 417.8 324.1 417.8 440.8 417.8 555.7 "/><polygon class="st13" points="62 250.7 61.8 135.1 398.8 329.7 399 443.3 "/><path class="st14" d="M63.3 137.7l334 192.8 0.2 110.1 -334-190.8L63.3 137.7M60.3 132.5l0.2 119.1 340 194.3 -0.2-117L60.3 132.5 60.3 132.5z"/><polyline class="st15" points="66.2 226.1 111.3 225.5 140.3 262.9 186.4 263.5 233.1 276.2 275.5 310 299.1 361.9 340.5 370.9 381.3 364.9 394.2 387.2 "/><polyline class="st16" points="66.2 231.8 99.8 260.2 140.5 255.3 175.5 283.6 217 304.9 266 310.5 310.1 293.4 345.7 313.6 373.3 342.6 394.3 337 "/><polyline class="st17" points="65.9 181.8 87.9 200.5 105.6 243.2 155.5 243.7 179.5 269.2 209.4 280 234.9 302.1 294.3 312.4 320.6 355.1 356 410.5 395.3 416.9 "/><polygon class="st0" points="391.5 478.4 364.4 555.8 231.2 478.5 258.2 401.2 "/><polygon class="st1" points="258.2 401.2 284.5 385.8 417.9 463.1 391.5 478.4 "/><polyline class="st2" points="364.5 562.8 364.4 555.8 391.5 478.4 417.8 463.1 417.8 324.1 604.2 215.9 604.2 447.5 405.8 562.7 "/><polyline class="st2" points="323.6 563 230.9 508.8 231.2 478.5 364.4 555.8 364.5 562.8 "/><polygon class="st18" points="245.9 461.5 262.1 415.3 344.1 462.8 327.9 509 "/><path class="st19" d="M262.9 417.5l79.3 45.9 -15.2 43.4 -79.3-46L262.9 417.5M261.2 413.1l-17.2 49.1 84.6 49.1 17.2-49.2L261.2 413.1 261.2 413.1z"/><polygon class="st20" points="378.7 483.8 364.8 524.9 360.5 525.2 374.4 484.2 "/><polygon class="st21" points="378.8 483.7 374.4 484.2 351.1 470.6 355.5 470.2 "/><polygon class="st6" points="374.4 484.2 360.5 525.2 337.2 511.7 351.1 470.6 "/><polygon class="st22" points="353.6 476.6 343.3 507.9 360.2 518.1 359.6 520.2 340.6 509.1 352 475.6 "/><polygon class="st23" points="368.7 487.4 364.4 500 350.3 491.8 354.6 479.3 "/><polygon class="st24" points="355.9 498.1 354.1 503.3 353.5 503.3 355.3 498.1 "/><polygon class="st25" points="355.3 498.1 353.5 503.3 347.4 499.8 349.2 494.7 "/><polygon class="st26" points="355.9 498.1 355.3 498.1 349.2 494.7 349.8 494.7 "/><polygon class="st24" points="363.4 502.2 361.6 507.4 360.9 507.4 362.7 502.2 "/><polygon class="st25" points="362.7 502.2 360.9 507.4 354.9 503.9 356.7 498.8 "/><polygon class="st26" points="363.4 502.2 362.7 502.2 356.7 498.8 357.3 498.8 "/><polygon class="st24" points="353.3 504.6 351.5 509.8 350.8 509.8 352.6 504.6 "/><polygon class="st25" points="352.6 504.6 350.8 509.8 344.8 506.3 346.6 501.2 "/><polygon class="st26" points="353.3 504.6 352.6 504.6 346.6 501.2 347.2 501.2 "/><polygon class="st24" points="360.7 508.8 358.9 513.9 358.3 513.9 360.1 508.7 "/><polygon class="st25" points="360.1 508.7 358.3 513.9 352.3 510.4 354.1 505.3 "/><polygon class="st26" points="360.7 508.7 360.1 508.7 354.1 505.3 354.7 505.3 "/><polygon class="st12" points="160.6 54.8 240.8 101 246.4 94.6 167.1 48.7 "/><polygon class="st0" points="246.4 94.6 246.4 97.7 240.8 101 "/><polygon class="st12" points="171 48.8 251.2 95 256.8 88.6 177.5 42.7 "/><polygon class="st0" points="256.8 88.6 256.8 91.8 251.2 95 "/><polygon class="st12" points="181.5 42.4 261.7 88.6 267.3 82.2 188 36.3 "/><polygon class="st0" points="267.3 82.2 267.3 85.4 261.7 88.6 "/><polygon class="st12" points="192 36.2 272.1 82.5 277.8 76.1 198.5 30.2 "/><polygon class="st0" points="277.8 76.1 277.8 79.2 272.1 82.5 "/><polygon class="st12" points="202.5 29.9 282.6 76.1 288.3 69.7 209 23.8 "/><polygon class="st0" points="288.3 69.7 288.3 72.8 282.6 76.1 "/><polygon class="st12" points="212.9 23.7 293.1 69.9 298.7 63.5 219.4 17.7 "/><polygon class="st0" points="298.7 63.5 298.7 66.7 293.1 69.9 "/><polygon class="st12" points="223.4 17.3 303.6 63.5 309.2 57.1 229.9 11.3 "/><polygon class="st0" points="309.2 57.1 309.2 60.3 303.6 63.5 "/><polyline class="st27" points="400.7 265.2 397.8 292.6 427.2 292.6 424.2 265.2 "/><ellipse class="st28" cx="412.5" cy="265.2" rx="11.8" ry="6.7"/><ellipse class="st29" cx="412.5" cy="292.6" rx="14.7" ry="8.4"/><polyline class="st30" points="189.4 122 189.4 157.7 199.5 157.7 199.5 122 "/><ellipse class="st30" cx="194.5" cy="157.7" rx="5" ry="2.9"/><ellipse class="st20" cx="194.5" cy="122" rx="5" ry="2.9"/><polyline class="st30" points="201.6 115.6 201.6 151.3 211.6 151.3 211.6 115.6 "/><ellipse class="st30" cx="206.6" cy="151.3" rx="5" ry="2.9"/><ellipse class="st20" cx="206.6" cy="115.6" rx="5" ry="2.9"/></svg>
