<?xml version="1.0" encoding="utf-8"?>
<!-- Generator: Adobe Illustrator 22.1.0, SVG Export Plug-In . SVG Version: 6.00 Build 0)  -->
<svg version="1.1" id="Layer_1" xmlns="http://www.w3.org/2000/svg" xmlns:xlink="http://www.w3.org/1999/xlink" x="0px" y="0px"
	 viewBox="0 0 680 610.6" style="enable-background:new 0 0 680 610.6;" xml:space="preserve">
<style type="text/css">
	.st0{fill:#AABAC5;}
	.st1{fill:#7E95A0;}
	.st2{fill:#8CA7B6;}
	.st3{fill:#B3C7D5;}
	.st4{fill:#C4D8E4;}
	.st5{fill:none;stroke:#ECF7FF;stroke-miterlimit:10;}
	.st6{fill:none;stroke:#A0BBC8;stroke-width:3;stroke-linecap:round;stroke-miterlimit:10;}
	.st7{fill:#7FFCEA;}
	.st8{fill:#616C71;}
	.st9{fill:#162B33;}
	.st10{fill:#4B6566;}
	.st11{fill:#3A4B4C;}
	.st12{fill:#B6F8FD;}
	.st13{fill:#1F3B45;}
	.st14{fill:#0B1619;}
	.st15{fill:#B3C7D5;stroke:#B3C7D5;stroke-miterlimit:10;}
	.st16{fill:none;stroke:#8CA7B6;stroke-width:3;stroke-linecap:round;stroke-miterlimit:10;}
	.st17{fill:#577777;}
	.st18{fill:#233F48;}
	.st19{fill:#C10000;}
	.st20{fill:#F00000;}
</style>
<path class="st0" d="M648.2,339.3l-92.5-53.5c-1.5-0.9-2.5-2.4-2.7-4.1l0,0c-0.5-4.4,4.3-7.5,8.1-5.2L653,330c2.7,1.6,3.5,5,1.9,7.6
	v0C653.5,339.9,650.5,340.6,648.2,339.3z"/>
<path class="st1" d="M647.2,332.2l-88.5-50.6c-0.4,0.9-2.2,4.6-0.7,5.4l84.3,48.5L647.2,332.2z"/>
<g>
	<g>
		<path class="st2" d="M679.8,308.2h-39.5v73.4c0,21.5,15.2,40.8,39.4,54.3L679.8,308.2z"/>
		<path class="st3" d="M679.3,365.4c-24-13.4-39-32.7-39-54c0-21.4,15.1-40.7,39.2-54.2L679.3,365.4z"/>
		<path class="st2" d="M679.2,228.8c-13.7,5.6-24.7,13.3-32.1,23.7c-7.6,10.6-6.8,28.6-6.8,37.5c0,21.3,15,40.5,38.9,54"/>
		<path class="st4" d="M679.4,222.6c-24,13.4-39.1,32.7-39.1,54.1c0,21.3,14.9,40.4,38.6,53.8"/>
		<path class="st5" d="M679.2,241.5c-11.6,9.9-18.4,22.1-18.4,35.2c0,12.6,6.3,24.3,17.1,34.1"/>
		<path class="st6" d="M662.1,382.5c6.1,5.4,8.1,7.3,16.3,11.6"/>
		<path class="st6" d="M660.5,401.7c6.3,5.9,9.3,8.4,18,13"/>
	</g>
	<line class="st6" x1="660.5" y1="381.5" x2="660.5" y2="401"/>
</g>
<g>
	<g>
		<rect x="263.4" y="104.9" class="st2" width="241.3" height="73.4"/>
		<ellipse class="st2" cx="384.1" cy="178.3" rx="120.7" ry="73.4"/>
		<ellipse class="st3" cx="384.1" cy="108" rx="120.7" ry="73.4"/>
		<path class="st2" d="M504.7,86.6c0-9.9,1.2-24.7-4.6-33.3c-18.1-26.7-65.7-40.1-116-40.1c-52,0-94.8,9.3-113.9,35.9
			c-7.6,10.6-6.8,28.6-6.8,37.5c0,40.5,54,73.4,120.7,73.4S504.7,127.1,504.7,86.6z"/>
		<ellipse class="st4" cx="384.1" cy="73.4" rx="120.7" ry="73.4"/>
		<ellipse class="st7" cx="384.1" cy="73.4" rx="76.1" ry="46.3"/>
		<path class="st2" d="M384.1,47.2c36.4,0,66.7,15.5,74.3,36.2c1.2-3.2,1.8-6.6,1.8-10.1c0-25.6-34.1-46.3-76.1-46.3
			c-42,0-76.1,20.7-76.1,46.3c0,3.5,0.6,6.8,1.8,10.1C317.3,62.7,347.7,47.2,384.1,47.2z"/>
		<ellipse class="st5" cx="384.1" cy="73.4" rx="100.2" ry="60.9"/>
		<path class="st6" d="M285.2,179.2c6.1,5.4,13.3,10.3,21.5,14.6"/>
		<path class="st6" d="M283.6,198.3c6.3,5.9,14,11.2,22.7,15.7"/>
	</g>
	<line class="st6" x1="283.6" y1="178.2" x2="283.6" y2="197.7"/>
	<line class="st6" x1="306.2" y1="194.6" x2="306.2" y2="214.1"/>
</g>
<g>
	<g>
		<g>
			
				<ellipse transform="matrix(0.4779 -0.8784 0.8784 0.4779 43.5734 521.3897)" class="st8" cx="460.4" cy="224" rx="8.8" ry="7.5"/>
		</g>
	</g>
</g>
<path class="st0" d="M531,268.9L307.5,399.2c-1.5,0.9-3.3,1-4.9,0.3v0c-4.1-1.8-4.4-7.4-0.6-9.6l223.2-129.7
	c2.7-1.6,6.1-0.6,7.6,2.1l0,0C534.1,264.6,533.3,267.5,531,268.9z"/>
<path class="st0" d="M526.1,268.9l-68.2-39.5c-1.5-0.9-2.5-2.4-2.7-4.1v0c-0.5-4.4,4.3-7.5,8.1-5.2l67.5,39.6c2.7,1.6,3.5,5,1.9,7.6
	l0,0C531.4,269.5,528.4,270.3,526.1,268.9z"/>
<path class="st1" d="M523,261.1l-67.2-38.6c-0.4,0.9-0.6,1.9-0.5,3v0c0.2,1.7,1.2,3.2,2.7,4.1l60.2,34.8L523,261.1z"/>
<path class="st0" d="M488.2,407.9l-68.2-39.5c-1.5-0.9-2.5-2.4-2.7-4.1h0c-0.5-4.4,4.3-7.5,8.1-5.2l67.5,39.6c2.7,1.6,3.5,5,1.9,7.6
	v0C493.4,408.5,490.5,409.2,488.2,407.9z"/>
<path class="st0" d="M561.3,284.9L311.4,430.7c-1.5,0.9-3.3,1-4.9,0.3l0,0c-4.1-1.8-4.4-7.4-0.6-9.6l249.6-145.1
	c2.7-1.6,6.1-0.6,7.6,2.1l0,0C564.4,280.7,563.6,283.6,561.3,284.9z"/>
<path class="st1" d="M508.7,413.2l-88.5-50.6c-0.4,0.9-2.2,4.6-0.7,5.4l84.3,48.5L508.7,413.2z"/>
<path class="st0" d="M385.7,347.2l-145.9-85.5c-1.5-0.9-2.5-2.4-2.7-4.1l0,0c-0.5-4.4-1.6-10.9,2.2-8.7l151.2,89
	c2.7,1.6,3.5,5,1.9,7.6v0C390.9,347.8,388,348.5,385.7,347.2z"/>
<polygon class="st1" points="385.6,340.9 236.6,254.3 238.4,260.9 380.8,344.2 "/>
<g>
	<g>
		<rect x="0" y="249.4" class="st2" width="241.3" height="73.4"/>
		<ellipse class="st2" cx="120.7" cy="322.8" rx="120.7" ry="73.4"/>
		<ellipse class="st3" cx="120.7" cy="252.4" rx="120.7" ry="73.4"/>
		<path class="st2" d="M241.3,231c0-9.9,1.2-24.7-4.6-33.3c-18.1-26.7-65.7-40.1-116-40.1c-52,0-94.8,9.3-113.9,35.9
			C-0.8,204.2,0,222.1,0,231c0,40.5,54,73.4,120.7,73.4S241.3,271.6,241.3,231z"/>
		<ellipse class="st4" cx="120.7" cy="217.8" rx="120.7" ry="73.4"/>
		<ellipse class="st7" cx="120.7" cy="217.8" rx="76.1" ry="46.3"/>
		<path class="st2" d="M120.7,191.7c36.4,0,66.7,15.5,74.3,36.2c1.2-3.2,1.8-6.6,1.8-10.1c0-25.6-34.1-46.3-76.1-46.3
			c-42,0-76.1,20.7-76.1,46.3c0,3.5,0.6,6.8,1.8,10.1C53.9,207.2,84.3,191.7,120.7,191.7z"/>
		<ellipse class="st5" cx="120.7" cy="217.8" rx="100.2" ry="60.9"/>
		<path class="st6" d="M21.8,323.7c6.1,5.4,13.3,10.3,21.5,14.6"/>
		<path class="st6" d="M20.2,342.8c6.3,5.9,14,11.2,22.7,15.7"/>
	</g>
	<line class="st6" x1="20.3" y1="322.6" x2="20.3" y2="342.1"/>
	<line class="st6" x1="42.9" y1="339" x2="42.9" y2="358.5"/>
</g>
<g>
	<g>
		<rect x="376.9" y="463.7" class="st2" width="241.3" height="73.4"/>
		<ellipse class="st2" cx="497.6" cy="537.2" rx="120.7" ry="73.4"/>
		<ellipse class="st3" cx="497.6" cy="466.8" rx="120.7" ry="73.4"/>
		<path class="st2" d="M618.2,445.4c0-9.9,1.2-24.7-4.6-33.3c-18.1-26.7-65.7-40.1-116-40.1c-52,0-94.8,9.3-113.9,35.9
			c-7.6,10.6-6.8,28.6-6.8,37.5c0,40.5,54,73.4,120.7,73.4S618.2,485.9,618.2,445.4z"/>
		<ellipse class="st4" cx="497.6" cy="432.2" rx="120.7" ry="73.4"/>
		<ellipse class="st7" cx="497.6" cy="432.2" rx="76.1" ry="46.3"/>
		<path class="st2" d="M497.6,406c36.4,0,66.7,15.5,74.3,36.2c1.2-3.2,1.8-6.6,1.8-10.1c0-25.6-34.1-46.3-76.1-46.3
			c-42,0-76.1,20.7-76.1,46.3c0,3.5,0.6,6.8,1.8,10.1C430.8,421.6,461.2,406,497.6,406z"/>
		<ellipse class="st5" cx="497.6" cy="432.2" rx="100.2" ry="60.9"/>
		<path class="st6" d="M398.7,538.1c6.1,5.4,13.3,10.3,21.5,14.6"/>
		<path class="st6" d="M397.1,557.2c6.3,5.9,14,11.2,22.7,15.7"/>
	</g>
	<line class="st6" x1="397.1" y1="537" x2="397.1" y2="556.5"/>
	<line class="st6" x1="419.7" y1="553.4" x2="419.7" y2="572.9"/>
</g>
<ellipse transform="matrix(0.9993 -3.623062e-02 3.623062e-02 0.9993 -20.0072 11.2866)" class="st9" cx="301.4" cy="557.7" rx="10.9" ry="6.4"/>
<g>
	<polygon class="st10" points="132,332.7 256.4,404.7 346.7,351.7 222.3,280 	"/>
	<polygon class="st11" points="70.3,505.7 70.3,425.9 194.8,497.7 194.8,576.9 	"/>
	<polygon class="st9" points="347,351.2 347,488.8 194.8,576.9 194.8,497.7 222.7,481.1 256.4,404.5 	"/>
	<polygon class="st11" points="222.7,481.3 256.4,404.7 132.3,332.2 98.2,408.8 	"/>
	<g>
		<polygon class="st12" points="111.3,406.8 138.3,346.1 243.4,407.5 216.6,468.2 		"/>
		<path class="st13" d="M139,348.2l102.5,59.9L215.9,466l-102.8-59.9L139,348.2 M137.6,343.9l-28.3,63.5l108,62.9l28-63.5
			L137.6,343.9L137.6,343.9z"/>
	</g>
	<polygon class="st7" points="151.8,427.4 163.4,401 126.4,379.5 114.7,405.5 	"/>
	<polygon class="st7" points="228.5,435 240.1,408.6 203,387.1 191.3,413.2 	"/>
</g>
<ellipse transform="matrix(0.5 -0.866 0.866 0.5 -302.1219 487.7242)" class="st14" cx="271.3" cy="505.5" rx="11.7" ry="6.8"/>
<ellipse transform="matrix(0.5 -0.866 0.866 0.5 -302.1931 488.3149)" class="st3" cx="271.8" cy="505.9" rx="9.2" ry="5.4"/>
<ellipse transform="matrix(0.9993 -3.623062e-02 3.623062e-02 0.9993 -19.9571 11.2857)" class="st3" cx="301.4" cy="556.3" rx="9.2" ry="5.4"/>
<path class="st15" d="M276.3,499c0,0,37.3,22,33.9,56.5c-5.1,4.1-9,8.4-16.9-0.2c0.1-2,6.1-29.6-25.7-42.4L276.3,499z"/>
<path class="st16" d="M269.9,512c0,0,29.8,5.8,25.9,45"/>
<polygon class="st14" points="297,483.6 338.4,459.8 337.2,455.8 295.7,479.8 "/>
<polygon points="295.7,479.8 297,483.6 295.7,483.8 "/>
<polygon class="st14" points="297,478.3 338.4,454.6 337.2,450.5 295.7,474.5 "/>
<polygon points="295.7,474.5 297,478.3 295.7,478.5 "/>
<polygon class="st14" points="297,473 338.4,449.3 337.2,445.3 295.7,469.3 "/>
<polygon points="295.7,469.3 297,473 295.7,473.3 "/>
<polygon class="st14" points="297,467.8 338.4,444 337.2,440 295.7,464 "/>
<polygon points="295.7,464 297,467.8 295.7,468 "/>
<polygon class="st14" points="297,462.5 338.4,438.8 337.2,434.7 295.7,458.7 "/>
<polygon points="295.7,458.7 297,462.5 295.7,462.7 "/>
<polygon class="st14" points="297,457.2 338.4,433.5 337.2,429.5 295.7,453.5 "/>
<polygon points="295.7,453.5 297,457.2 295.7,457.5 "/>
<polygon class="st14" points="297,452 338.4,428.2 337.2,424.2 295.7,448.2 "/>
<polygon points="295.7,448.2 297,452 295.7,452.2 "/>
<polygon class="st11" points="187.1,312.4 238.4,342.1 238.4,336.5 187.1,306.9 "/>
<polygon class="st17" points="187.1,306.9 238.4,336.5 275.5,314.7 224.3,285.2 "/>
<polygon class="st9" points="238.4,336.5 238.4,342.1 275.5,320.3 275.5,314.7 "/>
<polygon class="st10" points="222.7,481.3 194.8,497.7 70.3,425.9 98.2,408.8 "/>
<ellipse transform="matrix(0.9993 -3.623062e-02 3.623062e-02 0.9993 -17.2692 7.3748)" class="st18" cx="194.8" cy="480.2" rx="10.9" ry="6.4"/>
<ellipse transform="matrix(0.9993 -3.623062e-02 3.623062e-02 0.9993 -17.2218 7.3739)" class="st19" cx="194.8" cy="478.9" rx="5.5" ry="3.2"/>
<polygon class="st19" points="189.4,479.1 189.4,474.8 200.3,474.5 200.3,478.7 "/>
<ellipse transform="matrix(0.9993 -3.623062e-02 3.623062e-02 0.9993 -17.0689 7.3711)" class="st20" cx="194.8" cy="474.6" rx="5.5" ry="3.2"/>
<g>
	<polygon class="st11" points="173.5,463.2 173.5,467.3 161,460.2 161,456.1 	"/>
	<polygon class="st10" points="183.9,457 173.5,463.2 161,456.1 171.2,449.6 	"/>
	<polygon class="st9" points="173.5,463.2 173.5,467.3 183.9,461.1 183.9,457 	"/>
</g>
<g>
	<polygon class="st11" points="160.1,471 160.1,475.1 147.7,468 147.7,463.9 	"/>
	<polygon class="st10" points="170.6,464.8 160.1,471 147.7,463.9 157.8,457.4 	"/>
	<polygon class="st9" points="160.1,471 160.1,475.1 170.6,468.9 170.6,464.8 	"/>
</g>
<g>
	<polygon class="st11" points="157.8,454.1 157.8,458.2 145.3,451.1 145.3,447 	"/>
	<polygon class="st10" points="168.2,447.9 157.8,454.1 145.3,447 155.5,440.5 	"/>
	<polygon class="st9" points="157.8,454.1 157.8,458.2 168.2,452 168.2,447.9 	"/>
</g>
<g>
	<polygon class="st11" points="144.4,461.9 144.4,466 132,458.9 132,454.8 	"/>
	<polygon class="st10" points="154.9,455.7 144.4,461.9 132,454.8 142.1,448.3 	"/>
	<polygon class="st9" points="144.4,461.9 144.4,466 154.9,459.8 154.9,455.7 	"/>
</g>
<g>
	<polygon class="st11" points="142,443.8 142,448 129.6,440.8 129.6,436.8 	"/>
	<polygon class="st10" points="152.5,437.7 142,443.8 129.6,436.8 139.8,430.2 	"/>
	<polygon class="st9" points="142,443.8 142,448 152.5,441.7 152.5,437.7 	"/>
</g>
<g>
	<polygon class="st11" points="128.7,451.6 128.7,455.7 116.2,448.6 116.2,444.5 	"/>
	<polygon class="st10" points="139.2,445.4 128.7,451.6 116.2,444.5 126.4,438 	"/>
	<polygon class="st9" points="128.7,451.6 128.7,455.7 139.2,449.5 139.2,445.4 	"/>
</g>
<g>
	<polygon class="st11" points="126.3,434.7 126.3,438.9 113.9,431.7 113.9,427.7 	"/>
	<polygon class="st10" points="136.8,428.6 126.3,434.7 113.9,427.7 124.1,421.1 	"/>
	<polygon class="st9" points="126.3,434.7 126.3,438.9 136.8,432.6 136.8,428.6 	"/>
</g>
<g>
	<polygon class="st11" points="113,442.5 113,446.7 100.5,439.5 100.5,435.4 	"/>
	<polygon class="st10" points="123.5,436.3 113,442.5 100.5,435.4 110.7,428.9 	"/>
	<polygon class="st9" points="113,442.5 113,446.7 123.5,440.4 123.5,436.3 	"/>
</g>
</svg>
