<svg xmlns="http://www.w3.org/2000/svg" viewBox="0 0 1566.95 969.69"><defs><style>.cls-1{fill:#162b33;}.cls-2{fill:#b3c7d5;}.cls-12,.cls-3{fill:none;stroke-miterlimit:10;}.cls-3{stroke:#2e4547;}.cls-4{fill:#8ca7b6;}.cls-5{fill:#8c9daa;}.cls-6{fill:#c4d8e4;}.cls-7{fill:#dcc073;}.cls-8{fill:#ccaa5e;}.cls-9{fill:#f8dd8a;}.cls-10{fill:#fff4de;}.cls-11{fill:#e9cb89;}.cls-12{stroke:#515151;stroke-width:0.25px;}.cls-13{fill:#515151;}.cls-14{fill:#b6fd7c;}.cls-15{fill:#60f534;}.cls-16{fill:#57d418;}.cls-17{fill:#1b6e32;}.cls-18{fill:#5feb23;}.cls-19{fill:#ff6700;opacity:0.9;}.cls-20{fill:#ff801a;}.cls-21{fill:#e86100;}.cls-22{fill:#c10000;}.cls-23{fill:#f00000;}.cls-24{fill:#cacaca;}.cls-25{fill:#fff;}.cls-26{fill:#0084bc;}.cls-27{fill:#00a6ff;}.cls-28{fill:#00bab2;}.cls-29{fill:#81c7c2;}</style></defs><title>Asset 12</title><g id="Layer_2" data-name="Layer 2"><g id="Layer_1-2" data-name="Layer 1"><path class="cls-1" d="M114.37,966.26,1566.16,106.74l.79-84.31L1530,0,6.48,881a13,13,0,0,0,0,22.45Z"/><path class="cls-1" d="M512.62,737.26,560,764.63a14.49,14.49,0,0,0,15.8-.85l12.78-9.33a10.24,10.24,0,0,0-.83-17.09l-37.3-22a10.23,10.23,0,0,0-11.63.84Z"/><path class="cls-2" d="M598.29,751.87l-27.12,15.74a6,6,0,0,1-6,0L562.44,766a1.58,1.58,0,0,1-.16-2.63h0a14.84,14.84,0,0,0,5.88-11.83V706.14a1.57,1.57,0,0,1,.79-1.37l33.91-19.7a1.59,1.59,0,0,1,2.38,1.37v53.39A13.91,13.91,0,0,1,598.29,751.87Z"/><path class="cls-1" d="M696.7,630.72l47.37,27.37a14.49,14.49,0,0,0,15.8-.85l12.78-9.33a10.25,10.25,0,0,0-.83-17.1l-37.3-22a10.23,10.23,0,0,0-11.63.84Z"/><path class="cls-2" d="M782.37,645.33l-27.12,15.73a6,6,0,0,1-6,0l-2.71-1.57a1.58,1.58,0,0,1-.16-2.63h0A14.84,14.84,0,0,0,752.24,645V599.6a1.57,1.57,0,0,1,.79-1.37l33.91-19.7a1.59,1.59,0,0,1,2.38,1.37v53.39A13.91,13.91,0,0,1,782.37,645.33Z"/><path class="cls-1" d="M882.39,523.93l47.36,27.37a14.49,14.49,0,0,0,15.8-.84l12.79-9.33a10.25,10.25,0,0,0-.84-17.1l-37.29-22a10.25,10.25,0,0,0-11.63.85Z"/><path class="cls-2" d="M968.06,538.54l-27.12,15.74a6,6,0,0,1-6,0l-2.72-1.57a1.59,1.59,0,0,1-.16-2.64h0a14.81,14.81,0,0,0,5.89-11.82V492.81a1.6,1.6,0,0,1,.79-1.37l33.9-19.69a1.59,1.59,0,0,1,2.39,1.37l0,53.38A13.91,13.91,0,0,1,968.06,538.54Z"/><path class="cls-1" d="M1030.44,438.87l47.37,27.37a14.49,14.49,0,0,0,15.8-.85l12.78-9.33a10.25,10.25,0,0,0-.83-17.1l-37.3-22a10.23,10.23,0,0,0-11.63.84Z"/><path class="cls-2" d="M1116.11,453.48,1089,469.22a6,6,0,0,1-6,0l-2.71-1.57a1.58,1.58,0,0,1-.16-2.63h0a14.84,14.84,0,0,0,5.88-11.83V407.75a1.57,1.57,0,0,1,.79-1.37l33.91-19.7a1.59,1.59,0,0,1,2.38,1.37v53.39A13.91,13.91,0,0,1,1116.11,453.48Z"/><line class="cls-3" x1="459.85" y1="732.02" x2="380.65" y2="688"/><line class="cls-3" x1="571.75" y1="661.53" x2="492.55" y2="617.51"/><line class="cls-3" x1="724.71" y1="580.45" x2="645.51" y2="536.43"/><line class="cls-3" x1="829.82" y1="514.05" x2="750.62" y2="470.02"/><line class="cls-3" x1="972.74" y1="425.41" x2="893.54" y2="381.39"/><line class="cls-3" x1="1125.7" y1="344.33" x2="1046.5" y2="300.31"/><line class="cls-3" x1="1237.6" y1="273.85" x2="1158.4" y2="229.82"/><path class="cls-4" d="M1566.43,135.11,129.36,968a12.69,12.69,0,0,1-19.06-11h0a13,13,0,0,1,6.48-11.24l1449.49-839Z"/><path class="cls-5" d="M511.65,741.13s-8.53-1.31-9.06-9.06,7.26-14,12.59-11S511.65,741.13,511.65,741.13Z"/><path class="cls-6" d="M507.51,723.89c-3.77,3.76-3.45,11.31,0,14.77s8.45,2.92,11.9-1.14a11.11,11.11,0,0,0-.28-14.65C515.68,719.41,511.28,720.12,507.51,723.89Z"/><path class="cls-5" d="M588.51,696.87s-8.52-1.31-9.06-9.06,7.26-13.95,12.59-11S588.51,696.87,588.51,696.87Z"/><path class="cls-6" d="M584.37,679.63c-3.77,3.76-3.45,11.31,0,14.77s8.45,2.92,11.9-1.14a11.11,11.11,0,0,0-.28-14.65C592.54,675.15,588.14,675.86,584.37,679.63Z"/><path class="cls-5" d="M661.73,654.31s-8.52-1.31-9.06-9.06,7.26-14,12.59-11S661.73,654.31,661.73,654.31Z"/><path class="cls-6" d="M657.6,637.06c-3.77,3.77-3.46,11.32,0,14.78s8.46,2.92,11.9-1.14a11.09,11.09,0,0,0-.28-14.65C665.76,632.59,661.37,633.3,657.6,637.06Z"/><path class="cls-5" d="M733.8,612.65s-8.52-1.31-9.06-9.06,7.26-14,12.59-11S733.8,612.65,733.8,612.65Z"/><path class="cls-6" d="M729.66,595.4c-3.76,3.77-3.45,11.32,0,14.78s8.45,2.92,11.9-1.14a11.11,11.11,0,0,0-.28-14.65C737.83,590.93,733.43,591.64,729.66,595.4Z"/><path class="cls-5" d="M807,570.09S798.5,568.78,798,561s7.27-13.95,12.6-11S807,570.09,807,570.09Z"/><path class="cls-6" d="M802.89,552.84c-3.77,3.77-3.45,11.32,0,14.78s8.45,2.92,11.9-1.14a11.11,11.11,0,0,0-.28-14.65C811.06,548.37,806.66,549.07,802.89,552.84Z"/><path class="cls-5" d="M883.88,525.83s-8.52-1.31-9.06-9.06,7.27-13.95,12.6-11S883.88,525.83,883.88,525.83Z"/><path class="cls-6" d="M879.75,508.58c-3.77,3.77-3.45,11.32,0,14.78s8.45,2.92,11.9-1.14a11.11,11.11,0,0,0-.28-14.65C887.92,504.11,883.52,504.81,879.75,508.58Z"/><path class="cls-5" d="M957.11,483.27s-8.52-1.31-9.06-9.06,7.26-13.95,12.59-11S957.11,483.27,957.11,483.27Z"/><path class="cls-6" d="M953,466c-3.76,3.77-3.45,11.32,0,14.78s8.45,2.92,11.9-1.14A11.11,11.11,0,0,0,964.6,465C961.14,461.55,956.74,462.25,953,466Z"/><path class="cls-5" d="M1030.7,442.34s-8.52-1.32-9.06-9.06,7.27-14,12.6-11S1030.7,442.34,1030.7,442.34Z"/><path class="cls-6" d="M1026.57,425.09c-3.77,3.77-3.45,11.31,0,14.77s8.45,2.93,11.9-1.14a11.1,11.1,0,0,0-.28-14.64C1034.74,420.62,1030.34,421.32,1026.57,425.09Z"/><path class="cls-5" d="M1103.93,399.78s-8.52-1.32-9.06-9.06,7.26-14,12.59-11S1103.93,399.78,1103.93,399.78Z"/><path class="cls-6" d="M1099.79,382.53c-3.77,3.77-3.45,11.31,0,14.77s8.45,2.93,11.9-1.14a11.1,11.1,0,0,0-.28-14.64C1108,378.05,1103.56,378.76,1099.79,382.53Z"/><path class="cls-5" d="M1180.79,355.52s-8.52-1.32-9.06-9.06,7.26-14,12.59-11S1180.79,355.52,1180.79,355.52Z"/><path class="cls-6" d="M1176.66,338.27c-3.77,3.77-3.46,11.31,0,14.77s8.45,2.93,11.9-1.14a11.1,11.1,0,0,0-.28-14.64C1184.82,333.8,1180.42,334.5,1176.66,338.27Z"/><path class="cls-5" d="M1254,313s-8.52-1.32-9.06-9.06,7.27-14,12.6-11S1254,313,1254,313Z"/><path class="cls-6" d="M1249.88,295.71c-3.77,3.77-3.45,11.31,0,14.77s8.45,2.92,11.9-1.14a11.11,11.11,0,0,0-.28-14.65C1258.05,291.23,1253.65,291.94,1249.88,295.71Z"/><polygon class="cls-7" points="305.74 804.96 264.87 781.4 264.94 734.16 305.71 757.77 305.74 804.96"/><polygon class="cls-8" points="346.62 781.35 305.74 804.96 305.71 757.77 346.54 734.16 346.62 781.35"/><polygon class="cls-9" points="305.79 710.52 264.94 734.16 305.71 757.77 346.54 734.16 305.79 710.52"/><polygon class="cls-10" points="287.84 720.79 282.14 724.09 322.9 747.9 323.09 760.44 324.19 758.87 324.98 759.28 325.38 758 326.26 758.47 326.73 757.36 327.52 757.75 327.96 756.87 328.62 757.09 328.62 744.64 287.84 720.79"/><polygon class="cls-10" points="322.42 719.94 328.13 723.22 287.47 747.19 287.3 759.73 286.19 758.17 285.4 758.58 285 757.31 284.12 757.78 283.65 756.66 282.86 757.06 282.42 756.18 281.76 756.4 281.74 743.96 322.42 719.94"/><polygon class="cls-11" points="294.42 786.89 273.65 775.09 273.67 761.12 294.41 772.93 294.42 786.89"/><polygon class="cls-12" points="344.63 779.99 331.6 787.51 331.59 772.47 344.6 764.95 344.63 779.99"/><polygon class="cls-13" points="337.71 783.8 337.71 774.58 340.52 775.24 340.52 782.17 337.71 783.8"/><polygon class="cls-13" points="335.92 777.94 342.32 774.27 339.12 772.1 335.92 777.94"/><polygon class="cls-7" points="715.63 569.25 674.77 545.68 674.84 498.44 715.61 522.05 715.63 569.25"/><polygon class="cls-8" points="756.52 545.63 715.63 569.25 715.61 522.05 756.44 498.44 756.52 545.63"/><polygon class="cls-9" points="715.69 474.8 674.84 498.44 715.61 522.05 756.44 498.44 715.69 474.8"/><polygon class="cls-10" points="697.74 485.08 692.04 488.37 732.79 512.18 732.99 524.72 734.09 523.15 734.88 523.57 735.28 522.29 736.16 522.76 736.63 521.64 737.42 522.03 737.86 521.15 738.51 521.37 738.51 508.93 697.74 485.08"/><polygon class="cls-10" points="732.32 484.23 738.03 487.5 697.37 511.47 697.2 524.01 696.09 522.45 695.3 522.87 694.9 521.59 694.02 522.06 693.55 520.95 692.75 521.34 692.32 520.47 691.66 520.68 691.64 508.24 732.32 484.23"/><polygon class="cls-11" points="704.32 551.17 683.55 539.38 683.57 525.41 704.31 537.21 704.32 551.17"/><polygon class="cls-12" points="754.53 544.27 741.5 551.79 741.49 536.75 754.5 529.23 754.53 544.27"/><polygon class="cls-13" points="747.61 548.08 747.61 538.87 750.42 539.52 750.42 546.45 747.61 548.08"/><polygon class="cls-13" points="745.82 542.23 752.22 538.55 749.02 536.38 745.82 542.23"/><polygon class="cls-7" points="1115.07 337.54 1074.2 313.98 1074.27 266.74 1115.04 290.35 1115.07 337.54"/><polygon class="cls-8" points="1155.95 313.93 1115.07 337.54 1115.04 290.35 1155.87 266.74 1155.95 313.93"/><polygon class="cls-9" points="1115.12 243.1 1074.27 266.74 1115.04 290.35 1155.87 266.74 1115.12 243.1"/><polygon class="cls-10" points="1097.17 253.37 1091.47 256.67 1132.23 280.48 1132.42 293.02 1133.52 291.45 1134.31 291.86 1134.71 290.58 1135.59 291.05 1136.06 289.94 1136.86 290.33 1137.29 289.45 1137.95 289.67 1137.95 277.22 1097.17 253.37"/><polygon class="cls-10" points="1131.75 252.52 1137.46 255.8 1096.8 279.77 1096.63 292.31 1095.52 290.75 1094.73 291.16 1094.33 289.89 1093.45 290.36 1092.98 289.24 1092.19 289.64 1091.75 288.76 1091.09 288.98 1091.07 276.54 1131.75 252.52"/><polygon class="cls-11" points="1103.75 319.46 1082.98 307.67 1083 293.7 1103.74 305.51 1103.75 319.46"/><polygon class="cls-12" points="1153.96 312.56 1140.93 320.09 1140.92 305.05 1153.93 297.53 1153.96 312.56"/><polygon class="cls-13" points="1147.05 316.38 1147.05 307.16 1149.86 307.81 1149.86 314.75 1147.05 316.38"/><polygon class="cls-13" points="1145.25 310.52 1151.65 306.85 1148.45 304.68 1145.25 310.52"/><polygon class="cls-14" points="1098.19 382.94 922.36 484.71 834.1 434.26 1009.99 332.72 1098.19 382.94"/><polygon class="cls-15" points="834.36 656.32 834.84 434.06 922.36 484.71 965.49 611.72 965.42 732.27 834.36 656.32"/><polygon class="cls-16" points="922.36 484.71 965.49 611.72 965.42 732.27 1141.44 630.9 1141.41 510.09 1097.54 383.38 922.36 484.71"/><polygon class="cls-16" points="855.62 598.01 899.62 623.6 897.03 627.94 852.85 602.12 855.62 598.01"/><polygon class="cls-17" points="899.62 623.6 899.47 627.94 897.03 627.94 899.62 623.6"/><polygon class="cls-16" points="855.62 606.77 899.62 632.35 897.03 636.7 852.85 610.88 855.62 606.77"/><polygon class="cls-17" points="899.62 632.35 899.47 636.7 897.03 636.7 899.62 632.35"/><polygon class="cls-16" points="855.62 615.8 899.62 641.39 897.03 645.73 852.85 619.91 855.62 615.8"/><polygon class="cls-17" points="899.62 641.39 899.47 645.73 897.03 645.73 899.62 641.39"/><polygon class="cls-16" points="855.62 624.56 899.62 650.14 897.03 654.49 852.85 628.66 855.62 624.56"/><polygon class="cls-17" points="899.62 650.14 899.47 654.49 897.03 654.49 899.62 650.14"/><polygon class="cls-16" points="855.62 634.07 899.62 659.65 897.03 664 852.85 638.18 855.62 634.07"/><polygon class="cls-17" points="899.62 659.65 899.47 664 897.03 664 899.62 659.65"/><polygon class="cls-16" points="855.62 642.82 899.62 668.4 897.03 672.75 852.85 646.93 855.62 642.82"/><polygon class="cls-17" points="899.62 668.4 899.47 672.75 897.03 672.75 899.62 668.4"/><polygon class="cls-14" points="1043.63 363.08 971.59 404.78 935.43 384.11 1007.49 342.5 1043.63 363.08"/><polygon class="cls-18" points="1043.63 371.85 971.59 413.55 971.59 404.78 1043.63 363.08 1043.63 371.85"/><polygon class="cls-15" points="935.43 392.7 971.59 413.55 971.59 404.78 935.43 384.11 935.43 392.7"/><polyline class="cls-19" points="906.57 413.46 902.51 451.46 943.2 451.46 939.14 413.46"/><ellipse class="cls-20" cx="922.86" cy="413.46" rx="16.29" ry="9.33"/><ellipse class="cls-21" cx="922.86" cy="451.46" rx="20.34" ry="11.66"/><polyline class="cls-17" points="1099.14 505.06 1024.13 548.23 1014.12 542.45 1090.21 498.81"/><polygon class="cls-17" points="1088.19 434.77 1099.14 505.06 1088.68 499.77 1088.19 434.77"/><polygon class="cls-6" points="1013.26 556.86 967.92 582.99 961.27 564.24 1006.78 538.14 1013.26 556.86"/><path class="cls-22" d="M990.82,555.93s-3.32-2.45-6,0a4.88,4.88,0,0,0,1.41,8.38C992.11,565.92,990.82,555.93,990.82,555.93Z"/><path class="cls-23" d="M984.11,560.38a5.36,5.36,0,0,1,4.9-4.91c2.3,0,3.78,1.84,3.58,4.33a5.22,5.22,0,0,1-5,4.77C985.34,564.57,984.11,562.88,984.11,560.38Z"/><path class="cls-24" d="M1004.62,548.55s-3.32-2.46-6,0a4.87,4.87,0,0,0,1.41,8.37C1005.9,558.54,1004.62,548.55,1004.62,548.55Z"/><path class="cls-25" d="M997.9,553a5.36,5.36,0,0,1,4.91-4.9c2.3,0,3.77,1.83,3.57,4.33a5.21,5.21,0,0,1-5,4.76C999.13,557.18,997.9,555.49,997.9,553Z"/><path class="cls-26" d="M978.39,563.38s-3.32-2.46-6,0a4.87,4.87,0,0,0,1.41,8.37C979.67,573.37,978.39,563.38,978.39,563.38Z"/><path class="cls-27" d="M971.67,567.82a5.36,5.36,0,0,1,4.91-4.9c2.3,0,3.77,1.83,3.57,4.33A5.22,5.22,0,0,1,975.2,572C972.9,572,971.67,570.32,971.67,567.82Z"/><polygon class="cls-2" points="961.33 564.21 1006.78 538.14 1005.5 537.61 959.55 564.21 961.33 564.21"/><polygon class="cls-5" points="967.98 582.97 961.33 564.21 959.55 564.21 965.88 581.81 967.98 582.97"/><polygon class="cls-28" points="1014.72 478.27 1086.88 437.72 1087.18 498.9 1015.59 539.88 1014.72 478.27"/><path class="cls-29" d="M1085.4,440.28l.27,57.76-68.62,39.28-.81-58.18,69.16-38.86m3-5.11-75.16,42.23.91,65.05,74.56-42.68-.31-64.6Z"/><polygon class="cls-16" points="1013.27 477.42 1024.13 548.23 1014.12 542.45 1013.27 477.42"/></g></g></svg>