<?xml version="1.0" encoding="utf-8"?>
<!-- Generator: Adobe Illustrator 22.1.0, SVG Export Plug-In . SVG Version: 6.00 Build 0)  -->
<svg version="1.1" id="Layer_1" xmlns="http://www.w3.org/2000/svg" xmlns:xlink="http://www.w3.org/1999/xlink" x="0px" y="0px"
	 viewBox="0 0 1029.6 595.3" style="enable-background:new 0 0 1029.6 595.3;" xml:space="preserve">
<style type="text/css">
	.st0{fill:#162B33;}
	.st1{fill:#B3C7D5;}
	.st2{fill:none;stroke:#2E4547;stroke-miterlimit:10;}
	.st3{fill:#8CA7B6;}
	.st4{fill:#8C9DAA;}
	.st5{fill:#C4D8E4;}
	.st6{fill:#712F1D;}
	.st7{fill:#DCC073;}
	.st8{fill:#CCAA5E;}
	.st9{fill:#F8DD8A;}
	.st10{fill:#FFF4DE;}
	.st11{fill:#E9CB89;}
	.st12{fill:none;stroke:#515151;stroke-width:0.25;stroke-miterlimit:10;}
	.st13{fill:#515151;}
	.st14{fill:#B6FD7C;}
	.st15{fill:#60F534;}
	.st16{fill:#57D418;}
	.st17{fill:#1B6E32;}
	.st18{fill:#5FEB23;}
	.st19{opacity:0.9;fill:#FF6700;}
	.st20{fill:#FF801A;}
	.st21{fill:#E86100;}
	.st22{fill:#C10000;}
	.st23{fill:#F00000;}
	.st24{fill:#CACACA;}
	.st25{fill:#FFFFFF;}
	.st26{fill:#0084BC;}
	.st27{fill:#00A6FF;}
	.st28{fill:#00BAB2;}
	.st29{fill:#81C7C2;}
</style>
<polygon class="st0" points="0,595.3 1029.5,0 1029.6,132 247.2,595.2 "/>
<g>
	<path class="st0" d="M337.2,594.9l-39.5-22.8l26.2-21.1c3.3-2.7,8-3,11.6-0.8l37.3,22c6.3,3.7,6.8,12.8,0.8,17.1l-7.8,5.7
		L337.2,594.9z"/>
	<path class="st1" d="M350.6,594.9c1.7-2.5,2.7-5.4,2.7-8.5V541c0-0.6,0.3-1.1,0.8-1.4l33.9-19.7c1.1-0.6,2.4,0.1,2.4,1.4l0,53.4
		c0,5-2.6,9.5-6.9,12l-14.3,8.3L350.6,594.9z"/>
</g>
<g>
	<path class="st0" d="M481.8,465.6l47.4,27.4c5,2.9,11.2,2.5,15.8-0.8l12.8-9.3c5.9-4.3,5.5-13.4-0.8-17.1l-37.3-22
		c-3.7-2.2-8.3-1.8-11.6,0.8L481.8,465.6z"/>
	<path class="st1" d="M567.5,480.2l-27.1,15.7c-1.9,1.1-4.2,1.1-6,0l-2.7-1.6c-1-0.6-1.1-2-0.2-2.6l0,0c3.7-2.8,5.9-7.2,5.9-11.8
		v-45.4c0-0.6,0.3-1.1,0.8-1.4l33.9-19.7c1.1-0.6,2.4,0.1,2.4,1.4l0,53.4C574.4,473.1,571.8,477.7,567.5,480.2z"/>
</g>
<g>
	<path class="st0" d="M667.5,358.8l47.4,27.4c5,2.9,11.2,2.5,15.8-0.8l12.8-9.3c5.9-4.3,5.5-13.4-0.8-17.1l-37.3-22
		c-3.7-2.2-8.3-1.8-11.6,0.8L667.5,358.8z"/>
	<path class="st1" d="M753.2,373.4L726,389.1c-1.9,1.1-4.2,1.1-6,0l-2.7-1.6c-1-0.6-1.1-2-0.2-2.6l0,0c3.7-2.8,5.9-7.2,5.9-11.8
		v-45.4c0-0.6,0.3-1.1,0.8-1.4l33.9-19.7c1.1-0.6,2.4,0.1,2.4,1.4l0,53.4C760.1,366.3,757.4,370.9,753.2,373.4z"/>
</g>
<g>
	<path class="st0" d="M815.5,273.7l47.4,27.4c5,2.9,11.2,2.5,15.8-0.8l12.8-9.3c5.9-4.3,5.5-13.4-0.8-17.1l-37.3-22
		c-3.7-2.2-8.3-1.8-11.6,0.8L815.5,273.7z"/>
	<path class="st1" d="M901.2,288.3l-27.1,15.7c-1.9,1.1-4.2,1.1-6,0l-2.7-1.6c-1-0.6-1.1-2-0.2-2.6v0c3.7-2.8,5.9-7.2,5.9-11.8
		v-45.4c0-0.6,0.3-1.1,0.8-1.4l33.9-19.7c1.1-0.6,2.4,0.1,2.4,1.4l0,53.4C908.1,281.2,905.5,285.8,901.2,288.3z"/>
</g>
<line class="st2" x1="244.9" y1="566.9" x2="165.7" y2="522.8"/>
<polygon class="st3" points="222.5,595.1 1029.5,128.1 1029.6,156.5 273.1,594.9 "/>
<line class="st2" x1="356.9" y1="496.4" x2="277.6" y2="452.3"/>
<line class="st2" x1="509.8" y1="415.3" x2="430.6" y2="371.3"/>
<line class="st2" x1="614.9" y1="348.9" x2="535.7" y2="304.9"/>
<line class="st2" x1="757.8" y1="260.3" x2="678.6" y2="216.2"/>
<line class="st2" x1="910.8" y1="179.2" x2="831.6" y2="135.2"/>
<line class="st2" x1="1022.7" y1="108.7" x2="943.5" y2="64.7"/>
<g>
	<path class="st4" d="M296.7,576c0,0-8.5-1.3-9.1-9.1c-0.5-7.7,7.3-14,12.6-11C305.6,558.9,296.7,576,296.7,576z"/>
	<path class="st5" d="M292.6,558.7c-3.8,3.8-3.5,11.3,0,14.8c3.5,3.5,8.5,2.9,11.9-1.1c3.9-4.6,3.2-11.2-0.3-14.6
		C300.8,554.3,296.4,555,292.6,558.7z"/>
</g>
<g>
	<path class="st4" d="M373.6,531.7c0,0-8.5-1.3-9.1-9.1s7.3-14,12.6-11C382.5,514.6,373.6,531.7,373.6,531.7z"/>
	<path class="st5" d="M369.5,514.5c-3.8,3.8-3.5,11.3,0,14.8c3.5,3.5,8.5,2.9,11.9-1.1c3.9-4.6,3.2-11.2-0.3-14.6
		C377.6,510,373.2,510.7,369.5,514.5z"/>
</g>
<g>
	<path class="st4" d="M446.8,489.2c0,0-8.5-1.3-9.1-9.1c-0.5-7.7,7.3-14,12.6-11C455.7,472.1,446.8,489.2,446.8,489.2z"/>
	<path class="st5" d="M442.7,471.9c-3.8,3.8-3.5,11.3,0,14.8c3.5,3.5,8.5,2.9,11.9-1.1c3.9-4.6,3.2-11.2-0.3-14.6
		C450.9,467.4,446.5,468.1,442.7,471.9z"/>
</g>
<g>
	<path class="st4" d="M518.9,447.5c0,0-8.5-1.3-9.1-9.1c-0.5-7.7,7.3-14,12.6-11C527.8,430.4,518.9,447.5,518.9,447.5z"/>
	<path class="st5" d="M514.8,430.2c-3.8,3.8-3.5,11.3,0,14.8c3.5,3.5,8.5,2.9,11.9-1.1c3.9-4.6,3.2-11.2-0.3-14.6
		C522.9,425.8,518.5,426.5,514.8,430.2z"/>
</g>
<g>
	<path class="st4" d="M592.1,404.9c0,0-8.5-1.3-9.1-9.1c-0.5-7.7,7.3-14,12.6-11C601,387.8,592.1,404.9,592.1,404.9z"/>
	<path class="st5" d="M588,387.7c-3.8,3.8-3.5,11.3,0,14.8c3.5,3.5,8.5,2.9,11.9-1.1c3.9-4.6,3.2-11.2-0.3-14.6
		C596.2,383.2,591.8,383.9,588,387.7z"/>
</g>
<g>
	<path class="st4" d="M669,360.7c0,0-8.5-1.3-9.1-9.1c-0.5-7.7,7.3-14,12.6-11S669,360.7,669,360.7z"/>
	<path class="st5" d="M664.8,343.4c-3.8,3.8-3.5,11.3,0,14.8c3.5,3.5,8.5,2.9,11.9-1.1c3.9-4.6,3.2-11.2-0.3-14.6
		C673,339,668.6,339.7,664.8,343.4z"/>
</g>
<g>
	<path class="st4" d="M742.2,318.1c0,0-8.5-1.3-9.1-9.1c-0.5-7.7,7.3-14,12.6-11C751.1,301,742.2,318.1,742.2,318.1z"/>
	<path class="st5" d="M738.1,300.9c-3.8,3.8-3.5,11.3,0,14.8c3.5,3.5,8.5,2.9,11.9-1.1c3.9-4.6,3.2-11.2-0.3-14.6
		C746.2,296.4,741.8,297.1,738.1,300.9z"/>
</g>
<g>
	<path class="st4" d="M815.8,277.2c0,0-8.5-1.3-9.1-9.1c-0.5-7.7,7.3-14,12.6-11C824.7,260.1,815.8,277.2,815.8,277.2z"/>
	<path class="st5" d="M811.7,259.9c-3.8,3.8-3.5,11.3,0,14.8c3.5,3.5,8.5,2.9,11.9-1.1c3.9-4.6,3.2-11.2-0.3-14.6
		C819.8,255.5,815.4,256.2,811.7,259.9z"/>
</g>
<g>
	<path class="st4" d="M889,234.6c0,0-8.5-1.3-9.1-9.1s7.3-14,12.6-11C897.9,217.5,889,234.6,889,234.6z"/>
	<path class="st5" d="M884.9,217.4c-3.8,3.8-3.5,11.3,0,14.8c3.5,3.5,8.5,2.9,11.9-1.1c3.9-4.6,3.2-11.2-0.3-14.6
		C893.1,212.9,888.7,213.6,884.9,217.4z"/>
</g>
<g>
	<path class="st4" d="M965.9,190.4c0,0-8.5-1.3-9.1-9.1s7.3-14,12.6-11C974.7,173.3,965.9,190.4,965.9,190.4z"/>
	<path class="st5" d="M961.8,173.1c-3.8,3.8-3.5,11.3,0,14.8c3.5,3.5,8.5,2.9,11.9-1.1c3.9-4.6,3.2-11.2-0.3-14.6
		C969.9,168.6,965.5,169.3,961.8,173.1z"/>
</g>
<path class="st6" d="M1013.3,274.6"/>
<g>
	<polygon class="st7" points="183.1,587 142.2,563.4 142.3,516.2 183.1,539.8 	"/>
	<polygon class="st8" points="224,563.4 183.1,587 183.1,539.8 223.9,516.2 	"/>
	<polygon class="st9" points="183.1,492.6 142.3,516.2 183.1,539.8 223.9,516.2 	"/>
	<polygon class="st10" points="165.2,502.8 159.5,506.1 200.2,529.9 200.4,542.5 201.5,540.9 202.3,541.3 202.7,540.1 203.6,540.5 
		204.1,539.4 204.9,539.8 205.3,538.9 206,539.1 206,526.7 	"/>
	<polygon class="st10" points="199.8,502 205.5,505.3 164.8,529.2 164.6,541.8 163.5,540.2 162.8,540.6 162.4,539.4 161.5,539.8 
		161,538.7 160.2,539.1 159.8,538.2 159.1,538.4 159.1,526 	"/>
	<polygon class="st11" points="171.8,568.9 151,557.1 151,543.2 171.8,555 	"/>
	<polygon class="st12" points="222,562 208.9,569.6 208.9,554.5 222,547 	"/>
	<polygon class="st13" points="215.1,565.8 215.1,556.6 217.9,557.3 217.9,564.2 	"/>
	<polygon class="st13" points="213.3,560 219.7,556.3 216.5,554.1 	"/>
</g>
<g>
	<polygon class="st7" points="500.7,404.1 459.9,380.5 459.9,333.3 500.7,356.9 	"/>
	<polygon class="st8" points="541.6,380.5 500.7,404.1 500.7,356.9 541.5,333.3 	"/>
	<polygon class="st9" points="500.8,309.6 459.9,333.3 500.7,356.9 541.5,333.3 	"/>
	<polygon class="st10" points="482.8,319.9 477.1,323.2 517.9,347 518.1,359.6 519.2,358 520,358.4 520.4,357.1 521.3,357.6 
		521.7,356.5 522.5,356.9 523,356 523.6,356.2 523.6,343.8 	"/>
	<polygon class="st10" points="517.4,319.1 523.1,322.3 482.5,346.3 482.3,358.9 481.2,357.3 480.4,357.7 480,356.4 479.1,356.9 
		478.6,355.8 477.9,356.2 477.4,355.3 476.8,355.5 476.7,343.1 	"/>
	<polygon class="st11" points="489.4,386 468.6,374.2 468.7,360.2 489.4,372.1 	"/>
	<polygon class="st12" points="539.6,379.1 526.6,386.6 526.6,371.6 539.6,364.1 	"/>
	<polygon class="st13" points="532.7,382.9 532.7,373.7 535.5,374.4 535.5,381.3 	"/>
	<polygon class="st13" points="530.9,377.1 537.3,373.4 534.1,371.2 	"/>
</g>
<g>
	<polygon class="st7" points="900.2,172.4 859.3,148.8 859.4,101.6 900.1,125.2 	"/>
	<polygon class="st8" points="941,148.8 900.2,172.4 900.1,125.2 941,101.6 	"/>
	<polygon class="st9" points="900.2,77.9 859.4,101.6 900.1,125.2 941,101.6 	"/>
	<polygon class="st10" points="882.3,88.2 876.6,91.5 917.3,115.3 917.5,127.9 918.6,126.3 919.4,126.7 919.8,125.4 920.7,125.9 
		921.2,124.8 922,125.2 922.4,124.3 923,124.5 923,112.1 	"/>
	<polygon class="st10" points="916.9,87.4 922.6,90.6 881.9,114.6 881.7,127.2 880.6,125.6 879.8,126 879.4,124.7 878.5,125.2 
		878.1,124.1 877.3,124.5 876.8,123.6 876.2,123.8 876.2,111.4 	"/>
	<polygon class="st11" points="888.8,154.3 868.1,142.5 868.1,128.5 888.8,140.4 	"/>
	<polygon class="st12" points="939.1,147.4 926,154.9 926,139.9 939,132.4 	"/>
	<polygon class="st13" points="932.1,151.2 932.1,142 935,142.7 935,149.6 	"/>
	<polygon class="st13" points="930.3,145.4 936.7,141.7 933.5,139.5 	"/>
</g>
<g>
	<polygon class="st14" points="883.3,217.8 707.5,319.6 619.2,269.1 795.1,167.6 	"/>
	<polygon class="st15" points="619.5,491.2 619.9,268.9 707.5,319.6 750.6,446.6 750.5,567.1 	"/>
	<polygon class="st16" points="707.5,319.6 750.6,446.6 750.5,567.1 926.5,465.7 926.5,344.9 882.6,218.2 	"/>
	<polygon class="st16" points="640.7,432.9 684.7,458.4 682.1,462.8 637.9,437 	"/>
	<polygon class="st17" points="684.7,458.4 684.6,462.8 682.1,462.8 	"/>
	<polygon class="st16" points="640.7,441.6 684.7,467.2 682.1,471.5 637.9,445.7 	"/>
	<polygon class="st17" points="684.7,467.2 684.6,471.5 682.1,471.5 	"/>
	<polygon class="st16" points="640.7,450.6 684.7,476.2 682.1,480.6 637.9,454.8 	"/>
	<polygon class="st17" points="684.7,476.2 684.6,480.6 682.1,480.6 	"/>
	<polygon class="st16" points="640.7,459.4 684.7,485 682.1,489.3 637.9,463.5 	"/>
	<polygon class="st17" points="684.7,485 684.6,489.3 682.1,489.3 	"/>
	<polygon class="st16" points="640.7,468.9 684.7,494.5 682.1,498.8 637.9,473 	"/>
	<polygon class="st17" points="684.7,494.5 684.6,498.8 682.1,498.8 	"/>
	<g>
		<polygon class="st16" points="640.7,477.7 684.7,503.2 682.1,507.6 637.9,481.8 		"/>
		<polygon class="st17" points="684.7,503.2 684.6,507.6 682.1,507.6 		"/>
	</g>
	<polygon class="st14" points="828.7,197.9 756.7,239.6 720.5,219 792.6,177.3 	"/>
	<polygon class="st18" points="828.7,206.7 756.7,248.4 756.7,239.6 828.7,197.9 	"/>
	<polygon class="st15" points="720.5,227.5 756.7,248.4 756.7,239.6 720.5,219 	"/>
	<g>
		<polyline class="st19" points="691.7,248.3 687.6,286.3 728.3,286.3 724.2,248.3 		"/>
		<ellipse class="st20" cx="708" cy="248.3" rx="16.3" ry="9.3"/>
		<ellipse class="st21" cx="708" cy="286.3" rx="20.3" ry="11.7"/>
	</g>
	<polyline class="st17" points="884.2,339.9 809.2,383.1 799.2,377.3 875.3,333.6 	"/>
	<path class="st6" d="M896.7,345.8"/>
	<polygon class="st17" points="873.3,269.6 884.2,339.9 873.8,334.6 	"/>
	<polygon class="st5" points="798.4,391.7 753,417.8 746.4,399.1 791.9,373 	"/>
	<path class="st22" d="M775.9,390.8c0,0-3.3-2.5-6,0c-3.5,3.2-1.3,7.6,1.4,8.4C777.2,400.8,775.9,390.8,775.9,390.8z"/>
	<path class="st23" d="M769.2,395.2c0-2.5,2.6-4.9,4.9-4.9s3.8,1.8,3.6,4.3c-0.2,2.8-2.7,4.8-5,4.8S769.2,397.7,769.2,395.2z"/>
	<path class="st24" d="M789.7,383.4c0,0-3.3-2.5-6,0c-3.5,3.2-1.3,7.6,1.4,8.4C791,393.4,789.7,383.4,789.7,383.4z"/>
	<path class="st25" d="M783,387.8c0-2.5,2.6-4.9,4.9-4.9s3.8,1.8,3.6,4.3c-0.2,2.8-2.7,4.8-5,4.8S783,390.3,783,387.8z"/>
	<path class="st26" d="M763.5,398.2c0,0-3.3-2.5-6,0c-3.5,3.2-1.3,7.6,1.4,8.4C764.8,408.2,763.5,398.2,763.5,398.2z"/>
	<path class="st27" d="M756.8,402.7c0-2.5,2.6-4.9,4.9-4.9s3.8,1.8,3.6,4.3c-0.2,2.8-2.7,4.8-5,4.8S756.8,405.2,756.8,402.7z"/>
	<polygon class="st1" points="746.4,399.1 791.9,373 790.6,372.4 744.6,399.1 	"/>
	<polygon class="st4" points="753.1,417.8 746.4,399.1 744.6,399.1 751,416.7 	"/>
	<g>
		<polygon class="st28" points="799.8,313.1 872,272.6 872.3,333.7 800.7,374.7 		"/>
		<path class="st29" d="M870.5,275.1l0.3,57.8l-68.6,39.3l-0.8-58.2L870.5,275.1 M873.5,270l-75.2,42.2l0.9,65.1l74.6-42.7
			L873.5,270L873.5,270z"/>
	</g>
	<polygon class="st16" points="798.4,312.3 809.2,383.1 799.2,377.3 	"/>
</g>
</svg>
