<?xml version="1.0" encoding="utf-8"?>
<!-- Generator: Adobe Illustrator 22.1.0, SVG Export Plug-In . SVG Version: 6.00 Build 0)  -->
<svg version="1.1" id="Layer_1" xmlns="http://www.w3.org/2000/svg" xmlns:xlink="http://www.w3.org/1999/xlink" x="0px" y="0px"
	 viewBox="0 0 762.3 439.5" style="enable-background:new 0 0 762.3 439.5;" xml:space="preserve">
<style type="text/css">
	.st0{fill:#162B33;}
	.st1{fill:#B3C7D5;}
	.st2{fill:#8C9DAA;}
	.st3{fill:#C4D8E4;}
	.st4{fill:#20363D;}
	.st5{fill:none;stroke:#2E4547;stroke-miterlimit:10;}
	.st6{fill:#E93CE6;}
	.st7{fill:#FFFFFF;stroke:#8C9DAA;stroke-width:0.25;stroke-miterlimit:10;}
	.st8{fill:#D427C8;}
	.st9{fill:#570957;}
	.st10{fill:#31043E;}
	.st11{fill:#FF70FF;}
	.st12{enable-background:new    ;}
	.st13{clip-path:url(#SVGID_2_);enable-background:new    ;}
	.st14{fill:#943C00;}
	.st15{fill:#ED6000;}
	.st16{clip-path:url(#SVGID_4_);enable-background:new    ;}
	.st17{fill:#853600;}
	.st18{fill:#8A3800;}
	.st19{fill:#8F3A00;}
	.st20{clip-path:url(#SVGID_6_);enable-background:new    ;}
	.st21{fill:#949494;}
	.st22{fill:#EDEDED;}
	.st23{clip-path:url(#SVGID_8_);enable-background:new    ;}
	.st24{fill:#858585;}
	.st25{fill:#8A8A8A;}
	.st26{fill:#8F8F8F;}
	.st27{fill:#00BAB2;}
	.st28{fill:#81C7C2;}
	.st29{fill:#9F2082;}
	.st30{fill:#0084BC;}
	.st31{fill:#00A6FF;}
	.st32{fill:#C10000;}
	.st33{fill:#F00000;}
	.st34{fill:#CACACA;}
	.st35{fill:#FFFFFF;}
	.st36{fill:#FFFFFF;stroke:#FF5A00;stroke-width:0.75;stroke-linecap:round;stroke-miterlimit:10;}
	.st37{fill:#FFFFFF;stroke:#FFEC00;stroke-width:0.75;stroke-linecap:round;stroke-miterlimit:10;}
	.st38{fill:#FFFFFF;stroke:#46FF00;stroke-width:0.75;stroke-linecap:round;stroke-miterlimit:10;}
	.st39{fill:#DCC073;}
	.st40{fill:#CCAA5E;}
	.st41{fill:#F8DD8A;}
	.st42{fill:#FFF4DE;}
	.st43{fill:#E9CB89;}
	.st44{fill:none;stroke:#515151;stroke-width:0.25;stroke-miterlimit:10;}
	.st45{fill:#515151;}
	.st46{opacity:0.9;fill:#FF6700;}
	.st47{fill:#FF801A;}
	.st48{fill:#E86100;}
</style>
<g>
	<g>
		<path class="st0" d="M69.6,168.2L43,183.5c-3.8,2.2-8.6,2-12.2-0.7l-9.9-7.2c-4.6-3.4-4.3-10.3,0.6-13.2l28.8-17
			c2.8-1.7,6.4-1.4,9,0.6l11.2,9C74.9,158.6,74.4,165.4,69.6,168.2z"/>
		<path class="st1" d="M13.4,173.7l20.9,12.2c1.4,0.8,3.2,0.8,4.6,0l2.1-1.2c0.8-0.4,0.8-1.5,0.1-2h0c-2.9-2.2-4.5-5.5-4.5-9.1
			v-35.1c0-0.4-0.2-0.8-0.6-1.1L9.9,122.1c-0.8-0.5-1.8,0.1-1.8,1.1l0,41.2C8,168.2,10.1,171.8,13.4,173.7z"/>
	</g>
	<polygon class="st1" points="0.3,99 179.9,202.9 180,227.6 0.7,124.7 	"/>
	<g>
		<path class="st0" d="M185.6,236.4L159,251.8c-3.8,2.2-8.6,2-12.2-0.7l-9.9-7.2c-4.6-3.4-4.3-10.3,0.6-13.2l28.8-17
			c2.8-1.7,6.4-1.4,9,0.6l11.2,9C190.9,226.9,190.4,233.6,185.6,236.4z"/>
		<path class="st1" d="M129.4,241.9l20.9,12.2c1.4,0.8,3.2,0.8,4.6,0l2.1-1.2c0.8-0.4,0.8-1.5,0.1-2h0c-2.9-2.2-4.5-5.5-4.5-9.1
			v-35.1c0-0.4-0.2-0.8-0.6-1.1l-26.2-15.2c-0.8-0.5-1.8,0.1-1.8,1.1l0,41.2C124.1,236.5,126.1,240,129.4,241.9z"/>
	</g>
	<path class="st2" d="M130.1,182.6c0,0,5.4-3.9,9.9,0c4.5,3.9,3.7,11.6-0.9,12.9S130.1,182.6,130.1,182.6z"/>
	<path class="st3" d="M141.1,189.9c0-4.1-4.3-8.1-8.1-8.1c-3.8,0-6.2,3-5.9,7.1c0.4,4.6,4.4,7.8,8.2,7.8
		C139.1,196.9,141.1,194.1,141.1,189.9z"/>
	<polyline class="st4" points="0,98.9 179.9,202.9 265.7,153.4 0,0 	"/>
	<path class="st2" d="M76,152.3c0,0,5.4-3.9,9.9,0c4.5,3.9,3.7,11.6-0.9,12.9S76,152.3,76,152.3z"/>
	<path class="st3" d="M87,159.7c0-4.1-4.3-8.1-8.1-8.1s-6.2,3-5.9,7.1c0.4,4.6,4.4,7.8,8.2,7.8S87,163.8,87,159.7z"/>
	<path class="st2" d="M16,118.2c0,0,5.4-3.9,9.9,0c4.5,3.9,3.7,11.6-0.9,12.9S16,118.2,16,118.2z"/>
	<path class="st3" d="M27,125.5c0-4.1-4.3-8.1-8.1-8.1s-6.2,3-5.9,7.1c0.4,4.6,4.4,7.8,8.2,7.8S27,129.6,27,125.5z"/>
	<line class="st5" x1="0.6" y1="42.3" x2="29.7" y2="26"/>
	<line class="st5" x1="76.5" y1="130.9" x2="137.1" y2="95.9"/>
	<polygon class="st6" points="133,302.3 105.8,223.5 134.5,123.2 277.3,205.7 277.3,289.6 277.3,370.8 263.5,378.4 	"/>
	<polygon class="st3" points="123.9,185.2 167.1,210 173.6,187.3 130,162.3 	"/>
	<path class="st2" d="M132.4,173.9c0,0,5-3.6,9.8,0.8c6.2,5.7,2.5,13.9-2.5,14.6C135.3,189.1,132.4,173.9,132.4,173.9z"/>
	<polygon class="st1" points="173.6,187.4 130,162.3 132.1,161.1 175.7,186.2 	"/>
	<path class="st7" d="M144.8,182c0-4.5-4.6-8.7-8.7-8.7s-6.7,3.3-6.4,7.7c0.4,5,4.7,8.5,8.8,8.5S144.8,186.4,144.8,182z"/>
	<polyline class="st8" points="477.2,90 277.3,205.7 248.5,306.1 276.8,386 290.6,378.4 505.7,256.6 506.1,157.4 477.2,90 	"/>
	<g>
		<polygon class="st9" points="325.9,226.7 430.7,166.1 430.7,268.3 325.9,328.9 		"/>
		<path class="st10" d="M429.2,168.7v98.7l-101.8,58.8v-98.7L429.2,168.7 M432.2,163.5l-4.5,2.6l-101.8,58.8l-1.5,0.9v1.7v98.7v5.2
			l4.5-2.6l101.8-58.8l1.5-0.9v-1.7v-98.7V163.5L432.2,163.5z"/>
	</g>
	<polygon class="st11" points="477.2,90 277.3,205.7 134.5,123.2 334.4,7.6 	"/>
	<polygon class="st8" points="105.8,223.5 248.5,306.1 276.8,386.1 133,302.3 	"/>
	<polygon class="st3" points="131.2,213 159.4,229.1 163,217.1 134.5,200.8 	"/>
	<polygon class="st8" points="450.9,92.6 281.7,190.5 160.9,120.7 450.9,81.1 	"/>
	<polygon class="st11" points="450.9,81.1 281.7,179.1 160.9,109.2 330,11.4 	"/>
	<polygon class="st6" points="160.9,109.2 161,120.6 281.9,190.4 281.7,179.1 	"/>
	<g>
		<g>
			<g class="st12">
				<g class="st12">
					<defs>
						<path id="SVGID_1_" class="st12" d="M300.1,231.8l0.5,0.1C300.4,231.9,300.2,231.9,300.1,231.8l-0.6,0
							C299.7,231.8,299.9,231.8,300.1,231.8z"/>
					</defs>
					<clipPath id="SVGID_2_">
						<use xlink:href="#SVGID_1_"  style="overflow:visible;"/>
					</clipPath>
					<g class="st13">
						<path class="st14" d="M300,231.9l-0.5-0.1C299.7,231.8,299.9,231.8,300,231.9l0.6,0C300.4,231.9,300.2,231.9,300,231.9"/>
					</g>
				</g>
				<g>
					<path class="st15" d="M300,231.9c2.2-0.2,4,1.8,4.1,4.3c0.1,2.5-1.7,4.7-3.8,4.8c-2.2,0.2-4-1.8-4.1-4.3
						C296.1,234.2,297.8,232,300,231.9z"/>
				</g>
				<g class="st12">
					<defs>
						<path id="SVGID_3_" class="st12" d="M299.6,241l-0.5-0.1c-1.9-0.2-3.4-2-3.5-4.3c-0.1-2.5,1.7-4.7,3.8-4.8l0.5,0.1
							c-2.2,0.2-3.9,2.3-3.8,4.8C296.2,239,297.7,240.8,299.6,241z"/>
					</defs>
					<clipPath id="SVGID_4_">
						<use xlink:href="#SVGID_3_"  style="overflow:visible;"/>
					</clipPath>
					<g class="st16">
						<path class="st17" d="M299.6,241l-0.5-0.1c-1.9-0.2-3.4-2-3.5-4.3c0-0.6,0.1-1.1,0.2-1.6l0.5,0.1c-0.1,0.5-0.2,1.1-0.2,1.6
							C296.2,239,297.7,240.8,299.6,241"/>
						<path class="st18" d="M296.3,235.1l-0.5-0.1c0.1-0.4,0.3-0.8,0.5-1.1l0.5,0.1C296.6,234.3,296.4,234.7,296.3,235.1"/>
						<path class="st19" d="M296.8,234l-0.5-0.1c0.2-0.4,0.5-0.7,0.7-1l0.5,0.1C297.3,233.3,297,233.6,296.8,234"/>
						<path class="st14" d="M297.5,233L297,233c0.7-0.7,1.5-1.1,2.4-1.1l0.5,0.1C299,231.9,298.2,232.4,297.5,233"/>
					</g>
				</g>
			</g>
		</g>
	</g>
	<g>
		<g>
			<g class="st12">
				<g class="st12">
					<defs>
						<path id="SVGID_5_" class="st12" d="M310.1,226.7l0.5,0.1C310.5,226.8,310.3,226.8,310.1,226.7l-0.6,0
							C309.8,226.7,310,226.7,310.1,226.7z"/>
					</defs>
					<clipPath id="SVGID_6_">
						<use xlink:href="#SVGID_5_"  style="overflow:visible;"/>
					</clipPath>
					<g class="st20">
						<path class="st21" d="M310.1,226.8l-0.5-0.1C309.8,226.7,310,226.7,310.1,226.8l0.6,0C310.5,226.8,310.3,226.8,310.1,226.8"/>
					</g>
				</g>
				<g>

						<ellipse transform="matrix(0.1032 -0.9947 0.9947 0.1032 48.0431 515.9797)" class="st22" cx="310.2" cy="231.3" rx="4.6" ry="4"/>
				</g>
				<g class="st12">
					<defs>
						<path id="SVGID_7_" class="st12" d="M309.7,235.9l-0.5-0.1c-1.9-0.2-3.4-2-3.5-4.3c-0.1-2.5,1.7-4.7,3.8-4.8l0.5,0.1
							c-2.2,0.2-3.9,2.3-3.8,4.8C306.3,233.9,307.8,235.7,309.7,235.9z"/>
					</defs>
					<clipPath id="SVGID_8_">
						<use xlink:href="#SVGID_7_"  style="overflow:visible;"/>
					</clipPath>
					<g class="st23">
						<path class="st24" d="M309.7,235.9l-0.5-0.1c-1.9-0.2-3.4-2-3.5-4.3c0-0.6,0.1-1.1,0.2-1.6l0.5,0.1c-0.1,0.5-0.2,1.1-0.2,1.6
							C306.3,233.9,307.8,235.7,309.7,235.9"/>
						<path class="st25" d="M306.4,230l-0.5-0.1c0.1-0.4,0.3-0.8,0.5-1.1l0.5,0.1C306.7,229.2,306.5,229.6,306.4,230"/>
						<path class="st26" d="M306.9,228.9l-0.5-0.1c0.2-0.4,0.5-0.7,0.7-1l0.5,0.1C307.4,228.2,307.1,228.5,306.9,228.9"/>
						<path class="st21" d="M307.6,227.9l-0.5-0.1c0.7-0.7,1.5-1.1,2.4-1.1l0.5,0.1C309.1,226.8,308.3,227.3,307.6,227.9"/>
					</g>
				</g>
			</g>
		</g>
	</g>
	<g>
		<polygon class="st27" points="180.6,232.2 192.6,176.2 259,214.8 247.2,270.8 		"/>
		<path class="st28" d="M193.6,178.5l63.7,37.1l-11.2,52.9l-63.9-37L193.6,178.5 M191.5,173.8l-12.6,59.1l69.3,40.2l12.5-59.1
			L191.5,173.8L191.5,173.8z"/>
	</g>
	<polyline class="st29" points="173.4,235.9 242.9,276.1 248.5,273.1 177.4,231.8 	"/>
	<polygon class="st6" points="242.9,276.1 262.1,209.9 248.5,273.1 	"/>
	<polygon class="st29" points="173.4,235.9 191.5,173.8 178.9,232.9 	"/>
	<path class="st30" d="M154.7,219c0,0,2.1-1.6,3.9,0s1.4,4.6-0.3,5.1C156.5,224.6,154.7,219,154.7,219z"/>
	<path class="st31" d="M159.1,221.9c0-1.6-1.7-3.2-3.2-3.2c-1.5,0-2.5,1.2-2.3,2.8c0.1,1.8,1.7,3.1,3.2,3.1
		C158.3,224.6,159.1,223.5,159.1,221.9z"/>
	<path class="st32" d="M144.3,213.1c0,0,2.2-1.6,3.9,0c2.3,2.1,0.9,5-0.9,5.5C143.5,219.6,144.3,213.1,144.3,213.1z"/>
	<path class="st33" d="M148.7,216c0-1.6-1.7-3.2-3.2-3.2s-2.5,1.2-2.3,2.8c0.1,1.8,1.7,3.1,3.2,3.1S148.7,217.6,148.7,216z"/>
	<path class="st34" d="M135.3,207.9c0,0,2.1-1.6,3.9,0c1.8,1.6,1.4,4.6-0.3,5.1C137.1,213.5,135.3,207.9,135.3,207.9z"/>
	<path class="st35" d="M139.7,210.8c0-1.6-1.7-3.2-3.2-3.2c-1.5,0-2.5,1.2-2.3,2.8c0.1,1.8,1.7,3.1,3.2,3.1
		C138.9,213.5,139.7,212.4,139.7,210.8z"/>
	<polygon class="st1" points="163,217.2 134.5,200.8 135.8,200 164.3,216.4 	"/>
	<polygon class="st2" points="159.4,229.1 163,217.2 164.3,216.4 160.7,228.5 	"/>
	<polygon class="st2" points="167.2,209.9 173.6,187.5 175.7,186.2 169.1,208.9 	"/>
	<polygon class="st6" points="248.9,74.9 334.6,124.3 340.7,117.5 255.8,68.4 	"/>
	<polygon class="st8" points="340.7,117.5 340.7,120.9 334.6,124.3 	"/>
	<polygon class="st6" points="260,68.5 345.8,117.9 351.8,111.1 267,62 	"/>
	<polygon class="st8" points="351.8,111.1 351.8,114.5 345.8,117.9 	"/>
	<polygon class="st6" points="271.3,61.7 357,111.1 363,104.3 278.2,55.2 	"/>
	<polygon class="st8" points="363,104.3 363,107.6 357,111.1 	"/>
	<polygon class="st6" points="282.4,55.1 368.2,104.5 374.2,97.7 289.4,48.6 	"/>
	<polygon class="st8" points="374.2,97.7 374.2,101.1 368.2,104.5 	"/>
	<polygon class="st6" points="293.6,48.3 379.4,97.7 385.4,90.9 300.6,41.8 	"/>
	<polygon class="st8" points="385.4,90.9 385.4,94.2 379.4,97.7 	"/>
	<polygon class="st6" points="304.8,41.7 390.6,91.1 396.6,84.3 311.8,35.2 	"/>
	<polygon class="st8" points="396.6,84.3 396.6,87.6 390.6,91.1 	"/>
	<polygon class="st6" points="316,34.8 401.8,84.3 407.8,77.4 323,28.4 	"/>
	<polygon class="st8" points="407.8,77.4 407.8,80.8 401.8,84.3 	"/>
	<g>
		<path class="st2" d="M151.9,184.5c0,0,5-3.6,9.8,0.8c6.2,5.7,2.5,13.9-2.5,14.6C154.7,199.7,151.9,184.5,151.9,184.5z"/>
		<path class="st7" d="M164.2,192.5c0-4.5-4.6-8.7-8.7-8.7s-6.7,3.3-6.4,7.7c0.4,5,4.7,8.5,8.8,8.5S164.2,197,164.2,192.5z"/>
		<path class="st36" d="M155.9,186.8c-2.6,0-4.2,2.1-4,4.9"/>
		<path class="st37" d="M160.6,189.7c-1.1-1.7-2.9-2.9-4.7-2.9"/>
		<path class="st38" d="M160.8,195c0.4-0.7,0.6-1.7,0.6-2.7c0-0.9-0.3-1.8-0.8-2.6"/>
		<path class="st2" d="M157.9,192c0-0.7-0.7-1.4-1.4-1.4s-1.1,0.5-1,1.2c0.1,0.8,0.8,1.4,1.4,1.4S157.9,192.7,157.9,192z"/>
		<polygon class="st2" points="157.1,191.4 155.4,188.6 155.9,191.9 		"/>
	</g>
	<path class="st36" d="M136.5,176.2c-2.6,0-4.2,2.1-4,4.9"/>
	<path class="st37" d="M141.1,179.1c-1.1-1.7-2.9-2.9-4.7-2.9"/>
	<path class="st38" d="M141.4,184.4c0.4-0.7,0.6-1.7,0.6-2.7c0-0.9-0.3-1.8-0.8-2.6"/>
	<path class="st2" d="M138.4,181.4c0-0.7-0.7-1.4-1.4-1.4c-0.7,0-1.1,0.5-1,1.2c0.1,0.8,0.8,1.4,1.4,1.4S138.4,182.1,138.4,181.4z"
		/>
	<polygon class="st2" points="137.6,180.8 136,178 136.5,181.3 	"/>
	<g>
		<polyline class="st4" points="591.6,439.4 327.4,287.3 327.3,228 361.3,208.3 762.3,439.2 591.6,439.4 		"/>
		<g>
			<path class="st0" d="M481.4,403.1l-26.6,15.4c-3.8,2.2-8.6,2-12.2-0.7l-9.9-7.2c-4.6-3.4-4.3-10.3,0.6-13.2l28.8-17
				c2.8-1.7,6.4-1.4,9,0.6l11.2,9C486.8,393.6,486.3,400.3,481.4,403.1z"/>
			<path class="st1" d="M425.3,408.6l20.9,12.2c1.4,0.8,3.2,0.8,4.6,0l2.1-1.2c0.8-0.4,0.8-1.5,0.1-2l0,0c-2.9-2.2-4.5-5.5-4.5-9.1
				v-35.1c0-0.4-0.2-0.8-0.6-1.1L421.8,357c-0.8-0.5-1.8,0.1-1.8,1.1l0,41.2C419.9,403.2,422,406.7,425.3,408.6z"/>
		</g>
		<polyline class="st1" points="549.5,439.1 327.2,311.9 327.4,287.3 590.8,439 		"/>
		<g>
			<path class="st2" d="M429.9,358.2c0,0,5.4-3.9,9.9,0c4.5,3.9,3.7,11.6-0.9,12.9C434.4,372.3,429.9,358.2,429.9,358.2z"/>
			<path class="st3" d="M440.9,365.5c0-4.1-4.3-8.1-8.1-8.1c-3.8,0-6.2,3-5.9,7.1c0.4,4.6,4.4,7.8,8.2,7.8S440.9,369.6,440.9,365.5z
				"/>
		</g>
		<g>
			<path class="st2" d="M374.1,324c0,0,5.4-3.9,9.9,0c4.5,3.9,3.7,11.6-0.9,12.9C378.6,338.1,374.1,324,374.1,324z"/>
			<path class="st3" d="M385.2,331.3c0-4.1-4.3-8.1-8.1-8.1c-3.8,0-6.2,3-5.9,7.1c0.4,4.6,4.4,7.8,8.2,7.8S385.2,335.4,385.2,331.3z
				"/>
		</g>
		<g>
			<path class="st2" d="M544.3,421.4c0,0,5.4-3.9,9.9,0c4.5,3.9,3.7,11.6-0.9,12.9C548.7,435.6,544.3,421.4,544.3,421.4z"/>
			<path class="st3" d="M555.3,428.7c0-4.1-4.3-8.1-8.1-8.1c-3.8,0-6.2,3-5.9,7.1c0.4,4.6,4.4,7.8,8.2,7.8S555.3,432.8,555.3,428.7z
				"/>
		</g>
		<g>
			<path class="st2" d="M489.1,389.7c0,0,5.4-3.9,9.9,0c4.5,3.9,3.7,11.6-0.9,12.9C493.6,403.8,489.1,389.7,489.1,389.7z"/>
			<path class="st3" d="M500.2,397c0-4.1-4.3-8.1-8.1-8.1c-3.8,0-6.2,3-5.9,7.1c0.4,4.6,4.4,7.8,8.2,7.8S500.2,401.1,500.2,397z"/>
		</g>
		<line class="st5" x1="389.3" y1="310.4" x2="449.9" y2="275.4"/>
		<line class="st5" x1="503.6" y1="376.6" x2="564.1" y2="341.6"/>
		<line class="st5" x1="624.1" y1="439.1" x2="678.3" y2="407.7"/>
		<g>
			<path class="st2" d="M328.4,293.8c-0.4-0.3-0.8-0.6-1.1-0.8c0,0.3,0.1,0.6,0.1,0.9c0,2.3-0.1,4.6,0.1,6.9
				c0.2,1.9,0.3,3.9,0.1,5.9c0,0,0,0,0,0C332.1,305.4,332.9,297.7,328.4,293.8z"/>
			<path class="st3" d="M327.3,295.9c0,1.6,0,3.2,0.1,4.8c0.2,1.9,0.3,3.9,0.1,5.9c1.3-1.2,2-3.1,2-5.6
				C329.6,299.2,328.6,297.4,327.3,295.9z"/>
		</g>
	</g>
	<g>
		<polygon class="st39" points="60.4,105.8 28.9,87.6 28.9,51.1 60.4,69.4 		"/>
		<polygon class="st40" points="92,87.6 60.4,105.8 60.4,69.4 92,51.1 		"/>
		<polygon class="st41" points="60.5,32.9 28.9,51.1 60.4,69.4 92,51.1 		"/>
		<polygon class="st42" points="46.6,40.8 42.2,43.4 73.7,61.7 73.9,71.4 74.7,70.2 75.3,70.5 75.6,69.5 76.3,69.9 76.7,69
			77.3,69.4 77.6,68.7 78.1,68.8 78.1,59.2 		"/>
		<polygon class="st42" points="73.3,40.2 77.7,42.7 46.3,61.2 46.2,70.9 45.4,69.7 44.7,70 44.4,69 43.8,69.4 43.4,68.5 42.8,68.8
			42.4,68.1 41.9,68.3 41.9,58.7 		"/>
		<polygon class="st43" points="51.7,91.8 35.7,82.7 35.7,72 51.7,81.1 		"/>
		<polygon class="st44" points="90.2,86.6 80.2,92.4 80.2,80.8 90.2,74.9 		"/>
		<polygon class="st44" points="90.2,86.6 80.2,92.4 80.2,80.8 90.2,74.9 		"/>
		<polygon class="st45" points="84.9,89.5 84.9,82.4 87.1,82.9 87.1,88.2 		"/>
		<polygon class="st45" points="83.5,85 88.5,82.1 86,80.5 		"/>
	</g>
	<g>
		<polygon class="st39" points="584.8,415 553.3,396.8 553.3,360.3 584.8,378.5 		"/>
		<polygon class="st40" points="616.4,396.7 584.8,415 584.8,378.5 616.3,360.3 		"/>
		<polygon class="st41" points="584.9,342.1 553.3,360.3 584.8,378.5 616.3,360.3 		"/>
		<polygon class="st42" points="571,350 566.6,352.5 598.1,370.9 598.2,380.6 599.1,379.4 599.7,379.7 600,378.7 600.7,379.1
			601,378.2 601.6,378.5 602,377.8 602.5,378 602.5,368.4 		"/>
		<polygon class="st42" points="597.7,349.3 602.1,351.9 570.7,370.4 570.6,380.1 569.7,378.8 569.1,379.2 568.8,378.2 568.1,378.5
			567.8,377.7 567.1,378 566.8,377.3 566.3,377.5 566.3,367.9 		"/>
		<polygon class="st43" points="576.1,401 560,391.9 560.1,381.1 576.1,390.2 		"/>
		<polygon class="st44" points="614.8,395.7 604.8,401.5 604.8,389.9 614.8,384.1 		"/>
		<polygon class="st45" points="609.5,398.6 609.5,391.5 611.7,392 611.7,397.4 		"/>
		<polygon class="st45" points="608.1,394.1 613.1,391.3 610.6,389.6 		"/>
	</g>
	<g>
		<polyline class="st46" points="209.4,81.9 206.8,106.7 233.3,106.7 230.7,81.9 		"/>
		<ellipse class="st47" cx="220.1" cy="81.9" rx="10.6" ry="6.1"/>
		<ellipse class="st48" cx="220.1" cy="106.7" rx="13.3" ry="7.6"/>
	</g>
</g>
</svg>
