<?xml version="1.0" encoding="utf-8"?>
<!-- Generator: Adobe Illustrator 22.1.0, SVG Export Plug-In . SVG Version: 6.00 Build 0)  -->
<svg version="1.1" id="Layer_1" xmlns="http://www.w3.org/2000/svg" xmlns:xlink="http://www.w3.org/1999/xlink" x="0px" y="0px"
	 viewBox="0 0 911.5 529.8" style="enable-background:new 0 0 911.5 529.8;" xml:space="preserve">
<style type="text/css">
	.st0{fill:#162B33;}
	.st1{fill:#B3C7D5;}
	.st2{fill:none;stroke:#2E4547;stroke-miterlimit:10;}
	.st3{fill:#8CA7B6;}
	.st4{fill:#8C9DAA;}
	.st5{fill:#C4D8E4;}
	.st6{fill:#AF54FF;}
	.st7{fill:#8C29D3;}
	.st8{fill:#7126B1;}
	.st9{fill:#A8B9D5;}
	.st10{fill:#354976;}
	.st11{fill:#B978FF;}
	.st12{fill:#712F1D;}
	.st13{fill:#C10000;}
	.st14{fill:#F00000;}
	.st15{fill:#CACACA;}
	.st16{fill:#FFFFFF;}
	.st17{fill:#0084BC;}
	.st18{fill:#00A6FF;}
	.st19{fill:#354976;stroke:#354976;stroke-width:5;stroke-miterlimit:10;}
	.st20{fill:#DCC073;}
	.st21{fill:#CCAA5E;}
	.st22{fill:#F8DD8A;}
	.st23{fill:#FFF4DE;}
	.st24{fill:#E9CB89;}
	.st25{fill:none;stroke:#515151;stroke-width:0.25;stroke-miterlimit:10;}
	.st26{fill:#515151;}
	.st27{opacity:0.4;fill:#00FFBF;}
	.st28{enable-background:new    ;}
	.st29{fill:#00ECB1;}
	.st30{clip-path:url(#SVGID_2_);enable-background:new    ;}
	.st31{fill:#008563;}
	.st32{fill:#008A67;}
	.st33{fill:#008F6B;}
	.st34{fill:#00946F;}
	.st35{fill:#009973;}
	.st36{fill:#009E76;}
	.st37{clip-path:url(#SVGID_4_);enable-background:new    ;}
	.st38{clip-path:url(#SVGID_6_);enable-background:new    ;}
	.st39{clip-path:url(#SVGID_8_);enable-background:new    ;}
	.st40{clip-path:url(#SVGID_10_);enable-background:new    ;}
	.st41{fill:#00BAB2;}
	.st42{fill:#81C7C2;}
	.st43{fill:#4E1A84;}
</style>
<g>
	<polygon class="st0" points="910.8,0 408.2,291.1 440.3,385.6 911.5,112.8 	"/>
	<g>
		<path class="st0" d="M782.6,212.5l41.7,24.1c4.4,2.5,9.8,2.2,13.9-0.7l11.3-8.2c5.2-3.8,4.9-11.8-0.7-15.1L816,193.2
			c-3.2-1.9-7.3-1.6-10.2,0.7L782.6,212.5z"/>
		<path class="st1" d="M858.1,225.3l-23.9,13.9c-1.6,1-3.7,1-5.3,0l-2.4-1.4c-0.9-0.5-0.9-1.7-0.1-2.3l0,0c3.3-2.5,5.2-6.3,5.2-10.4
			v-40c0-0.5,0.3-1,0.7-1.2l29.9-17.3c0.9-0.5,2.1,0.1,2.1,1.2l0,47C864.2,219.1,861.9,223.2,858.1,225.3z"/>
	</g>
	<g>
		<path class="st0" d="M489.9,377.1l41.7,24.1c4.4,2.5,9.8,2.2,13.9-0.7l11.3-8.2c5.2-3.8,4.9-11.8-0.7-15.1l-32.9-19.4
			c-3.2-1.9-7.3-1.6-10.2,0.7L489.9,377.1z"/>
		<path class="st1" d="M565.4,390l-23.9,13.9c-1.6,1-3.7,1-5.3,0l-2.4-1.4c-0.9-0.5-0.9-1.7-0.1-2.3l0,0c3.3-2.5,5.2-6.3,5.2-10.4
			v-40c0-0.5,0.3-1,0.7-1.2l29.9-17.3c0.9-0.5,2.1,0.1,2.1,1.2l0,47C571.5,383.8,569.2,387.8,565.4,390z"/>
	</g>
	<line class="st0" x1="440.3" y1="385.6" x2="911.5" y2="112.8"/>
	<line class="st2" x1="535.7" y1="311.3" x2="465.9" y2="272.5"/>
	<line class="st2" x1="670.6" y1="236.6" x2="600.8" y2="197.8"/>
	<line class="st2" x1="763.2" y1="178.1" x2="693.4" y2="139.3"/>
	<line class="st2" x1="888.3" y1="105.2" x2="818.6" y2="66.4"/>
	<polyline class="st3" points="444.3,408.4 911,138 911.3,113 444.1,383.4 	"/>
	<g>
		<path class="st4" d="M458.4,397.7c0,0-7.5-1.2-8-8c-0.5-6.8,6.4-12.3,11.1-9.7S458.4,397.7,458.4,397.7z"/>
		<path class="st5" d="M454.8,382.5c-3.3,3.3-3,10,0,13c3,3,7.4,2.6,10.5-1c3.4-4,2.8-9.9-0.2-12.9
			C462,378.5,458.1,379.2,454.8,382.5z"/>
	</g>
	<g>
		<path class="st4" d="M521.9,361c0,0-7.5-1.2-8-8c-0.5-6.8,6.4-12.3,11.1-9.7S521.9,361,521.9,361z"/>
		<path class="st5" d="M518.3,345.8c-3.3,3.3-3,10,0,13s7.4,2.6,10.5-1c3.4-4,2.8-9.9-0.2-12.9C525.4,341.8,521.6,342.5,518.3,345.8
			z"/>
	</g>
	<g>
		<path class="st4" d="M586.4,323.5c0,0-7.5-1.2-8-8c-0.5-6.8,6.4-12.3,11.1-9.7C594.2,308.4,586.4,323.5,586.4,323.5z"/>
		<path class="st5" d="M582.8,308.3c-3.3,3.3-3,10,0,13c3,3,7.4,2.6,10.5-1c3.4-4,2.8-9.9-0.2-12.9C590,304.4,586.1,305,582.8,308.3
			z"/>
	</g>
	<g>
		<path class="st4" d="M654.1,284.5c0,0-7.5-1.2-8-8c-0.5-6.8,6.4-12.3,11.1-9.7C661.9,269.4,654.1,284.5,654.1,284.5z"/>
		<path class="st5" d="M650.5,269.3c-3.3,3.3-3,10,0,13c3,3,7.4,2.6,10.5-1c3.4-4,2.8-9.9-0.2-12.9
			C657.7,265.4,653.8,266,650.5,269.3z"/>
	</g>
	<g>
		<path class="st4" d="M719.3,245c0,0-7.5-1.2-8-8c-0.5-6.8,6.4-12.3,11.1-9.7S719.3,245,719.3,245z"/>
		<path class="st5" d="M715.7,229.9c-3.3,3.3-3,10,0,13c3,3,7.4,2.6,10.5-1c3.4-4,2.8-9.9-0.2-12.9
			C722.9,225.9,719,226.5,715.7,229.9z"/>
	</g>
	<g>
		<path class="st4" d="M787,206.1c0,0-7.5-1.2-8-8c-0.5-6.8,6.4-12.3,11.1-9.7S787,206.1,787,206.1z"/>
		<path class="st5" d="M783.4,190.9c-3.3,3.3-3,10,0,13s7.4,2.6,10.5-1c3.4-4,2.8-9.9-0.2-12.9C790.6,186.9,786.7,187.5,783.4,190.9
			z"/>
	</g>
	<g>
		<path class="st4" d="M847.9,169.9c0,0-7.5-1.2-8-8c-0.5-6.8,6.4-12.3,11.1-9.7S847.9,169.9,847.9,169.9z"/>
		<path class="st5" d="M844.2,154.7c-3.3,3.3-3,10,0,13c3,3,7.4,2.6,10.5-1c3.4-4,2.8-9.9-0.2-12.9
			C851.4,150.7,847.5,151.3,844.2,154.7z"/>
	</g>
	<polygon class="st6" points="747.7,164.6 520.4,296.7 302.7,169.7 530.1,37.8 	"/>
	<polygon class="st7" points="264.5,358.4 264.7,231.2 301.6,168.7 520.4,296.7 556.5,402.9 556.4,528.8 	"/>
	<polygon class="st8" points="520.4,296.7 556.5,402.9 556.5,529.8 784.5,397.8 784.4,270.8 747.7,164.7 	"/>
	<polygon class="st9" points="501.5,410.2 538.3,431.6 536.1,435.3 499.2,413.7 	"/>
	<polygon class="st10" points="538.3,431.6 538.2,435.3 536.1,435.3 	"/>
	<polygon class="st9" points="501.5,417.5 538.3,439 536.1,442.6 499.2,421 	"/>
	<polygon class="st10" points="538.3,439 538.2,442.6 536.1,442.6 	"/>
	<polygon class="st9" points="501.5,425.1 538.3,446.5 536.1,450.2 499.2,428.5 	"/>
	<polygon class="st10" points="538.3,446.5 538.2,450.2 536.1,450.2 	"/>
	<polygon class="st9" points="501.5,432.4 538.3,453.8 536.1,457.5 499.2,435.9 	"/>
	<polygon class="st10" points="538.3,453.8 538.2,457.5 536.1,457.5 	"/>
	<polygon class="st9" points="501.5,440.4 538.3,461.8 536.1,465.4 499.2,443.8 	"/>
	<polygon class="st10" points="538.3,461.8 538.2,465.4 536.1,465.4 	"/>
	<polygon class="st9" points="501.5,447.7 538.3,469.1 536.1,472.8 499.2,451.2 	"/>
	<polygon class="st10" points="538.3,469.1 538.2,472.8 536.1,472.8 	"/>
	<polygon class="st11" points="715.2,156.4 610.3,217.1 557.6,187 662.6,126.4 	"/>
	<polygon class="st8" points="715.2,169.1 610.3,229.8 610.3,217.1 715.2,156.4 	"/>
	<polygon class="st7" points="557.6,199.5 610.3,229.8 610.3,217.1 557.6,187 	"/>
	<path class="st12" d="M678.7,318.6"/>
	<polygon class="st5" points="596.4,357 558.5,378.9 552.9,363.2 591,341.4 	"/>
	<path class="st13" d="M577.7,356.3c0,0-2.8-2.1-5,0c-2.9,2.7-1.1,6.4,1.2,7C578.7,364.6,577.7,356.3,577.7,356.3z"/>
	<path class="st14" d="M572,360c0-2.1,2.2-4.1,4.1-4.1s3.2,1.5,3,3.6c-0.2,2.3-2.2,4-4.1,4S572,362.1,572,360z"/>
	<path class="st15" d="M589.2,350.1c0,0-2.8-2.1-5,0c-2.9,2.7-1.1,6.4,1.2,7C590.3,358.4,589.2,350.1,589.2,350.1z"/>
	<path class="st16" d="M583.6,353.8c0-2.1,2.2-4.1,4.1-4.1s3.2,1.5,3,3.6c-0.2,2.3-2.2,4-4.1,4S583.6,355.9,583.6,353.8z"/>
	<path class="st17" d="M567.2,362.5c0,0-2.8-2.1-5,0c-2.9,2.7-1.1,6.4,1.2,7C568.3,370.9,567.2,362.5,567.2,362.5z"/>
	<path class="st18" d="M561.6,366.2c0-2.1,2.2-4.1,4.1-4.1s3.2,1.5,3,3.6c-0.2,2.3-2.2,4-4.1,4S561.6,368.3,561.6,366.2z"/>
	<polygon class="st1" points="553,363.2 591,341.4 589.9,340.9 551.5,363.2 	"/>
	<polygon class="st4" points="558.5,378.9 553,363.2 551.5,363.2 556.8,377.9 	"/>
	<polygon class="st19" points="473.3,430.1 473.7,292.8 344.2,216.8 344,354.6 	"/>
	<polygon class="st7" points="443.8,99.3 541.6,155.7 548.5,147.9 451.7,91.9 	"/>
	<polygon class="st8" points="548.5,147.9 548.5,151.7 541.6,155.7 	"/>
	<polygon class="st7" points="456.5,92 554.3,148.4 561.2,140.6 464.4,84.6 	"/>
	<polygon class="st8" points="561.2,140.6 561.2,144.4 554.3,148.4 	"/>
	<polygon class="st7" points="469.3,84.2 567.1,140.6 574,132.8 477.2,76.8 	"/>
	<polygon class="st8" points="574,132.8 574,136.6 567.1,140.6 	"/>
	<polygon class="st7" points="482,76.7 579.9,133.1 586.7,125.3 490,69.3 	"/>
	<polygon class="st8" points="586.7,125.3 586.7,129.1 579.9,133.1 	"/>
	<polygon class="st7" points="494.8,68.9 592.7,125.3 599.5,117.5 502.8,61.5 	"/>
	<polygon class="st8" points="599.5,117.5 599.5,121.3 592.7,125.3 	"/>
	<polygon class="st7" points="507.6,61.4 605.4,117.8 612.3,110 515.5,54 	"/>
	<polygon class="st8" points="612.3,110 612.3,113.8 605.4,117.8 	"/>
	<polygon class="st7" points="520.4,53.6 618.2,110 625.1,102.2 528.3,46.2 	"/>
	<polygon class="st8" points="625.1,102.2 625.1,106 618.2,110 	"/>
	<g>
		<path class="st1" d="M245.3,527.2v-8.7c0-0.5,0.3-1,0.7-1.2l29.9-17.3c0.9-0.5,2.1,0.1,2.1,1.2l0,26.3L245.3,527.2z"/>
	</g>
	<g>
		<path class="st0" d="M331.6,473l41.7,24.1c4.4,2.5,9.8,2.2,13.9-0.7l11.3-8.2c5.2-3.8,4.9-11.8-0.7-15.1L365,453.7
			c-3.2-1.9-7.3-1.6-10.2,0.7L331.6,473z"/>
		<path class="st1" d="M407.1,485.9l-23.9,13.9c-1.6,1-3.7,1-5.3,0l-2.4-1.4c-0.9-0.5-0.9-1.7-0.1-2.3l0,0c3.3-2.5,5.2-6.3,5.2-10.4
			v-40c0-0.5,0.3-1,0.7-1.2l29.9-17.3c0.9-0.5,2.1,0.1,2.1,1.2l0,47C413.2,479.6,410.9,483.7,407.1,485.9z"/>
	</g>
	<polygon class="st0" points="200.7,527.9 472.7,366.9 473.3,292.6 440.8,272.8 0,527.7 	"/>
	<line class="st2" x1="183.2" y1="514.1" x2="113.4" y2="475.3"/>
	<line class="st2" x1="318" y1="442.7" x2="248.2" y2="403.9"/>
	<line class="st2" x1="410.6" y1="384.2" x2="340.8" y2="345.4"/>
	<line class="st2" x1="473.1" y1="310.8" x2="438" y2="291.3"/>
	<path class="st2" d="M473.1,310.8"/>
	<polyline class="st3" points="194.6,527.8 472.7,366.8 472.9,391.9 239.3,527.2 	"/>
	<g>
		<path class="st4" d="M261.7,511.7c0,0-7.5-1.2-8-8c-0.5-6.8,6.4-12.3,11.1-9.7C269.5,496.6,261.7,511.7,261.7,511.7z"/>
		<path class="st5" d="M258,496.5c-3.3,3.3-3,10,0,13c3,3,7.4,2.6,10.5-1c3.4-4,2.8-9.9-0.2-12.9C265.2,492.5,261.4,493.1,258,496.5
			z"/>
	</g>
	<g>
		<path class="st4" d="M326.2,474.2c0,0-7.5-1.2-8-8c-0.5-6.8,6.4-12.3,11.1-9.7C334,459.1,326.2,474.2,326.2,474.2z"/>
		<path class="st5" d="M322.6,459c-3.3,3.3-3,10,0,13c3,3,7.4,2.6,10.5-1c3.4-4,2.8-9.9-0.2-12.9C329.7,455,325.9,455.6,322.6,459z"
			/>
	</g>
	<g>
		<path class="st4" d="M393.9,435.2c0,0-7.5-1.2-8-8c-0.5-6.8,6.4-12.3,11.1-9.7S393.9,435.2,393.9,435.2z"/>
		<path class="st5" d="M390.3,420c-3.3,3.3-3,10,0,13c3,3,7.4,2.6,10.5-1c3.4-4,2.8-9.9-0.2-12.9C397.5,416,393.6,416.7,390.3,420z"
			/>
	</g>
	<g>
		<polygon class="st20" points="433.6,363 397.6,342.2 397.6,300.6 433.5,321.4 		"/>
		<polygon class="st21" points="469.6,342.2 433.6,363 433.5,321.4 469.5,300.6 		"/>
		<polygon class="st22" points="433.6,279.8 397.6,300.6 433.5,321.4 469.5,300.6 		"/>
		<polygon class="st23" points="417.8,288.8 412.8,291.7 448.7,312.7 448.8,323.8 449.8,322.4 450.5,322.7 450.9,321.6 451.6,322 
			452,321 452.7,321.4 453.1,320.6 453.7,320.8 453.7,309.8 		"/>
		<polygon class="st23" points="448.3,288.1 453.3,291 417.5,312.1 417.3,323.1 416.3,321.8 415.6,322.1 415.3,321 414.5,321.4 
			414.1,320.4 413.4,320.8 413,320 412.4,320.2 412.4,309.2 		"/>
		<polygon class="st24" points="423.6,347.1 405.3,336.7 405.3,324.4 423.6,334.8 		"/>
		<polygon class="st25" points="467.8,341 456.3,347.6 456.3,334.4 467.8,327.7 		"/>
		<polygon class="st26" points="461.7,344.3 461.7,336.2 464.2,336.8 464.2,342.9 		"/>
		<polygon class="st26" points="460.1,339.2 465.8,335.9 463,334 		"/>
	</g>
	<polygon class="st27" points="473.1,430.1 473.5,292.9 343.9,216.9 343.8,328.7 440.4,386 440.7,410.5 440.7,410.5 	"/>
	<polygon class="st27" points="473,414.7 473.7,292.8 357,224.8 356.9,321.5 453.6,378.7 453.8,403.3 	"/>
	<g>
		<g>
			<g>
				<g class="st28">
					<g>
						<path class="st29" d="M351.5,313.3c1.5,0.1,2.5,1.8,2.4,3.7c-0.2,1.9-1.5,3.4-3,3.3c-1.5-0.1-2.5-1.8-2.4-3.7
							C348.7,314.7,350,313.2,351.5,313.3z"/>
					</g>
					<g class="st28">
						<defs>
							<path id="SVGID_1_" class="st28" d="M350.9,320.3l-1.3-0.1c-1.5-0.1-2.5-1.8-2.4-3.7c0.2-1.9,1.5-3.4,3-3.3l1.3,0.1
								c-1.5-0.1-2.8,1.3-3,3.3C348.3,318.5,349.4,320.2,350.9,320.3z"/>
						</defs>
						<clipPath id="SVGID_2_">
							<use xlink:href="#SVGID_1_"  style="overflow:visible;"/>
						</clipPath>
						<g class="st30">
							<path class="st31" d="M350.9,320.3l-1.3-0.1c-1.3-0.1-2.3-1.4-2.4-3.1l1.3,0.1C348.6,318.9,349.6,320.2,350.9,320.3"/>
							<path class="st32" d="M348.5,317.3l-1.3-0.1c0-0.2,0-0.4,0-0.7c0,0,0-0.1,0-0.1l1.3,0.1c0,0,0,0.1,0,0.1
								C348.5,316.8,348.5,317,348.5,317.3"/>
							<path class="st33" d="M348.5,316.5l-1.3-0.1c0-0.2,0.1-0.5,0.1-0.7l1.3,0.1C348.6,316,348.5,316.3,348.5,316.5"/>
							<path class="st34" d="M348.6,315.8l-1.3-0.1c0.1-0.2,0.1-0.5,0.2-0.7l1.3,0.1C348.8,315.4,348.7,315.6,348.6,315.8"/>
							<path class="st35" d="M348.8,315.2l-1.3-0.1c0.1-0.3,0.3-0.6,0.5-0.8l1.3,0.1C349.2,314.6,349,314.8,348.8,315.2"/>
							<path class="st36" d="M349.4,314.3l-1.3-0.1c0.3-0.3,0.6-0.6,0.9-0.8l1.3,0.1C350,313.7,349.6,314,349.4,314.3"/>
							<path class="st35" d="M350.3,313.6l-1.3-0.1c0.3-0.1,0.5-0.2,0.8-0.2l1.3,0.1C350.8,313.3,350.5,313.4,350.3,313.6"/>
							<path class="st34" d="M351.1,313.3l-1.3-0.1c0.1,0,0.3,0,0.4,0l1.3,0.1C351.3,313.3,351.2,313.3,351.1,313.3"/>
						</g>
					</g>
				</g>
			</g>
		</g>
		<g>
			<g>
				<g class="st28">
					<g class="st28">
						<defs>
							<path id="SVGID_3_" class="st28" d="M350.9,298.2l-1.3-0.1c-1.5-0.1-2.5-1.8-2.4-3.7c0.2-1.9,1.5-3.4,3-3.3l1.3,0.1
								c-1.5-0.1-2.8,1.3-3,3.3C348.3,296.4,349.4,298.1,350.9,298.2z"/>
						</defs>
						<clipPath id="SVGID_4_">
							<use xlink:href="#SVGID_3_"  style="overflow:visible;"/>
						</clipPath>
						<g class="st37">
							<path class="st31" d="M350.9,298.2l-1.3-0.1c-1.3-0.1-2.3-1.4-2.4-3.1l1.3,0.1C348.6,296.8,349.6,298.1,350.9,298.2"/>
							<path class="st32" d="M348.5,295.1l-1.3-0.1c0-0.2,0-0.4,0-0.7c0,0,0-0.1,0-0.1l1.3,0.1c0,0,0,0.1,0,0.1
								C348.5,294.7,348.5,294.9,348.5,295.1"/>
							<path class="st33" d="M348.5,294.4l-1.3-0.1c0-0.2,0.1-0.5,0.1-0.7l1.3,0.1C348.6,293.9,348.5,294.2,348.5,294.4"/>
							<path class="st34" d="M348.6,293.7l-1.3-0.1c0.1-0.2,0.1-0.5,0.2-0.7l1.3,0.1C348.8,293.3,348.7,293.5,348.6,293.7"/>
							<path class="st35" d="M348.8,293.1l-1.3-0.1c0.1-0.3,0.3-0.6,0.5-0.8l1.3,0.1C349.2,292.5,349,292.7,348.8,293.1"/>
							<path class="st36" d="M349.4,292.2l-1.3-0.1c0.3-0.3,0.6-0.6,0.9-0.8l1.3,0.1C349.9,291.6,349.6,291.9,349.4,292.2"/>
							<path class="st35" d="M350.3,291.5l-1.3-0.1c0.3-0.1,0.5-0.2,0.8-0.2l1.3,0.1C350.8,291.2,350.5,291.3,350.3,291.5"/>
							<path class="st34" d="M351.1,291.2l-1.3-0.1c0.1,0,0.3,0,0.4,0l1.3,0.1C351.3,291.2,351.2,291.2,351.1,291.2"/>
						</g>
					</g>
					<g>
						<path class="st29" d="M351.5,291.2c1.5,0.1,2.5,1.8,2.4,3.7c-0.2,1.9-1.5,3.4-3,3.3c-1.5-0.1-2.5-1.8-2.4-3.7
							C348.7,292.5,350,291.1,351.5,291.2z"/>
					</g>
				</g>
			</g>
		</g>
		<g>
			<g>
				<g class="st28">
					<g>
						<path class="st29" d="M351.5,269.1c1.5,0.1,2.5,1.8,2.4,3.7c-0.2,1.9-1.5,3.4-3,3.3c-1.5-0.1-2.5-1.8-2.4-3.7
							C348.7,270.4,350,269,351.5,269.1z"/>
					</g>
					<g class="st28">
						<defs>
							<path id="SVGID_5_" class="st28" d="M350.9,276.1l-1.3-0.1c-1.5-0.1-2.5-1.8-2.4-3.7c0.2-1.9,1.5-3.4,3-3.3l1.3,0.1
								c-1.5-0.1-2.8,1.3-3,3.3C348.3,274.3,349.4,276,350.9,276.1z"/>
						</defs>
						<clipPath id="SVGID_6_">
							<use xlink:href="#SVGID_5_"  style="overflow:visible;"/>
						</clipPath>
						<g class="st38">
							<path class="st31" d="M350.9,276.1l-1.3-0.1c-1.3-0.1-2.3-1.4-2.4-3.1l1.3,0.1C348.6,274.7,349.6,276,350.9,276.1"/>
							<path class="st32" d="M348.5,273l-1.3-0.1c0-0.2,0-0.4,0-0.7c0,0,0-0.1,0-0.1l1.3,0.1c0,0,0,0.1,0,0.1
								C348.5,272.6,348.5,272.8,348.5,273"/>
							<path class="st33" d="M348.5,272.3l-1.3-0.1c0-0.2,0.1-0.5,0.1-0.7l1.3,0.1C348.6,271.8,348.5,272,348.5,272.3"/>
							<path class="st34" d="M348.6,271.6l-1.3-0.1c0.1-0.2,0.1-0.5,0.2-0.7l1.3,0.1C348.8,271.2,348.7,271.4,348.6,271.6"/>
							<path class="st35" d="M348.8,270.9l-1.3-0.1c0.1-0.3,0.3-0.6,0.5-0.8l1.3,0.1C349.2,270.3,349,270.6,348.8,270.9"/>
							<path class="st36" d="M349.4,270.1l-1.3-0.1c0.3-0.3,0.6-0.6,0.9-0.8l1.3,0.1C349.9,269.5,349.6,269.8,349.4,270.1"/>
							<path class="st35" d="M350.3,269.3l-1.3-0.1c0.3-0.1,0.5-0.2,0.8-0.2l1.3,0.1C350.8,269.1,350.5,269.2,350.3,269.3"/>
							<path class="st34" d="M351.1,269.1l-1.3-0.1c0.1,0,0.3,0,0.4,0l1.3,0.1C351.3,269.1,351.2,269.1,351.1,269.1"/>
						</g>
					</g>
				</g>
			</g>
		</g>
		<g>
			<g>
				<g class="st28">
					<g>
						<path class="st29" d="M351.5,247c1.5,0.1,2.5,1.8,2.4,3.7c-0.2,1.9-1.5,3.4-3,3.3c-1.5-0.1-2.5-1.8-2.4-3.7
							C348.7,248.3,350,246.9,351.5,247z"/>
					</g>
					<g class="st28">
						<defs>
							<path id="SVGID_7_" class="st28" d="M350.9,254l-1.3-0.1c-1.5-0.1-2.5-1.8-2.4-3.7c0.2-1.9,1.5-3.4,3-3.3l1.3,0.1
								c-1.5-0.1-2.8,1.3-3,3.3C348.3,252.2,349.4,253.9,350.9,254z"/>
						</defs>
						<clipPath id="SVGID_8_">
							<use xlink:href="#SVGID_7_"  style="overflow:visible;"/>
						</clipPath>
						<g class="st39">
							<path class="st31" d="M350.9,254l-1.3-0.1c-1.3-0.1-2.3-1.4-2.4-3.1l1.3,0.1C348.6,252.6,349.5,253.9,350.9,254"/>
							<path class="st32" d="M348.5,250.9l-1.3-0.1c0-0.2,0-0.4,0-0.7c0,0,0-0.1,0-0.1l1.3,0.1c0,0,0,0.1,0,0.1
								C348.5,250.5,348.5,250.7,348.5,250.9"/>
							<path class="st33" d="M348.5,250.2l-1.3-0.1c0-0.2,0.1-0.5,0.1-0.7l1.3,0.1C348.6,249.7,348.5,249.9,348.5,250.2"/>
							<path class="st34" d="M348.6,249.5l-1.3-0.1c0.1-0.2,0.1-0.5,0.2-0.7l1.3,0.1C348.8,249,348.7,249.3,348.6,249.5"/>
							<path class="st35" d="M348.8,248.8l-1.3-0.1c0.1-0.3,0.3-0.6,0.5-0.8l1.3,0.1C349.2,248.2,349,248.5,348.8,248.8"/>
							<path class="st36" d="M349.4,248l-1.3-0.1c0.3-0.3,0.6-0.6,0.9-0.8l1.3,0.1C350,247.4,349.6,247.7,349.4,248"/>
							<path class="st35" d="M350.3,247.2l-1.3-0.1c0.3-0.1,0.5-0.2,0.8-0.2l1.3,0.1C350.8,247,350.5,247.1,350.3,247.2"/>
							<path class="st34" d="M351.1,247l-1.3-0.1c0.1,0,0.3,0,0.4,0l1.3,0.1C351.3,247,351.2,247,351.1,247"/>
						</g>
					</g>
				</g>
			</g>
		</g>
		<g>
			<g>
				<g class="st28">
					<g>
						<path class="st29" d="M351.5,224.9c1.5,0.1,2.5,1.8,2.4,3.7c-0.2,1.9-1.5,3.4-3,3.3c-1.5-0.1-2.5-1.8-2.4-3.7
							C348.7,226.2,350,224.8,351.5,224.9z"/>
					</g>
					<g class="st28">
						<defs>
							<path id="SVGID_9_" class="st28" d="M350.9,231.9l-1.3-0.1c-1.5-0.1-2.5-1.8-2.4-3.7c0.2-1.9,1.5-3.4,3-3.3l1.3,0.1
								c-1.5-0.1-2.8,1.3-3,3.3C348.3,230.1,349.4,231.8,350.9,231.9z"/>
						</defs>
						<clipPath id="SVGID_10_">
							<use xlink:href="#SVGID_9_"  style="overflow:visible;"/>
						</clipPath>
						<g class="st40">
							<path class="st31" d="M350.9,231.9l-1.3-0.1c-1.3-0.1-2.3-1.4-2.4-3.1l1.3,0.1C348.6,230.5,349.6,231.8,350.9,231.9"/>
							<path class="st32" d="M348.5,228.8l-1.3-0.1c0-0.2,0-0.4,0-0.7c0,0,0-0.1,0-0.1l1.3,0.1c0,0,0,0.1,0,0.1
								C348.5,228.4,348.5,228.6,348.5,228.8"/>
							<path class="st33" d="M348.5,228.1l-1.3-0.1c0-0.2,0.1-0.5,0.1-0.7l1.3,0.1C348.6,227.6,348.5,227.8,348.5,228.1"/>
							<path class="st34" d="M348.6,227.4l-1.3-0.1c0.1-0.2,0.1-0.5,0.2-0.7l1.3,0.1C348.8,226.9,348.7,227.2,348.6,227.4"/>
							<path class="st35" d="M348.8,226.7l-1.3-0.1c0.1-0.3,0.3-0.6,0.5-0.8l1.3,0.1C349.2,226.1,349,226.4,348.8,226.7"/>
							<path class="st36" d="M349.4,225.9l-1.3-0.1c0.3-0.3,0.6-0.6,0.9-0.8l1.3,0.1C349.9,225.3,349.6,225.6,349.4,225.9"/>
							<path class="st35" d="M350.3,225.1L349,225c0.3-0.1,0.5-0.2,0.8-0.2l1.3,0.1C350.8,224.9,350.5,225,350.3,225.1"/>
							<path class="st34" d="M351.1,224.9l-1.3-0.1c0.1,0,0.3,0,0.4,0l1.3,0.1C351.3,224.9,351.2,224.9,351.1,224.9"/>
						</g>
					</g>
				</g>
			</g>
		</g>
	</g>
	<g>
		<polygon class="st20" points="147.1,524.7 111.1,503.9 111.2,462.3 147.1,483.1 		"/>
		<polygon class="st21" points="183.2,503.9 147.1,524.7 147.1,483.1 183.1,462.3 		"/>
		<polygon class="st22" points="147.2,441.5 111.2,462.3 147.1,483.1 183.1,462.3 		"/>
		<polygon class="st23" points="131.4,450.5 126.4,453.4 162.3,474.4 162.4,485.5 163.4,484.1 164.1,484.4 164.4,483.3 165.2,483.7 
			165.6,482.7 166.3,483.1 166.7,482.3 167.3,482.5 167.3,471.5 		"/>
		<polygon class="st23" points="161.8,449.8 166.9,452.7 131.1,473.8 130.9,484.8 129.9,483.4 129.2,483.8 128.9,482.7 128.1,483.1 
			127.7,482.1 127,482.5 126.6,481.7 126,481.9 126,470.9 		"/>
		<polygon class="st24" points="137.2,508.7 118.9,498.4 118.9,486.1 137.2,496.5 		"/>
		<polygon class="st25" points="181.4,502.7 169.9,509.3 169.9,496 181.4,489.4 		"/>
		<polygon class="st26" points="175.3,506 175.3,497.9 177.8,498.5 177.8,504.6 		"/>
		<polygon class="st26" points="173.7,500.9 179.4,497.6 176.5,495.7 		"/>
	</g>
</g>
<g>
	<polygon class="st41" points="598.1,282.6 691.1,228.9 711.3,306 618.7,359.5 	"/>
	<path class="st42" d="M690.1,231.2l19.4,74.1l-89.9,51.9l-19.7-73.8L690.1,231.2 M692,226.6l-95.6,55.3l21.3,79.8l95.3-55
		L692,226.6L692,226.6z"/>
</g>
<polyline class="st43" points="721.2,311.5 625.4,366.2 617.8,361.9 713.1,306.8 "/>
<polygon class="st8" points="596.4,282 625.5,367.2 617.4,362.4 "/>
<polygon class="st43" points="693.3,231.4 721.2,311.5 713.1,306.8 "/>
</svg>
