<?xml version="1.0" encoding="utf-8"?>
<!-- Generator: Adobe Illustrator 22.1.0, SVG Export Plug-In . SVG Version: 6.00 Build 0)  -->
<svg version="1.1" id="Layer_1" xmlns="http://www.w3.org/2000/svg" xmlns:xlink="http://www.w3.org/1999/xlink" x="0px" y="0px"
	 viewBox="0 0 680 610.6" style="enable-background:new 0 0 680 610.6;" xml:space="preserve">
<style type="text/css">
	.st0{fill:#AABAC5;}
	.st1{fill:#7E95A0;}
	.st2{fill:#8CA7B6;}
	.st3{fill:#B3C7D5;}
	.st4{fill:#C4D8E4;}
	.st5{fill:none;stroke:#ECF7FF;stroke-miterlimit:10;}
	.st6{fill:none;stroke:#A0BBC8;stroke-width:3;stroke-linecap:round;stroke-miterlimit:10;}
	.st7{fill:#7FFCEA;}
	.st8{fill:#616C71;}
	.st9{fill:#162B33;}
	.st10{fill:#FF8685;}
	.st11{fill:#FF0000;}
	.st12{fill:#E40000;}
	.st13{fill:#B6F8FD;}
	.st14{fill:#1F3B45;}
	.st15{fill:#0B1619;}
	.st16{fill:#B3C7D5;stroke:#B3C7D5;stroke-miterlimit:10;}
	.st17{fill:none;stroke:#8CA7B6;stroke-width:3;stroke-linecap:round;stroke-miterlimit:10;}
	.st18{fill:#FF4B47;}
	.st19{fill:#FF6562;}
	.st20{fill:#233F48;}
	.st21{fill:#C10000;}
	.st22{fill:#F00000;}
	.st23{fill:#3A4B4C;}
	.st24{fill:#4B6566;}
</style>
<path class="st0" d="M648.2,339.3l-92.5-53.5c-1.5-0.9-2.5-2.4-2.7-4.1l0,0c-0.5-4.4,4.3-7.5,8.1-5.2L653,330c2.7,1.6,3.5,5,1.9,7.6
	v0C653.5,339.9,650.5,340.6,648.2,339.3z"/>
<path class="st1" d="M647.2,332.2l-88.5-50.6c-0.4,0.9-2.2,4.6-0.7,5.4l84.3,48.5L647.2,332.2z"/>
<g>
	<g>
		<path class="st2" d="M679.8,308.2h-39.5v73.4c0,21.5,15.2,40.8,39.4,54.3L679.8,308.2z"/>
		<path class="st3" d="M679.3,365.4c-24-13.4-39-32.7-39-54c0-21.4,15.1-40.7,39.2-54.2L679.3,365.4z"/>
		<path class="st2" d="M679.2,228.8c-13.7,5.6-24.7,13.3-32.1,23.7c-7.6,10.6-6.8,28.6-6.8,37.5c0,21.3,15,40.5,38.9,54"/>
		<path class="st4" d="M679.4,222.6c-24,13.4-39.1,32.7-39.1,54.1c0,21.3,14.9,40.4,38.6,53.8"/>
		<path class="st5" d="M679.2,241.5c-11.6,9.9-18.4,22.1-18.4,35.2c0,12.6,6.3,24.3,17.1,34.1"/>
		<path class="st6" d="M662.1,382.5c6.1,5.4,8.1,7.3,16.3,11.6"/>
		<path class="st6" d="M660.5,401.7c6.3,5.9,9.3,8.4,18,13"/>
	</g>
	<line class="st6" x1="660.5" y1="381.5" x2="660.5" y2="401"/>
</g>
<g>
	<g>
		<rect x="263.4" y="104.9" class="st2" width="241.3" height="73.4"/>
		<ellipse class="st2" cx="384.1" cy="178.3" rx="120.7" ry="73.4"/>
		<ellipse class="st3" cx="384.1" cy="108" rx="120.7" ry="73.4"/>
		<path class="st2" d="M504.7,86.6c0-9.9,1.2-24.7-4.6-33.3c-18.1-26.7-65.7-40.1-116-40.1c-52,0-94.8,9.3-113.9,35.9
			c-7.6,10.6-6.8,28.6-6.8,37.5c0,40.5,54,73.4,120.7,73.4S504.7,127.1,504.7,86.6z"/>
		<ellipse class="st4" cx="384.1" cy="73.4" rx="120.7" ry="73.4"/>
		<ellipse class="st7" cx="384.1" cy="73.4" rx="76.1" ry="46.3"/>
		<path class="st2" d="M384.1,47.2c36.4,0,66.7,15.5,74.3,36.2c1.2-3.2,1.8-6.6,1.8-10.1c0-25.6-34.1-46.3-76.1-46.3
			c-42,0-76.1,20.7-76.1,46.3c0,3.5,0.6,6.8,1.8,10.1C317.3,62.7,347.7,47.2,384.1,47.2z"/>
		<ellipse class="st5" cx="384.1" cy="73.4" rx="100.2" ry="60.9"/>
		<path class="st6" d="M285.2,179.2c6.1,5.4,13.3,10.3,21.5,14.6"/>
		<path class="st6" d="M283.6,198.3c6.3,5.9,14,11.2,22.7,15.7"/>
	</g>
	<line class="st6" x1="283.6" y1="178.2" x2="283.6" y2="197.7"/>
	<line class="st6" x1="306.2" y1="194.6" x2="306.2" y2="214.1"/>
</g>
<g>
	<g>
		<g>
			
				<ellipse transform="matrix(0.4779 -0.8784 0.8784 0.4779 43.5734 521.3897)" class="st8" cx="460.4" cy="224" rx="8.8" ry="7.5"/>
		</g>
	</g>
</g>
<path class="st0" d="M531,268.9L307.5,399.2c-1.5,0.9-3.3,1-4.9,0.3v0c-4.1-1.8-4.4-7.4-0.6-9.6l223.2-129.7
	c2.7-1.6,6.1-0.6,7.6,2.1l0,0C534.1,264.6,533.3,267.5,531,268.9z"/>
<path class="st0" d="M526.1,268.9l-68.2-39.5c-1.5-0.9-2.5-2.4-2.7-4.1v0c-0.5-4.4,4.3-7.5,8.1-5.2l67.5,39.6c2.7,1.6,3.5,5,1.9,7.6
	l0,0C531.4,269.5,528.4,270.3,526.1,268.9z"/>
<path class="st1" d="M523,261.1l-67.2-38.6c-0.4,0.9-0.6,1.9-0.5,3v0c0.2,1.7,1.2,3.2,2.7,4.1l60.2,34.8L523,261.1z"/>
<path class="st0" d="M488.2,407.9l-68.2-39.5c-1.5-0.9-2.5-2.4-2.7-4.1h0c-0.5-4.4,4.3-7.5,8.1-5.2l67.5,39.6c2.7,1.6,3.5,5,1.9,7.6
	v0C493.4,408.5,490.5,409.2,488.2,407.9z"/>
<path class="st0" d="M561.3,284.9L311.4,430.7c-1.5,0.9-3.3,1-4.9,0.3l0,0c-4.1-1.8-4.4-7.4-0.6-9.6l249.6-145.1
	c2.7-1.6,6.1-0.6,7.6,2.1l0,0C564.4,280.7,563.6,283.6,561.3,284.9z"/>
<path class="st1" d="M508.7,413.2l-88.5-50.6c-0.4,0.9-2.2,4.6-0.7,5.4l84.3,48.5L508.7,413.2z"/>
<path class="st0" d="M385.7,347.2l-145.9-85.5c-1.5-0.9-2.5-2.4-2.7-4.1l0,0c-0.5-4.4-1.6-10.9,2.2-8.7l151.2,89
	c2.7,1.6,3.5,5,1.9,7.6v0C390.9,347.8,388,348.5,385.7,347.2z"/>
<polygon class="st1" points="385.6,340.9 236.6,254.3 238.4,260.9 380.8,344.2 "/>
<g>
	<g>
		<rect x="0" y="249.4" class="st2" width="241.3" height="73.4"/>
		<ellipse class="st2" cx="120.7" cy="322.8" rx="120.7" ry="73.4"/>
		<ellipse class="st3" cx="120.7" cy="252.4" rx="120.7" ry="73.4"/>
		<path class="st2" d="M241.3,231c0-9.9,1.2-24.7-4.6-33.3c-18.1-26.7-65.7-40.1-116-40.1c-52,0-94.8,9.3-113.9,35.9
			C-0.8,204.2,0,222.1,0,231c0,40.5,54,73.4,120.7,73.4S241.3,271.6,241.3,231z"/>
		<ellipse class="st4" cx="120.7" cy="217.8" rx="120.7" ry="73.4"/>
		<ellipse class="st7" cx="120.7" cy="217.8" rx="76.1" ry="46.3"/>
		<path class="st2" d="M120.7,191.7c36.4,0,66.7,15.5,74.3,36.2c1.2-3.2,1.8-6.6,1.8-10.1c0-25.6-34.1-46.3-76.1-46.3
			c-42,0-76.1,20.7-76.1,46.3c0,3.5,0.6,6.8,1.8,10.1C53.9,207.2,84.3,191.7,120.7,191.7z"/>
		<ellipse class="st5" cx="120.7" cy="217.8" rx="100.2" ry="60.9"/>
		<path class="st6" d="M21.8,323.7c6.1,5.4,13.3,10.3,21.5,14.6"/>
		<path class="st6" d="M20.2,342.8c6.3,5.9,14,11.2,22.7,15.7"/>
	</g>
	<line class="st6" x1="20.3" y1="322.6" x2="20.3" y2="342.1"/>
	<line class="st6" x1="42.9" y1="339" x2="42.9" y2="358.5"/>
</g>
<g>
	<g>
		<rect x="376.9" y="463.7" class="st2" width="241.3" height="73.4"/>
		<ellipse class="st2" cx="497.6" cy="537.2" rx="120.7" ry="73.4"/>
		<ellipse class="st3" cx="497.6" cy="466.8" rx="120.7" ry="73.4"/>
		<path class="st2" d="M618.2,445.4c0-9.9,1.2-24.7-4.6-33.3c-18.1-26.7-65.7-40.1-116-40.1c-52,0-94.8,9.3-113.9,35.9
			c-7.6,10.6-6.8,28.6-6.8,37.5c0,40.5,54,73.4,120.7,73.4S618.2,485.9,618.2,445.4z"/>
		<ellipse class="st4" cx="497.6" cy="432.2" rx="120.7" ry="73.4"/>
		<ellipse class="st7" cx="497.6" cy="432.2" rx="76.1" ry="46.3"/>
		<path class="st2" d="M497.6,406c36.4,0,66.7,15.5,74.3,36.2c1.2-3.2,1.8-6.6,1.8-10.1c0-25.6-34.1-46.3-76.1-46.3
			c-42,0-76.1,20.7-76.1,46.3c0,3.5,0.6,6.8,1.8,10.1C430.8,421.6,461.2,406,497.6,406z"/>
		<ellipse class="st5" cx="497.6" cy="432.2" rx="100.2" ry="60.9"/>
		<path class="st6" d="M398.7,538.1c6.1,5.4,13.3,10.3,21.5,14.6"/>
		<path class="st6" d="M397.1,557.2c6.3,5.9,14,11.2,22.7,15.7"/>
	</g>
	<line class="st6" x1="397.1" y1="537" x2="397.1" y2="556.5"/>
	<line class="st6" x1="419.7" y1="553.4" x2="419.7" y2="572.9"/>
</g>
<g>
	
		<ellipse transform="matrix(0.9993 -3.623062e-02 3.623062e-02 0.9993 -20.0058 11.2737)" class="st9" cx="301.1" cy="557.6" rx="10.9" ry="6.4"/>
	<g>
		<polygon class="st10" points="131.6,332.6 256.1,404.6 346.4,351.7 221.9,279.9 		"/>
		<polygon class="st11" points="69.9,505.6 69.9,425.9 194.4,497.7 194.4,576.9 		"/>
		<polygon class="st12" points="346.7,351.1 346.7,488.8 194.4,576.9 194.4,497.7 222.3,481.1 256.1,404.5 		"/>
		<polygon class="st11" points="222.3,481.2 256.1,404.6 131.9,332.2 97.8,408.8 		"/>
		<g>
			<polygon class="st13" points="110.9,406.7 137.9,346 243.1,407.4 216.3,468.1 			"/>
			<path class="st14" d="M138.6,348.2L241.1,408L215.6,466l-102.8-59.9L138.6,348.2 M137.2,343.9L109,407.3l108,62.9l28-63.5
				L137.2,343.9L137.2,343.9z"/>
		</g>
		<polygon class="st7" points="151.4,427.4 163,400.9 126,379.4 114.3,405.5 		"/>
		<polygon class="st7" points="228.1,435 239.7,408.6 202.7,387 191,413.1 		"/>
	</g>
	<ellipse transform="matrix(0.5 -0.866 0.866 0.5 -302.2573 487.3877)" class="st15" cx="271" cy="505.5" rx="11.7" ry="6.8"/>
	<ellipse transform="matrix(0.5 -0.866 0.866 0.5 -302.3285 487.9785)" class="st3" cx="271.4" cy="505.8" rx="9.2" ry="5.4"/>
	
		<ellipse transform="matrix(0.9993 -3.623062e-02 3.623062e-02 0.9993 -19.9556 11.2727)" class="st3" cx="301.1" cy="556.2" rx="9.2" ry="5.4"/>
	<path class="st16" d="M275.9,498.9c0,0,37.3,22,33.9,56.6c-5.1,4.1-9,8.4-16.9-0.2c0.1-2,6.1-29.6-25.7-42.4L275.9,498.9z"/>
	<path class="st17" d="M269.6,512c0,0,29.8,5.8,25.9,45"/>
	<polygon class="st18" points="296.6,483.5 338,459.8 336.8,455.7 295.4,479.7 	"/>
	<polygon class="st11" points="295.4,479.7 296.6,483.5 295.4,483.7 	"/>
	<polygon class="st18" points="296.6,478.2 338,454.5 336.8,450.5 295.4,474.5 	"/>
	<polygon class="st11" points="295.4,474.5 296.6,478.2 295.4,478.5 	"/>
	<polygon class="st18" points="296.6,473 338,449.2 336.8,445.2 295.4,469.2 	"/>
	<polygon class="st11" points="295.4,469.2 296.6,473 295.4,473.2 	"/>
	<polygon class="st18" points="296.6,467.7 338,444 336.8,440 295.4,463.9 	"/>
	<polygon class="st11" points="295.4,463.9 296.6,467.7 295.4,467.9 	"/>
	<polygon class="st18" points="296.6,462.5 338,438.7 336.8,434.7 295.4,458.7 	"/>
	<polygon class="st11" points="295.4,458.7 296.6,462.5 295.4,462.7 	"/>
	<polygon class="st18" points="296.6,457.2 338,433.4 336.8,429.4 295.4,453.4 	"/>
	<polygon class="st11" points="295.4,453.4 296.6,457.2 295.4,457.4 	"/>
	<polygon class="st18" points="296.6,451.9 338,428.2 336.8,424.2 295.4,448.2 	"/>
	<polygon class="st11" points="295.4,448.2 296.6,451.9 295.4,452.2 	"/>
	<polygon class="st11" points="186.8,312.4 238,342 238,336.5 186.8,306.8 	"/>
	<polygon class="st19" points="186.8,306.8 238,336.5 275.2,314.7 224,285.1 	"/>
	<polygon class="st12" points="238,336.5 238,342 275.2,320.2 275.2,314.7 	"/>
	<polygon class="st18" points="222.3,481.2 194.4,497.7 69.9,425.9 97.8,408.8 	"/>
	
		<ellipse transform="matrix(0.9993 -3.623062e-02 3.623062e-02 0.9993 -17.2676 7.3615)" class="st20" cx="194.5" cy="480.1" rx="10.9" ry="6.4"/>
	
		<ellipse transform="matrix(0.9993 -3.623062e-02 3.623062e-02 0.9993 -17.2201 7.3607)" class="st21" cx="194.5" cy="478.8" rx="5.5" ry="3.2"/>
	<polygon class="st21" points="189,479 189,474.8 199.9,474.4 199.9,478.6 	"/>
	
		<ellipse transform="matrix(0.9993 -3.623062e-02 3.623062e-02 0.9993 -17.0672 7.3579)" class="st22" cx="194.5" cy="474.6" rx="5.5" ry="3.2"/>
	<g>
		<polygon class="st23" points="173.1,463.1 173.1,467.3 160.7,460.1 160.7,456.1 		"/>
		<polygon class="st24" points="183.6,457 173.1,463.1 160.7,456.1 170.8,449.6 		"/>
		<polygon class="st9" points="173.1,463.1 173.1,467.3 183.6,461.1 183.6,457 		"/>
	</g>
	<g>
		<polygon class="st23" points="159.7,470.9 159.7,475.1 147.3,467.9 147.3,463.9 		"/>
		<polygon class="st24" points="170.2,464.8 159.7,470.9 147.3,463.9 157.4,457.3 		"/>
		<polygon class="st9" points="159.7,470.9 159.7,475.1 170.2,468.8 170.2,464.8 		"/>
	</g>
	<g>
		<polygon class="st23" points="157.4,454 157.4,458.2 145,451 145,447 		"/>
		<polygon class="st24" points="167.9,447.9 157.4,454 145,447 155.1,440.5 		"/>
		<polygon class="st9" points="157.4,454 157.4,458.2 167.9,452 167.9,447.9 		"/>
	</g>
	<g>
		<polygon class="st23" points="144,461.8 144,466 131.6,458.8 131.6,454.8 		"/>
		<polygon class="st24" points="154.5,455.7 144,461.8 131.6,454.8 141.7,448.3 		"/>
		<polygon class="st9" points="144,461.8 144,466 154.5,459.7 154.5,455.7 		"/>
	</g>
	<g>
		<polygon class="st23" points="141.7,443.8 141.7,447.9 129.2,440.8 129.2,436.7 		"/>
		<polygon class="st24" points="152.1,437.6 141.7,443.8 129.2,436.7 139.4,430.2 		"/>
		<polygon class="st9" points="141.7,443.8 141.7,447.9 152.1,441.7 152.1,437.6 		"/>
	</g>
	<g>
		<polygon class="st23" points="128.3,451.5 128.3,455.7 115.9,448.5 115.9,444.5 		"/>
		<polygon class="st24" points="138.8,445.4 128.3,451.5 115.9,444.5 126,438 		"/>
		<polygon class="st9" points="128.3,451.5 128.3,455.7 138.8,449.5 138.8,445.4 		"/>
	</g>
	<g>
		<polygon class="st23" points="126,434.7 126,438.8 113.5,431.7 113.5,427.6 		"/>
		<polygon class="st24" points="136.4,428.5 126,434.7 113.5,427.6 123.7,421.1 		"/>
		<polygon class="st9" points="126,434.7 126,438.8 136.4,432.6 136.4,428.5 		"/>
	</g>
	<g>
		<polygon class="st23" points="112.6,442.4 112.6,446.6 100.2,439.5 100.2,435.4 		"/>
		<polygon class="st24" points="123.1,436.3 112.6,442.4 100.2,435.4 110.3,428.9 		"/>
		<polygon class="st9" points="112.6,442.4 112.6,446.6 123.1,440.4 123.1,436.3 		"/>
	</g>
</g>
</svg>
