<?xml version="1.0" encoding="utf-8"?>
<!-- Generator: Adobe Illustrator 22.1.0, SVG Export Plug-In . SVG Version: 6.00 Build 0)  -->
<svg version="1.1" id="Layer_1" xmlns="http://www.w3.org/2000/svg" xmlns:xlink="http://www.w3.org/1999/xlink" x="0px" y="0px"
	 viewBox="0 0 787.9 528.1" style="enable-background:new 0 0 787.9 528.1;" xml:space="preserve">
<style type="text/css">
	.st0{fill:#474746;}
	.st1{fill:#B3C7D5;}
	.st2{fill:#D4312D;}
	.st3{fill:#FF9796;}
	.st4{fill:#E94946;}
	.st5{fill:#162B33;}
	.st6{fill:#8C9DAA;}
	.st7{fill:#C4D8E4;}
	.st8{fill:none;stroke:#2E4547;stroke-miterlimit:10;}
	.st9{opacity:0.7;fill:#3EE8C8;}
	.st10{opacity:0.7;fill:#8C9DAA;}
	.st11{fill:#DDE7ED;}
	.st12{fill:#B6F8FD;}
	.st13{fill:#43201F;}
	.st14{fill:#D7E7EE;}
	.st15{fill:#7FFCEA;}
	.st16{fill:#FFFFFF;}
	.st17{fill:#E6E6E6;}
	.st18{fill:#BFBFBF;}
	.st19{fill:#FF4642;}
	.st20{fill:#00A6D8;}
	.st21{fill:#0084BC;}
	.st22{fill:#F4F030;}
	.st23{fill:#707D83;}
	.st24{fill:#6A7477;}
	.st25{fill:#596266;}
	.st26{fill:#00A6FF;}
	.st27{fill:#F00000;}
	.st28{fill:#C10000;}
</style>
<g>
	<polygon class="st0" points="-0.3,212.7 34.3,233.6 56.3,221.4 56.7,65.6 0.1,34.6 	"/>
	<polygon class="st1" points="33.7,234.1 191.1,143.5 191.1,219.4 33.8,311.4 	"/>
	<polyline class="st2" points="517.4,280.7 606.4,229.6 654.6,293.7 654.4,409.1 519.7,486.4 	"/>
	<polygon class="st3" points="606.4,229.6 471.8,152 382.9,202.9 517.5,280.6 	"/>
	<polygon class="st4" points="519.7,486.4 517.5,280.6 382.9,202.9 385.1,408.7 	"/>
	<g>
		<path class="st5" d="M787.9,527.4c-1-2.8-3-5.3-5.9-6.9L181.3,168.7c-5.8-3.4-12.9-3.4-18.7-0.1L51.9,231.8l501.9,295.8
			L787.9,527.4z"/>
		<g>
			<path class="st1" d="M516.9,527v-12.8c0-0.6-0.3-1.1-0.8-1.4l-33.6-19.5c-1-0.6-2.4,0.1-2.4,1.4l0,32.3L516.9,527z"/>
		</g>
		<g>
			<path class="st5" d="M375.2,446.5l-34.1,19.7c-4.9,2.8-11.1,2.5-15.6-0.8l-12.7-9.2c-5.9-4.3-5.5-13.2,0.8-16.9l36.9-21.8
				c3.6-2.1,8.2-1.8,11.5,0.8l14.4,11.6C382,434.3,381.3,442.9,375.2,446.5z"/>
			<path class="st1" d="M303.2,453.5l26.8,15.6c1.8,1.1,4.1,1.1,6,0l2.7-1.6c1-0.6,1.1-1.9,0.2-2.6l0,0c-3.7-2.8-5.8-7.1-5.8-11.7
				v-45c0-0.6-0.3-1.1-0.8-1.4l-33.6-19.5c-1-0.6-2.4,0.1-2.4,1.4l0,52.8C296.3,446.5,298.9,451.1,303.2,453.5z"/>
		</g>
		<g>
			<path class="st5" d="M192.7,339.7l-34.1,19.7c-4.9,2.8-11.1,2.5-15.6-0.8l-12.7-9.2c-5.9-4.3-5.5-13.2,0.8-16.9l36.9-21.8
				c3.6-2.1,8.2-1.8,11.5,0.8l14.4,11.6C199.5,327.5,198.8,336.2,192.7,339.7z"/>
			<path class="st1" d="M120.7,346.8l26.8,15.6c1.8,1.1,4.1,1.1,6,0l2.7-1.6c1-0.6,1.1-1.9,0.2-2.6l0,0c-3.7-2.8-5.8-7.1-5.8-11.7
				v-45c0-0.6-0.3-1.1-0.8-1.4l-33.6-19.5c-1-0.6-2.4,0.1-2.4,1.4l0,52.8C113.8,339.8,116.4,344.3,120.7,346.8z"/>
		</g>
		<path class="st1" d="M521.1,527.6L52.8,255.1c-4.3-2.5-6.9-7.1-6.9-12.1v0c0-10.7,11.6-17.4,20.9-12l513,296.5L521.1,527.6z"/>
		<g>
			<path class="st6" d="M148.9,291.1c0,0,6.9-5,12.7,0c5.8,5,4.7,14.8-1.1,16.5C154.6,309.2,148.9,291.1,148.9,291.1z"/>
			<path class="st7" d="M163,300.5c0-5.3-5.5-10.3-10.3-10.3c-4.8,0-8,3.9-7.5,9.1c0.5,5.9,5.6,10.1,10.4,10.1S163,305.7,163,300.5z
				"/>
		</g>
		<g>
			<path class="st6" d="M78.3,250.2c0,0,6.9-5,12.7,0s4.7,14.8-1.1,16.5S78.3,250.2,78.3,250.2z"/>
			<path class="st7" d="M92.5,259.6c0-5.3-5.5-10.3-10.3-10.3s-8,3.9-7.5,9.1c0.5,5.9,5.6,10.1,10.4,10.1
				C89.9,268.4,92.5,264.8,92.5,259.6z"/>
		</g>
		<path class="st6" d="M346.4,405.4c0,0,6.9-5,12.7,0c5.8,5,4.7,14.8-1.1,16.5C352.2,423.6,346.4,405.4,346.4,405.4z"/>
		<path class="st7" d="M360.6,414.8c0-5.3-5.5-10.3-10.3-10.3c-4.8,0-8,3.9-7.5,9.1c0.5,5.9,5.6,10.1,10.4,10.1
			S360.6,420.1,360.6,414.8z"/>
		<g>
			<path class="st6" d="M273.2,363.2c0,0,6.9-5,12.7,0c5.8,5,4.7,14.8-1.1,16.5S273.2,363.2,273.2,363.2z"/>
			<path class="st7" d="M287.4,372.6c0-5.3-5.5-10.3-10.3-10.3s-8,3.9-7.5,9.1c0.5,5.9,5.6,10.1,10.4,10.1S287.4,377.8,287.4,372.6z
				"/>
		</g>
		<g>
			<path class="st6" d="M202.5,322.5c0,0,6.9-5,12.7,0c5.8,5,4.7,14.8-1.1,16.5C208.3,340.7,202.5,322.5,202.5,322.5z"/>
			<path class="st7" d="M216.7,331.9c0-5.3-5.5-10.3-10.3-10.3c-4.8,0-8,3.9-7.5,9.1c0.5,5.9,5.6,10.1,10.4,10.1
				C214.1,340.7,216.7,337.2,216.7,331.9z"/>
		</g>
		<line class="st8" x1="221" y1="305.8" x2="298.7" y2="261"/>
		<line class="st8" x1="367.4" y1="390.5" x2="445" y2="345.6"/>
		<line class="st8" x1="514.9" y1="476.2" x2="592.6" y2="431.4"/>
		<line class="st8" x1="719.2" y1="527.6" x2="739.5" y2="515.9"/>
		<path class="st8" d="M590,426"/>
		<path class="st8" d="M512.3,470.9"/>
		<g>
			<path class="st6" d="M420.1,450.3c0,0,6.9-5,12.7,0c5.8,5,4.7,14.8-1.1,16.5C425.8,468.4,420.1,450.3,420.1,450.3z"/>
			<path class="st7" d="M435,459.4c0-5.3-5.5-10.3-10.3-10.3c-4.8,0-8,3.9-7.5,9.1c0.5,5.9,5.6,10.1,10.4,10.1
				C432.5,468.3,435,464.7,435,459.4z"/>
		</g>
		<g>
			<path class="st6" d="M492.2,490.6c0,0,6.9-5,12.7,0c5.8,5,4.7,14.8-1.1,16.5C498,508.8,492.2,490.6,492.2,490.6z"/>
			<path class="st7" d="M507.2,499.8c0-5.3-5.5-10.3-10.3-10.3s-8,3.9-7.5,9.1c0.5,5.9,5.6,10.1,10.4,10.1S507.2,505.1,507.2,499.8z
				"/>
		</g>
		<path class="st5" d="M516.3,492.4"/>
	</g>
	<polygon class="st1" points="465.8,208.5 465.9,250.7 502.3,229.7 502.2,187.4 	"/>
	<polygon class="st7" points="429,229.7 465.9,250.7 465.8,208.9 429.1,187.8 	"/>
	<polygon class="st9" points="341.9,282.5 341.9,438.2 466.2,362.5 466.1,212.5 	"/>
	<polygon class="st9" points="306.4,262.4 308.4,415.6 430.8,342.4 430.6,186.4 	"/>
	<polygon class="st1" points="312.5,297.2 312.6,314.7 468.1,225 468,207.7 	"/>
	<g>
		<path class="st10" d="M487.4,373.2v64.3c0,9.3,13.2,16.9,29.4,16.9c16.3,0,29.4-7.6,29.4-16.9v-64.3H487.4z"/>
		<g>
			<ellipse class="st7" cx="516.8" cy="373.2" rx="28.9" ry="16.4"/>
			<path class="st6" d="M516.8,357.4c15.7,0,28.4,7.1,28.4,15.9c0,8.8-12.8,15.9-28.4,15.9s-28.4-7.1-28.4-15.9
				C488.4,364.5,501.2,357.4,516.8,357.4 M516.8,356.4c-16.3,0-29.4,7.6-29.4,16.9s13.2,16.9,29.4,16.9s29.4-7.6,29.4-16.9
				S533.1,356.4,516.8,356.4L516.8,356.4z"/>
		</g>
		<g>
			<ellipse class="st7" cx="516.8" cy="437.5" rx="28.9" ry="16.4"/>
			<path class="st6" d="M516.8,421.6c15.7,0,28.4,7.1,28.4,15.9s-12.8,15.9-28.4,15.9s-28.4-7.1-28.4-15.9S501.2,421.6,516.8,421.6
				 M516.8,420.6c-16.3,0-29.4,7.6-29.4,16.9s13.2,16.9,29.4,16.9s29.4-7.6,29.4-16.9S533.1,420.6,516.8,420.6L516.8,420.6z"/>
		</g>
		<ellipse class="st6" cx="516.8" cy="372.8" rx="12.7" ry="7.3"/>
		<polygon class="st6" points="526.3,366.8 529.3,371.3 504.5,371 507.3,366.8 		"/>
		<ellipse class="st11" cx="516.8" cy="368.3" rx="9.9" ry="5.7"/>
	</g>
	<polyline class="st2" points="261.4,527.6 261.4,521.7 306.5,403.5 396.6,353.4 396.3,527.6 261.4,527.6 	"/>
	<polygon class="st3" points="396.6,353.4 261.9,275.8 173.1,326.7 307.7,404.3 	"/>
	<g>
		<polygon class="st12" points="128.6,443.4 172.6,328 304.7,404.1 260.6,519.5 		"/>
		<path class="st13" d="M173.4,330.2l129.4,74.6l-42.9,112.5l-129.4-74.6L173.4,330.2 M171.9,325.8L126.8,444l134.6,77.6l45.1-118.2
			L171.9,325.8L171.9,325.8z"/>
	</g>
	<polygon class="st4" points="261.4,527.6 261.4,521.7 126.8,444 126.8,527.6 	"/>
	<polygon class="st1" points="305.6,301.5 305.7,343.8 342.1,322.7 341.9,280.5 	"/>
	<polygon class="st7" points="268.8,322.7 305.7,343.8 305.6,301.5 268.9,280.5 	"/>
	<polygon class="st14" points="268.9,280.5 305.6,301.5 502.2,187.4 465.5,166.1 	"/>
	<polygon class="st15" points="221.3,421 239.3,372.9 175.7,336.7 157.8,383.5 	"/>
	<polygon class="st15" points="257.6,511.1 275.6,463 212,426.7 194.1,473.6 	"/>
	<polygon class="st16" points="223.3,508 232.1,513.1 232.1,522.8 223.3,517.8 	"/>
	<polygon class="st17" points="224.3,507.4 233,512.5 232.1,513.1 223.3,508 	"/>
	<polygon class="st18" points="233,512.6 232.1,513.1 232.1,522.9 233,522.3 	"/>
	<polygon class="st19" points="235.1,513.8 243.9,519 243,519.5 234.2,514.4 	"/>
	<polygon class="st20" points="246.4,520.5 255.2,525.6 254.3,526.1 245.5,521 	"/>
	<polyline class="st21" points="255.2,527.6 255.2,525.6 254.3,526.2 254.3,527.6 	"/>
	<polygon class="st0" points="129.3,107.8 129.7,179.6 191.1,143.5 	"/>
	<polygon class="st22" points="56.7,65.6 129.3,107.8 129.7,179.6 56.3,221.4 	"/>
	<g>
		<path class="st23" d="M-0.3,175.2c10.6,10.7,30.8,18,53.9,18c34.2,0,61.9-15.9,61.9-35.5s-27.7-35.5-61.9-35.5
			c-23.2,0-43.4,7.3-54,18.1L-0.3,175.2z"/>
	</g>
	<g>
		<ellipse class="st24" cx="53.6" cy="157.8" rx="51.3" ry="29.4"/>
	</g>
	<g>
		<ellipse class="st25" cx="53.6" cy="157.8" rx="40.3" ry="23.1"/>
	</g>
	<polygon class="st7" points="-0.5,291.4 33.8,311.4 34.3,233.6 -0.4,213.3 	"/>
	<g>
		<path class="st10" d="M24.2,93.5v64.3c0,9.3,13.2,16.9,29.4,16.9s29.4-7.6,29.4-16.9V93.5H24.2z"/>
		<g>
			<path class="st7" d="M53.6,109.8c-16,0-28.9-7.3-28.9-16.4s13-16.4,28.9-16.4s28.9,7.3,28.9,16.4S69.6,109.8,53.6,109.8z"/>
			<path class="st6" d="M53.6,77.6c15.7,0,28.4,7.1,28.4,15.9c0,8.8-12.8,15.9-28.4,15.9s-28.4-7.1-28.4-15.9
				C25.2,84.7,37.9,77.6,53.6,77.6 M53.6,76.6c-16.3,0-29.4,7.6-29.4,16.9s13.2,16.9,29.4,16.9s29.4-7.6,29.4-16.9
				S69.9,76.6,53.6,76.6L53.6,76.6z"/>
		</g>
		<g>
			<path class="st7" d="M53.6,174.1c-16,0-28.9-7.3-28.9-16.4s13-16.4,28.9-16.4s28.9,7.3,28.9,16.4S69.6,174.1,53.6,174.1z"/>
			<path class="st6" d="M53.6,141.9c15.7,0,28.4,7.1,28.4,15.9s-12.8,15.9-28.4,15.9s-28.4-7.1-28.4-15.9S37.9,141.9,53.6,141.9
				 M53.6,140.9c-16.3,0-29.4,7.6-29.4,16.9s13.2,16.9,29.4,16.9s29.4-7.6,29.4-16.9S69.9,140.9,53.6,140.9L53.6,140.9z"/>
		</g>
		<ellipse class="st6" cx="53.6" cy="93" rx="12.7" ry="7.3"/>
		<polygon class="st6" points="63,87 66.1,91.5 41.3,91.2 44.1,87 		"/>
		<ellipse class="st11" cx="53.6" cy="88.6" rx="9.9" ry="5.7"/>
	</g>
	<polygon class="st26" points="254.3,527.6 254.3,526.1 245.5,521 245.5,527.6 	"/>
	<polygon class="st27" points="240.1,527.6 234.2,524.2 234.2,514.4 243,519.5 243,527.6 	"/>
	<polygon class="st28" points="243.9,527.6 243.9,519 243,519.5 243,527.6 	"/>
	<g>
		<polyline class="st2" points="-0.4,86.5 30,69 29.9,97.5 -0.4,115.4 		"/>
		<polygon class="st3" points="-0.4,67.3 12.2,60 29.7,69.2 -0.4,86.5 		"/>
	</g>
</g>
</svg>
