<?xml version="1.0" encoding="utf-8"?>
<!-- Generator: Adobe Illustrator 22.1.0, SVG Export Plug-In . SVG Version: 6.00 Build 0)  -->
<svg version="1.1" id="Layer_1" xmlns="http://www.w3.org/2000/svg" xmlns:xlink="http://www.w3.org/1999/xlink" x="0px" y="0px"
	 viewBox="0 0 835.5 624.3" style="enable-background:new 0 0 835.5 624.3;" xml:space="preserve">
<style type="text/css">
	.st0{fill:#B3C7D5;}
	.st1{fill:#949FB1;}
	.st2{fill:#AABAC5;}
	.st3{fill:#7E95A0;}
	.st4{fill:#8CA7B6;}
	.st5{fill:#32FFF5;}
	.st6{fill:#00E1DD;}
	.st7{fill:#00CBCC;}
	.st8{fill:#006C57;stroke:#163338;stroke-width:8;stroke-miterlimit:10;}
	.st9{fill:#C4D8E4;}
	.st10{fill:#8C9DAA;}
	.st11{fill:#DDE7ED;}
	.st12{fill:#13F8D0;}
	.st13{fill:#616C71;}
	.st14{fill:#3597B2;}
	.st15{fill:#348095;}
	.st16{fill:#D6D6D6;}
	.st17{fill:#FFCB00;}
	.st18{fill:#FFFFFF;}
	.st19{fill:#FFFFFF;stroke:#8C9DAA;stroke-width:0.25;stroke-miterlimit:10;}
	.st20{fill:#FFFFFF;stroke:#FF5A00;stroke-width:0.75;stroke-linecap:round;stroke-miterlimit:10;}
	.st21{fill:#FFFFFF;stroke:#FFEC00;stroke-width:0.75;stroke-linecap:round;stroke-miterlimit:10;}
	.st22{fill:#FFFFFF;stroke:#46FF00;stroke-width:0.75;stroke-linecap:round;stroke-miterlimit:10;}
	.st23{fill:#A1A1A1;}
	.st24{fill:#7CF995;}
	.st25{fill:#E6E6E6;}
	.st26{fill:#BFBFBF;}
	.st27{fill:#F00000;}
	.st28{fill:#FF4642;}
	.st29{fill:#C10000;}
	.st30{fill:#00A6FF;}
	.st31{fill:#00A6D8;}
	.st32{fill:#0084BC;}
	.st33{fill:#162B33;}
	.st34{fill:none;stroke:#2E4547;stroke-miterlimit:10;}
	.st35{fill:#E86100;}
	.st36{fill:#26CB96;}
	.st37{fill:#26BB87;}
	.st38{clip-path:url(#SVGID_2_);}
	.st39{fill:#1E4650;}
	.st40{opacity:0.5;fill:#47ADBE;}
	.st41{fill:#47ADBE;}
	.st42{opacity:0.2;fill:#FFFFFF;}
</style>
<g>
	<polygon class="st0" points="698.4,623.9 767.6,583.8 835.5,623.7 	"/>
	<g>
		<polygon class="st1" points="800.1,623.8 768.3,605.1 736,623.8 		"/>
	</g>
	<path class="st2" d="M497.5,387.1l69.4-40c1.5-0.9,3.4-1,5-0.3h0c4.1,1.8,4.4,7.6,0.5,9.8L503.2,396c-2.7,1.5-6.2,0.6-7.7-2.2l0,0
		C494.3,391.5,495.1,388.5,497.5,387.1z"/>
	<path class="st2" d="M636,396.8l-69.3-40.1c-1.5-0.9-2.5-2.4-2.7-4.2l0,0c-0.5-4.5,4.4-7.6,8.2-5.3l68.6,40.2
		c2.7,1.6,3.6,5.1,1.9,7.7l0,0C641.3,397.4,638.3,398.1,636,396.8z"/>
	<path class="st3" d="M660.7,404.3l-89.9-51.4c-0.4,0.9-2.2,4.6-0.7,5.5l85.7,49.2L660.7,404.3z"/>
	<path class="st2" d="M498.4,364.5l96.2-55.7c1.5-0.9,3.4-1,5-0.3l0,0c4.1,1.8,4.4,7.6,0.5,9.8l-95.9,55c-2.7,1.5-6.2,0.6-7.7-2.2
		l0,0C495.2,368.8,496,365.8,498.4,364.5z"/>
	<polyline class="st4" points="530.1,50.3 544.4,252.8 358.9,252.8 374,44.1 	"/>
	<ellipse class="st4" cx="451.7" cy="252.8" rx="92.7" ry="53.1"/>
	<polygon class="st5" points="58.1,208.6 352.3,378.7 512.8,286 218.5,115.8 	"/>
	<polygon class="st6" points="58.1,208.5 58.3,378.6 352.5,548.8 352.3,378.7 	"/>
	<polygon class="st7" points="512.9,457.8 512.8,285.3 352.3,378.1 352.5,548.2 	"/>
	<polygon class="st8" points="395.6,502.8 395.6,403.4 470.7,360 470.7,459.4 	"/>
	<polyline class="st4" points="801.4,252.4 815.7,454.9 630.3,454.9 645.4,246.2 	"/>
	<ellipse class="st4" cx="723" cy="454.9" rx="92.7" ry="53.1"/>
	<g>
		<ellipse class="st9" cx="723" cy="252.4" rx="77.9" ry="44.4"/>
		<path class="st10" d="M723,208.5c42.7,0,77.4,19.7,77.4,43.9s-34.7,43.9-77.4,43.9s-77.4-19.7-77.4-43.9S680.3,208.5,723,208.5
			 M723,207.5c-43.3,0-78.4,20.1-78.4,44.9c0,24.8,35.1,44.9,78.4,44.9c43.3,0,78.4-20.1,78.4-44.9
			C801.4,227.6,766.3,207.5,723,207.5L723,207.5z"/>
	</g>
	<ellipse class="st4" cx="723" cy="253.7" rx="64.2" ry="36.8"/>
	<polygon class="st4" points="770.6,223.3 785.9,246.2 660.8,244.7 674.8,223.3 	"/>
	<ellipse class="st11" cx="723" cy="231.3" rx="50.2" ry="28.8"/>
	<ellipse class="st10" cx="723" cy="255.2" rx="3.8" ry="2.2"/>
	<ellipse class="st10" cx="723" cy="206.3" rx="3.8" ry="2.2"/>
	<ellipse class="st10" cx="693.6" cy="212.9" rx="3.8" ry="2.2"/>
	<ellipse class="st10" cx="693.6" cy="248.4" rx="3.8" ry="2.2"/>
	<ellipse class="st10" cx="751.5" cy="212.9" rx="3.8" ry="2.2"/>
	<ellipse class="st10" cx="751.5" cy="248.4" rx="3.8" ry="2.2"/>
	<ellipse class="st10" cx="679.4" cy="231.3" rx="3.8" ry="2.2"/>
	<ellipse class="st10" cx="766.7" cy="231.3" rx="3.8" ry="2.2"/>
	<g>
		<ellipse class="st9" cx="452.2" cy="49.9" rx="77.9" ry="44.4"/>
		<path class="st10" d="M452.2,6c42.7,0,77.4,19.7,77.4,43.9s-34.7,43.9-77.4,43.9c-42.7,0-77.4-19.7-77.4-43.9S409.5,6,452.2,6
			 M452.2,5c-43.3,0-78.4,20.1-78.4,44.9s35.1,44.9,78.4,44.9c43.3,0,78.4-20.1,78.4-44.9S495.5,5,452.2,5L452.2,5z"/>
	</g>
	<ellipse class="st4" cx="452.2" cy="51.2" rx="64.2" ry="36.8"/>
	<polygon class="st4" points="499.8,20.8 515.1,43.7 390,42.2 404,20.8 	"/>
	<ellipse class="st11" cx="452.2" cy="28.8" rx="50.2" ry="28.8"/>
	<ellipse class="st10" cx="452.2" cy="52.7" rx="3.8" ry="2.2"/>
	<ellipse class="st10" cx="452.2" cy="3.8" rx="3.8" ry="2.2"/>
	<ellipse class="st10" cx="422.8" cy="10.4" rx="3.8" ry="2.2"/>
	<ellipse class="st10" cx="422.8" cy="45.9" rx="3.8" ry="2.2"/>
	<ellipse class="st10" cx="480.7" cy="10.4" rx="3.8" ry="2.2"/>
	<ellipse class="st10" cx="480.7" cy="45.9" rx="3.8" ry="2.2"/>
	<ellipse class="st10" cx="408.6" cy="28.8" rx="3.8" ry="2.2"/>
	<ellipse class="st10" cx="495.9" cy="28.8" rx="3.8" ry="2.2"/>
	<path class="st5" d="M811.7,409.6c0,25.8-33.6,47.2-77.2,50.4l-0.1-40.2c42.3-3.2,75-24,75-49.1L811.7,409.6z"/>
	<path class="st12" d="M539.4,187.7c0,25.8-33.6,47.2-77.2,50.4l-0.1-40.2c42.3-3.2,75-24,75-49.1L539.4,187.7z"/>
	<g>
		<g>
			<g>
				<path class="st13" d="M526.9,263.2c4.4-0.6,8,2.7,7.9,7.5c0,4.7-3.6,9.1-8,9.7c-4.4,0.6-7.9-2.7-7.9-7.5
					S522.5,263.8,526.9,263.2z"/>
			</g>
		</g>
	</g>
	<path class="st2" d="M530.7,268.4l69.3,40.1c1.5,0.9,2.5,2.4,2.7,4.2l0,0c0.5,4.5-4.4,7.6-8.2,5.3l-68.6-40.2
		c-2.7-1.6-3.6-5.1-1.9-7.7l0,0C525.4,267.8,528.4,267,530.7,268.4z"/>
	<polygon class="st14" points="165.4,158.1 228.7,194.6 233.1,189.6 170.6,153.4 	"/>
	<polygon class="st15" points="233.1,189.6 233.1,192 228.7,194.6 	"/>
	<polygon class="st14" points="173.6,153.4 236.9,189.9 241.4,184.8 178.8,148.6 	"/>
	<polygon class="st15" points="241.4,184.8 241.4,187.3 236.9,189.9 	"/>
	<polygon class="st14" points="181.9,148.4 245.2,184.8 249.6,179.8 187.1,143.6 	"/>
	<polygon class="st15" points="249.6,179.8 249.6,182.3 245.2,184.8 	"/>
	<g>
		<polyline class="st16" points="139.2,151.3 139.2,185.5 148.8,185.5 148.8,151.3 		"/>
		<ellipse class="st16" cx="144" cy="185.5" rx="4.8" ry="2.8"/>
		<ellipse class="st10" cx="144" cy="151.3" rx="4.8" ry="2.8"/>
	</g>
	<g>
		<polyline class="st16" points="150.8,145.1 150.8,179.4 160.4,179.4 160.4,145.1 		"/>
		<ellipse class="st16" cx="155.6" cy="179.4" rx="4.8" ry="2.8"/>
		<ellipse class="st10" cx="155.6" cy="145.1" rx="4.8" ry="2.8"/>
	</g>
	<g>
		<g>
			<g>
				<path class="st17" d="M330.4,497.1c0.5,1.7-0.2,2.9-1.3,2.2l-12.4-7.1c-1.1-0.6-1.8-2.6-1.3-3.8l6.1-14c0.3-0.6,0.8-0.7,1.3-0.4
					c0.5,0.3,1,1,1.3,1.9L330.4,497.1z M324,479.4l-2.2-1.3l0.3,9.5l1.7,1L324,479.4 M323,492.7c0.7,0.4,1.2-0.1,1.2-1
					c0-0.9-0.5-2-1.2-2.4c-0.7-0.4-1.2,0.1-1.2,1C321.8,491.2,322.3,492.3,323,492.7"/>
			</g>
			<g>
				<polygon class="st18" points="323.8,488.7 322.1,487.7 321.8,478.1 324,479.4 				"/>
			</g>
			<g>
				<path class="st18" d="M322.9,489.3c0.7,0.4,1.2,1.5,1.2,2.4c0,1-0.5,1.4-1.2,1c-0.7-0.4-1.2-1.5-1.2-2.4
					C321.7,489.3,322.3,488.9,322.9,489.3z"/>
			</g>
			<g>
				<path class="st18" d="M311,494.8c0.6,1,0.8,2.2,0.8,3.7c0,1.4-0.2,2.4-0.7,2.9c-0.4,0.4-0.9,0.4-1.8-0.1l-2-1.2l0-8.3l1.9,1.1
					C310.1,493.6,310.5,494,311,494.8z M308.8,499.6c1.1,0.7,1.6,0.1,1.6-1.7c0-1.9-0.4-2.9-1.4-3.5l-0.4-0.2l0,5.3L308.8,499.6"/>
			</g>
			<g>
				<path class="st18" d="M316.5,497.2l1.7,9.3l-1.5-0.9l-0.2-1.4l-1.7-1l-0.2,1.2l-1.4-0.8l1.7-7.3L316.5,497.2z M315.1,501.9
					l1.2,0.7l-0.6-4L315.1,501.9"/>
			</g>
			<g>
				<polygon class="st18" points="324.1,501.6 324.1,509.9 322.8,509.1 320.8,502.3 320.8,508 319.6,507.3 319.6,499.1 320.9,499.8
					322.9,506.6 322.9,500.9 				"/>
			</g>
			<g>
				<path class="st18" d="M328.3,503.9c1.1,0.7,1.8,1.8,2.2,3.5l-1.3-0.3c-0.1-0.8-0.4-1.4-0.8-1.7c-0.7-0.4-1,0.4-1,2.4
					c0,1.7,0.3,2.8,1,3.1c0.5,0.3,0.9-0.2,0.9-1.5l-1.1-0.6l0-1.5l2.5,1.4l0,0.8c0,1.3-0.1,2.1-0.5,2.6c-0.4,0.6-1.1,0.7-1.9,0.2
					c-1.5-0.9-2.3-2.8-2.3-5.5C325.9,503.9,326.6,503,328.3,503.9z"/>
			</g>
			<g>
				<polygon class="st18" points="336.2,508.7 336.2,510.2 333.7,508.8 333.7,510.5 336.2,511.9 336.2,513.4 333.7,512 333.8,513.9
					336.3,515.3 336.3,516.9 332.4,514.7 332.4,506.4 				"/>
			</g>
			<g>
				<path class="st18" d="M341,516.1l1.7,4.5l-1.7-1l-1.6-4.7l0,3.8l-1.4-0.8l0-8.3l2.4,1.4c0.8,0.5,1.2,0.8,1.6,1.5
					c0.4,0.6,0.6,1.4,0.6,2.1C342.5,515.9,342,516.4,341,516.1z M340.7,514.5c0.3,0,0.4-0.2,0.4-0.6c0-0.4-0.1-0.8-0.4-1.1
					c-0.2-0.2-0.4-0.4-0.8-0.6l-0.5-0.3l0,2l0.5,0.3C340.3,514.5,340.5,514.5,340.7,514.5"/>
			</g>
		</g>
	</g>
	<path class="st3" d="M591.9,310.2l-68.2-39.2c-0.4,0.9-0.6,1.9-0.5,3v0c0.2,1.7,1.2,3.3,2.7,4.2l61.1,35.3L591.9,310.2z"/>
	<polygon class="st6" points="0.7,288.7 0,412.4 66.5,450.1 67.1,326.5 	"/>
	<polygon class="st9" points="15.7,340.9 45.7,358.1 45.7,330.1 15.3,312.7 	"/>
	<polygon class="st0" points="45.7,330.1 15.3,312.7 18,311.2 48,328.7 	"/>
	<polygon class="st10" points="45.7,358.1 45.7,330.1 48,328.7 48,356.7 	"/>
	<g>
		<polygon class="st9" points="7.2,393.8 37.2,411 37.3,371.1 6.9,353.8 		"/>
	</g>
	<polygon class="st0" points="37.3,371.1 6.9,353.8 14.8,349.2 44.8,366.6 	"/>
	<polygon class="st10" points="37.2,411 37.3,371.1 44.8,366.6 44.8,406.4 	"/>
	<g>
		<path class="st10" d="M23.2,325.5c0,0,6.5-4.7,12.6,1c8,7.3,3.2,18-3.2,18.9C26.9,345.1,23.2,325.5,23.2,325.5z"/>
		<path class="st19" d="M39.1,335.9c0-5.7-6-11.2-11.3-11.2s-8.7,4.2-8.2,9.9c0.5,6.4,6.1,10.9,11.4,10.9S39.1,341.6,39.1,335.9z"/>
		<path class="st20" d="M28.4,328.5c-3.3,0-5.5,2.7-5.2,6.3"/>
		<path class="st21" d="M34.4,332.2c-1.4-2.1-3.8-3.7-6-3.7"/>
		<path class="st22" d="M34.7,339.1c0.5-1,0.7-2.2,0.7-3.5c0-1.2-0.4-2.4-1.1-3.4"/>
		<path class="st10" d="M30.9,335.2c0-0.9-1-1.8-1.8-1.8s-1.4,0.7-1.3,1.6c0.1,1,1,1.8,1.8,1.8S30.9,336.1,30.9,335.2z"/>
		<polygon class="st10" points="29.9,334.4 27.8,330.8 28.4,335.1 		"/>
	</g>
	<polygon class="st23" points="9.4,391.5 9.1,358.1 10.9,359.3 11,390.4 33.7,403.4 33.7,405.6 	"/>
	<polygon class="st18" points="12.6,381.6 17.6,384.6 17.6,390.2 12.6,387.3 	"/>
	<polygon class="st24" points="13.1,362.8 31.1,373.1 31.1,387.7 13.1,377.2 	"/>
	<polygon class="st25" points="13.1,381.3 18.2,384.3 17.6,384.6 12.6,381.6 	"/>
	<polygon class="st26" points="18.2,384.3 17.6,384.6 17.6,390.2 18.2,389.9 	"/>
	<polygon class="st27" points="18.8,385.3 23.9,388.3 23.9,393.9 18.8,391 	"/>
	<polygon class="st28" points="19.4,385 24.4,388 23.9,388.3 18.8,385.3 	"/>
	<polygon class="st29" points="24.4,388 23.9,388.3 23.9,393.9 24.4,393.6 	"/>
	<polygon class="st30" points="25.3,389.2 30.4,392.1 30.4,397.7 25.3,394.8 	"/>
	<polygon class="st31" points="25.9,388.8 30.9,391.8 30.4,392.1 25.3,389.2 	"/>
	<polygon class="st32" points="30.9,391.8 30.4,392.1 30.4,397.7 30.9,397.4 	"/>
	<polygon class="st5" points="58.8,208.9 0.7,288.7 67.1,326.6 124.8,246.9 	"/>
	<polygon class="st7" points="124.8,246.9 124,416.5 67.3,448.6 67.1,326.6 	"/>
	<g>
		<polygon class="st33" points="641,623.8 400.4,472.1 400.4,407.3 403.8,405.2 779.1,624.1 		"/>
		<g>
			<path class="st33" d="M493.5,551.1l-19.6,11.3c-2.8,1.6-6.4,1.4-9-0.5l-7.3-5.3c-3.4-2.5-3.1-7.6,0.5-9.7l21.2-12.5
				c2.1-1.2,4.7-1,6.6,0.5l8.3,6.7C497.4,544.1,497.1,549,493.5,551.1z"/>
			<path class="st0" d="M452.1,555.2l15.5,9c1.1,0.6,2.4,0.6,3.4,0l1.5-0.9c0.6-0.3,0.6-1.1,0.1-1.5l0,0c-2.1-1.6-3.4-4.1-3.4-6.7
				v-25.9c0-0.3-0.2-0.6-0.4-0.8l-19.3-11.2c-0.6-0.3-1.4,0.1-1.4,0.8l0,30.4C448.1,551.1,449.6,553.7,452.1,555.2z"/>
		</g>
		<g>
			<path class="st33" d="M599.6,609.8L580,621.2c-2.8,1.6-6.4,1.4-9-0.5l-7.3-5.3c-3.4-2.5-3.1-7.6,0.5-9.7l21.2-12.5
				c2.1-1.2,4.7-1,6.6,0.5l8.3,6.7C603.5,602.8,603.1,607.8,599.6,609.8z"/>
			<path class="st0" d="M558.2,613.9l15.5,9c1.1,0.6,2.4,0.6,3.4,0l1.5-0.9c0.6-0.3,0.6-1.1,0.1-1.5l0,0c-2.1-1.6-3.4-4.1-3.4-6.7
				v-25.9c0-0.3-0.2-0.6-0.4-0.8l-19.3-11.2c-0.6-0.3-1.4,0.1-1.4,0.8l0,30.4C554.2,609.9,555.7,612.5,558.2,613.9z"/>
		</g>
		<polygon class="st0" points="630.6,623.7 400.1,489.8 400.2,471.6 664.2,623.5 		"/>
		<path class="st10" d="M525.9,550.8c0,0,4-2.9,7.3,0c3.3,2.9,2.7,8.5-0.6,9.5C529.2,561.2,525.9,550.8,525.9,550.8z"/>
		<path class="st9" d="M534,556.2c0-3-3.2-5.9-6-5.9c-2.8,0-4.6,2.2-4.3,5.3c0.3,3.4,3.2,5.8,6,5.8C532.5,561.3,534,559.2,534,556.2
			z"/>
		<g>
			<path class="st10" d="M483.7,526.5c0,0,4-2.9,7.3,0c3.3,2.9,2.7,8.5-0.6,9.5S483.7,526.5,483.7,526.5z"/>
			<path class="st9" d="M491.9,531.9c0-3-3.2-5.9-6-5.9c-2.8,0-4.6,2.2-4.3,5.3c0.3,3.4,3.2,5.8,6,5.8
				C490.4,537,491.9,534.9,491.9,531.9z"/>
		</g>
		<g>
			<path class="st10" d="M443.1,503.1c0,0,4-2.9,7.3,0s2.7,8.5-0.6,9.5C446.4,513.5,443.1,503.1,443.1,503.1z"/>
			<path class="st9" d="M451.2,508.5c0-3-3.2-5.9-6-5.9c-2.8,0-4.6,2.2-4.3,5.3c0.3,3.4,3.2,5.8,6,5.8
				C449.7,513.5,451.2,511.5,451.2,508.5z"/>
		</g>
		<line class="st34" x1="400.6" y1="426.7" x2="414.1" y2="418.8"/>
		<line class="st34" x1="453.7" y1="493.4" x2="498.4" y2="467.6"/>
		<line class="st34" x1="537.9" y1="542.2" x2="582.6" y2="516.4"/>
		<line class="st34" x1="622.8" y1="591.5" x2="667.5" y2="565.7"/>
		<line class="st34" x1="735.6" y1="623.8" x2="752.1" y2="614.3"/>
		<path class="st34" d="M666,562.6"/>
		<path class="st34" d="M621.3,588.5"/>
		<g>
			<path class="st10" d="M568.3,576.6c0,0,4-2.9,7.3,0c3.3,2.9,2.7,8.5-0.6,9.5C571.6,587,568.3,576.6,568.3,576.6z"/>
			<path class="st9" d="M576.9,581.9c0-3-3.2-5.9-6-5.9c-2.8,0-4.6,2.2-4.3,5.3c0.3,3.4,3.2,5.8,6,5.8S576.9,584.9,576.9,581.9z"/>
		</g>
		<g>
			<path class="st10" d="M609.8,599.8c0,0,4-2.9,7.3,0c3.3,2.9,2.7,8.5-0.6,9.5C613.1,610.3,609.8,599.8,609.8,599.8z"/>
			<path class="st9" d="M618.4,605.1c0-3-3.2-5.9-6-5.9c-2.8,0-4.6,2.2-4.3,5.3c0.3,3.4,3.2,5.8,6,5.8S618.4,608.1,618.4,605.1z"/>
		</g>
		<path class="st33" d="M623.6,600.8"/>
		<g>
			<path class="st10" d="M400.7,477.1c-0.3-0.2-0.6-0.4-0.8-0.6c0,0.2,0.1,0.4,0.1,0.7c0,1.7-0.1,3.4,0.1,5.1
				c0.1,1.4,0.2,2.9,0.1,4.3c0,0,0,0,0,0C403.4,485.7,404.1,480,400.7,477.1z"/>
			<path class="st9" d="M399.9,478.7c0,1.2,0,2.4,0.1,3.6c0.1,1.4,0.2,2.9,0.1,4.3c1-0.9,1.5-2.3,1.5-4.1
				C401.6,481.2,400.9,479.8,399.9,478.7z"/>
		</g>
		<path class="st33" d="M323.7,427.5"/>
	</g>
	<path class="st33" d="M400.9,471.7"/>
	<ellipse class="st35" cx="480.9" cy="483.1" rx="16.9" ry="9.7"/>
	<ellipse class="st10" cx="480.9" cy="483.1" rx="16.9" ry="9.7"/>
	<g>
		<polyline class="st10" points="497.8,446.1 497.8,483.1 463.9,483.1 463.9,446.1 		"/>
		<g>
			<rect x="463.9" y="463" class="st36" width="33.9" height="20.1"/>
			<ellipse class="st12" cx="480.9" cy="463" rx="16.9" ry="9.7"/>
			<g>
				<ellipse class="st37" cx="480.9" cy="483.1" rx="16.9" ry="9.7"/>
			</g>
			<g>
				<path class="st9" d="M480.9,455.3c-9.1,0-16.4-4.1-16.4-9.2c0-5.1,7.4-9.2,16.4-9.2c9.1,0,16.4,4.1,16.4,9.2
					C497.3,451.2,489.9,455.3,480.9,455.3z"/>
				<path class="st10" d="M480.9,437.4c8.6,0,15.9,4,15.9,8.7s-7.3,8.7-15.9,8.7c-8.6,0-15.9-4-15.9-8.7S472.2,437.4,480.9,437.4
					 M480.9,436.4c-9.4,0-16.9,4.3-16.9,9.7s7.6,9.7,16.9,9.7s16.9-4.3,16.9-9.7S490.2,436.4,480.9,436.4L480.9,436.4z"/>
			</g>
			<ellipse class="st10" cx="480.9" cy="445.9" rx="7.3" ry="4.2"/>
			<polygon class="st10" points="486.3,442.4 488,445 473.8,444.8 475.4,442.4 			"/>
			<ellipse class="st11" cx="480.9" cy="443.3" rx="5.7" ry="3.3"/>
		</g>
	</g>
	<g>
		<polyline class="st10" points="674.3,542.6 674.3,579.6 640.4,579.6 640.4,542.6 		"/>
		<g>
			<rect x="640.4" y="559.5" class="st36" width="33.9" height="20.1"/>
			<ellipse class="st12" cx="657.4" cy="559.5" rx="16.9" ry="9.7"/>
			<g>
				<ellipse class="st37" cx="657.4" cy="579.6" rx="16.9" ry="9.7"/>
			</g>
			<g>
				<path class="st9" d="M657.4,551.8c-9.1,0-16.4-4.1-16.4-9.2c0-5.1,7.4-9.2,16.4-9.2c9.1,0,16.4,4.1,16.4,9.2
					C673.8,547.7,666.4,551.8,657.4,551.8z"/>
				<path class="st10" d="M657.4,533.9c8.6,0,15.9,4,15.9,8.7c0,4.7-7.3,8.7-15.9,8.7s-15.9-4-15.9-8.7
					C641.4,537.9,648.7,533.9,657.4,533.9 M657.4,532.9c-9.4,0-16.9,4.3-16.9,9.7c0,5.4,7.6,9.7,16.9,9.7c9.4,0,16.9-4.3,16.9-9.7
					C674.3,537.3,666.7,532.9,657.4,532.9L657.4,532.9z"/>
			</g>
			<ellipse class="st10" cx="657.4" cy="542.4" rx="7.3" ry="4.2"/>
			<polygon class="st10" points="662.8,538.9 664.5,541.5 650.3,541.3 651.9,538.9 			"/>
			<ellipse class="st11" cx="657.4" cy="539.8" rx="5.7" ry="3.3"/>
		</g>
	</g>
	<g>
		<defs>
			<polygon id="SVGID_1_" points="134.9,263.7 135,365.8 275.7,447.2 275.6,345.1 			"/>
		</defs>
		<clipPath id="SVGID_2_">
			<use xlink:href="#SVGID_1_"  style="overflow:visible;"/>
		</clipPath>
		<g class="st38">
			<polygon class="st39" points="135.7,392.9 134.9,327.4 275.2,401.4 275.8,463.1 			"/>
			<path class="st33" d="M112.2,304.4l-0.1-64.8l3.4-2.1L562,497.4c5.2,3,5.2,10.4,0,13.4l-61.2,34.8L112.2,304.4z"/>
			<g>
				<path class="st33" d="M330.9,451.3l-19.6,11.3c-2.8,1.6-6.4,1.4-9-0.5l-7.3-5.3c-3.4-2.5-3.1-7.6,0.5-9.7l21.2-12.5
					c2.1-1.2,4.7-1,6.6,0.5l8.3,6.7C334.9,444.2,334.5,449.2,330.9,451.3z"/>
				<path class="st0" d="M289.5,455.3l15.5,9c1.1,0.6,2.4,0.6,3.4,0l1.5-0.9c0.6-0.3,0.6-1.1,0.1-1.5l0,0c-2.1-1.6-3.4-4.1-3.4-6.7
					v-25.9c0-0.3-0.2-0.6-0.4-0.8l-19.3-11.2c-0.6-0.3-1.4,0.1-1.4,0.8l0,30.4C285.6,451.3,287.1,453.9,289.5,455.3z"/>
			</g>
			<g>
				<path class="st33" d="M436.7,512.2l-19.6,11.3c-2.8,1.6-6.4,1.4-9-0.5l-7.3-5.3c-3.4-2.5-3.1-7.6,0.5-9.7l21.2-12.5
					c2.1-1.2,4.7-1,6.6,0.5l8.3,6.7C440.7,505.2,440.3,510.2,436.7,512.2z"/>
				<path class="st0" d="M395.3,516.3l15.5,9c1.1,0.6,2.4,0.6,3.4,0l1.5-0.9c0.6-0.3,0.6-1.1,0.1-1.5l0,0c-2.1-1.6-3.4-4.1-3.4-6.7
					v-25.9c0-0.3-0.2-0.6-0.4-0.8l-19.3-11.2c-0.6-0.3-1.4,0.1-1.4,0.8l0,30.4C391.4,512.2,392.9,514.8,395.3,516.3z"/>
			</g>
			<g>
				<path class="st33" d="M225.9,389.8l-19.6,11.3c-2.8,1.6-6.4,1.4-9-0.5l-7.3-5.3c-3.4-2.5-3.1-7.6,0.5-9.7l21.2-12.5
					c2.1-1.2,4.7-1,6.6,0.5l8.3,6.7C229.8,382.8,229.5,387.8,225.9,389.8z"/>
				<path class="st0" d="M184.5,393.9l15.5,9c1.1,0.6,2.4,0.6,3.4,0l1.5-0.9c0.6-0.3,0.6-1.1,0.1-1.5l0,0c-2.1-1.6-3.4-4.1-3.4-6.7
					v-25.9c0-0.3-0.2-0.6-0.4-0.8l-19.3-11.2c-0.6-0.3-1.4,0.1-1.4,0.8l0,30.4C180.5,389.9,182,392.5,184.5,393.9z"/>
			</g>
			<path class="st0" d="M501.7,528.5L112.3,304.4l-0.1,18.1l384.3,222.9c4,2.3,10-2.5,10.4-7v0C507.2,534.3,505.2,530.5,501.7,528.5
				z"/>
			<g>
				<path class="st10" d="M187.9,356.7c0,0,4-2.9,7.3,0c3.3,2.9,2.7,8.5-0.6,9.5S187.9,356.7,187.9,356.7z"/>
				<path class="st9" d="M196,362.1c0-3-3.2-5.9-6-5.9s-4.6,2.2-4.3,5.3c0.3,3.4,3.2,5.8,6,5.8C194.5,367.1,196,365.1,196,362.1z"/>
			</g>
			<g>
				<path class="st10" d="M146.7,331.4c0,0,4-2.9,7.3,0c3.3,2.9,2.7,8.5-0.6,9.5S146.7,331.4,146.7,331.4z"/>
				<path class="st9" d="M154.9,336.8c0-3-3.2-5.9-6-5.9s-4.6,2.2-4.3,5.3c0.3,3.4,3.2,5.8,6,5.8S154.9,339.9,154.9,336.8z"/>
			</g>
			<path class="st10" d="M314.4,427.6c0,0,4-2.9,7.3,0s2.7,8.5-0.6,9.5C317.7,438.1,314.4,427.6,314.4,427.6z"/>
			<path class="st9" d="M322.5,433c0-3-3.2-5.9-6-5.9c-2.8,0-4.6,2.2-4.3,5.3c0.3,3.4,3.2,5.8,6,5.8C321,438.1,322.5,436,322.5,433z
				"/>
			<g>
				<path class="st10" d="M272.2,403.3c0,0,4-2.9,7.3,0s2.7,8.5-0.6,9.5C275.6,413.8,272.2,403.3,272.2,403.3z"/>
				<path class="st9" d="M280.4,408.7c0-3-3.2-5.9-6-5.9c-2.8,0-4.6,2.2-4.3,5.3c0.3,3.4,3.2,5.8,6,5.8
					C278.9,413.8,280.4,411.8,280.4,408.7z"/>
			</g>
			<g>
				<path class="st10" d="M231.6,379.9c0,0,4-2.9,7.3,0c3.3,2.9,2.7,8.5-0.6,9.5C234.9,390.4,231.6,379.9,231.6,379.9z"/>
				<path class="st9" d="M239.7,385.3c0-3-3.2-5.9-6-5.9s-4.6,2.2-4.3,5.3c0.3,3.4,3.2,5.8,6,5.8S239.7,388.3,239.7,385.3z"/>
			</g>
			<line class="st34" x1="157.9" y1="321.4" x2="202.6" y2="295.6"/>
			<line class="st34" x1="242.2" y1="370.3" x2="286.9" y2="344.5"/>
			<line class="st34" x1="326.4" y1="419" x2="371.1" y2="393.2"/>
			<line class="st34" x1="411.4" y1="468.4" x2="456.1" y2="442.6"/>
			<line class="st34" x1="495.9" y1="517" x2="540.6" y2="491.2"/>
			<path class="st34" d="M454.6,439.5"/>
			<path class="st34" d="M409.9,465.3"/>
			<g>
				<path class="st10" d="M356.8,453.4c0,0,4-2.9,7.3,0s2.7,8.5-0.6,9.5S356.8,453.4,356.8,453.4z"/>
				<path class="st9" d="M365.4,458.7c0-3-3.2-5.9-6-5.9s-4.6,2.2-4.3,5.3c0.3,3.4,3.2,5.8,6,5.8
					C363.9,463.8,365.4,461.7,365.4,458.7z"/>
			</g>
			<g>
				<path class="st10" d="M398.3,476.7c0,0,4-2.9,7.3,0s2.7,8.5-0.6,9.5S398.3,476.7,398.3,476.7z"/>
				<path class="st9" d="M406.9,481.9c0-3-3.2-5.9-6-5.9c-2.8,0-4.6,2.2-4.3,5.3c0.3,3.4,3.2,5.8,6,5.8
					C405.4,487,406.9,485,406.9,481.9z"/>
			</g>
			<path class="st33" d="M412.1,477.7"/>
			<g>
				<path class="st10" d="M113,309.2c-0.3-0.2-0.6-0.4-0.8-0.6c0,0.2,0.1,0.4,0.1,0.7c0,1.7-0.1,3.4,0.1,5.1
					c0.1,1.4,0.2,2.9,0.1,4.3c0,0,0,0,0,0C115.7,317.7,116.3,312.1,113,309.2z"/>
				<path class="st9" d="M112.2,310.8c0,1.2,0,2.4,0.1,3.6c0.1,1.4,0.2,2.9,0.1,4.3c1-0.9,1.5-2.3,1.5-4.1
					C113.9,313.2,113.2,311.8,112.2,310.8z"/>
			</g>
			<path class="st33" d="M112.3,304.4"/>
			<g>
				<polyline class="st10" points="216.2,277.1 216.2,314.1 182.3,314.1 182.3,277.1 				"/>
				<g>
					<rect x="182.3" y="294" class="st36" width="33.9" height="20.1"/>
					<ellipse class="st12" cx="199.3" cy="294" rx="16.9" ry="9.7"/>
					<g>
						<ellipse class="st37" cx="199.3" cy="314.1" rx="16.9" ry="9.7"/>
					</g>
					<g>
						<path class="st9" d="M199.3,286.3c-9.1,0-16.4-4.1-16.4-9.2s7.4-9.2,16.4-9.2s16.4,4.1,16.4,9.2S208.3,286.3,199.3,286.3z"/>
						<path class="st10" d="M199.3,268.4c8.6,0,15.9,4,15.9,8.7s-7.3,8.7-15.9,8.7s-15.9-4-15.9-8.7S190.6,268.4,199.3,268.4
							 M199.3,267.4c-9.4,0-16.9,4.3-16.9,9.7c0,5.4,7.6,9.7,16.9,9.7s16.9-4.3,16.9-9.7C216.2,271.8,208.6,267.4,199.3,267.4
							L199.3,267.4z"/>
					</g>
					<ellipse class="st10" cx="199.3" cy="276.9" rx="7.3" ry="4.2"/>
					<polygon class="st10" points="204.7,273.4 206.4,276 192.2,275.9 193.8,273.4 					"/>
					<ellipse class="st11" cx="199.3" cy="274.3" rx="5.7" ry="3.3"/>
				</g>
			</g>
		</g>
	</g>
	<polygon class="st40" points="134.9,365.8 134.9,263.7 275.6,345.1 275.7,447.2 	"/>
	<polygon class="st15" points="135.4,263.8 135.4,365.7 129.4,369.9 130.2,260.9 	"/>
	<polygon class="st41" points="135.4,365.8 275.7,447.2 275.8,454.7 129.4,370.1 	"/>
	<polygon class="st42" points="246.8,328.4 142.6,377.4 159.2,387.1 264.8,339.2 	"/>
</g>
</svg>
