<?xml version="1.0" encoding="utf-8"?>
<!-- Generator: Adobe Illustrator 22.1.0, SVG Export Plug-In . SVG Version: 6.00 Build 0)  -->
<svg version="1.1" id="Layer_1" xmlns="http://www.w3.org/2000/svg" xmlns:xlink="http://www.w3.org/1999/xlink" x="0px" y="0px"
	 viewBox="0 0 808.9 516.4" style="enable-background:new 0 0 808.9 516.4;" xml:space="preserve">
<style type="text/css">
	.st0{fill:#B3C7D5;}
	.st1{fill:#162B33;}
	.st2{fill:#8C9DAA;}
	.st3{fill:#C4D8E4;}
	.st4{fill:#20363D;}
	.st5{fill:none;stroke:#395859;stroke-miterlimit:10;}
	.st6{fill:none;stroke:#2E4547;stroke-miterlimit:10;}
	.st7{fill:#E9DE39;}
	.st8{fill:#FFFFFF;stroke:#8C9DAA;stroke-width:0.25;stroke-miterlimit:10;}
	.st9{fill:#D5C017;}
	.st10{fill:#594F04;}
	.st11{fill:#3F3602;}
	.st12{fill:none;stroke:#BCA71D;stroke-miterlimit:10;}
	.st13{fill:#F6F22F;}
	.st14{fill:#C3AD1D;}
	.st15{enable-background:new    ;}
	.st16{clip-path:url(#SVGID_2_);enable-background:new    ;}
	.st17{fill:#943C00;}
	.st18{fill:#ED6000;}
	.st19{clip-path:url(#SVGID_4_);enable-background:new    ;}
	.st20{fill:#853600;}
	.st21{fill:#8A3800;}
	.st22{fill:#8F3A00;}
	.st23{clip-path:url(#SVGID_6_);enable-background:new    ;}
	.st24{fill:#949494;}
	.st25{fill:#EDEDED;}
	.st26{clip-path:url(#SVGID_8_);enable-background:new    ;}
	.st27{fill:#858585;}
	.st28{fill:#8A8A8A;}
	.st29{fill:#8F8F8F;}
	.st30{fill:#00BAB2;}
	.st31{fill:#81C7C2;}
	.st32{fill:#9F8A15;}
	.st33{fill:#0084BC;}
	.st34{fill:#00A6FF;}
	.st35{fill:#C10000;}
	.st36{fill:#F00000;}
	.st37{fill:#CACACA;}
	.st38{fill:#FFFFFF;}
	.st39{fill:#B4A01C;}
	.st40{fill:#FFFFFF;stroke:#FF5A00;stroke-width:0.75;stroke-linecap:round;stroke-miterlimit:10;}
	.st41{fill:#FFFFFF;stroke:#FFEC00;stroke-width:0.75;stroke-linecap:round;stroke-miterlimit:10;}
	.st42{fill:#FFFFFF;stroke:#46FF00;stroke-width:0.75;stroke-linecap:round;stroke-miterlimit:10;}
	.st43{opacity:0.9;fill:#FF6700;}
	.st44{fill:#FF801A;}
	.st45{fill:#E86100;}
	.st46{clip-path:url(#SVGID_10_);enable-background:new    ;}
	.st47{fill:#6D6111;}
	.st48{fill:#AF9B1B;}
	.st49{clip-path:url(#SVGID_12_);enable-background:new    ;}
	.st50{fill:#62570F;}
	.st51{fill:#665A10;}
	.st52{fill:#695E10;}
	.st53{clip-path:url(#SVGID_14_);enable-background:new    ;}
	.st54{clip-path:url(#SVGID_16_);enable-background:new    ;}
	.st55{clip-path:url(#SVGID_18_);enable-background:new    ;}
	.st56{clip-path:url(#SVGID_20_);enable-background:new    ;}
	.st57{clip-path:url(#SVGID_22_);enable-background:new    ;}
	.st58{clip-path:url(#SVGID_24_);enable-background:new    ;}
	.st59{fill:#DCC073;}
	.st60{fill:#CCAA5E;}
	.st61{fill:#F8DD8A;}
	.st62{fill:#FFF4DE;}
	.st63{fill:#E9CB89;}
	.st64{fill:none;stroke:#515151;stroke-width:0.25;stroke-miterlimit:10;}
	.st65{fill:#515151;}
</style>
<g>
	<polyline class="st0" points="0.3,174.3 0.6,206.5 110,269.8 109.8,237.6 0.3,174.3 	"/>
	<g>
		<path class="st1" d="M117.2,281.2l-34.6,20c-5,2.9-11.2,2.6-15.9-0.8L54,291c-6-4.4-5.5-13.4,0.8-17.2l37.4-22.1
			c3.7-2.2,8.3-1.8,11.7,0.8l14.6,11.8C124.1,268.8,123.5,277.6,117.2,281.2z"/>
		<path class="st0" d="M44.2,288.4l27.2,15.8c1.9,1.1,4.2,1.1,6,0l2.7-1.6c1-0.6,1.1-2,0.2-2.6h0c-3.7-2.8-5.9-7.2-5.9-11.9v-45.6
			c0-0.6-0.3-1.1-0.8-1.4l-34-19.8c-1.1-0.6-2.4,0.1-2.4,1.4l0,53.6C37.2,281.3,39.9,285.9,44.2,288.4z"/>
	</g>
	<path class="st2" d="M45,211.3c0,0,7-5.1,12.9,0c5.9,5.1,4.7,15.1-1.1,16.7S45,211.3,45,211.3z"/>
	<path class="st3" d="M59.4,220.8c0-5.4-5.6-10.5-10.5-10.5s-8.1,3.9-7.6,9.3c0.5,6,5.7,10.2,10.6,10.2S59.4,226.1,59.4,220.8z"/>
	<polyline class="st4" points="0.2,174.2 109.8,237.6 221.3,173.2 0.2,45.4 	"/>
	<line class="st5" x1="0.3" y1="129.7" x2="54.2" y2="98.5"/>
	<path class="st6" d="M0.3,129.7"/>
	<polygon class="st7" points="71.1,383.1 35.7,280.7 73,150.3 258.7,257.6 258.7,366.6 258.6,472.1 240.6,482 	"/>
	<polygon class="st3" points="59.2,230.9 115.3,263.1 123.8,233.6 67.1,201.2 	"/>
	<path class="st2" d="M70.3,216.2c0,0,6.5-4.7,12.8,1c8.1,7.3,3.3,18.1-3.2,19C74,236,70.3,216.2,70.3,216.2z"/>
	<polygon class="st0" points="123.8,233.7 67.1,201.2 69.9,199.5 126.5,232.2 	"/>
	<path class="st8" d="M86.3,226.6c0-5.8-6-11.4-11.4-11.4s-8.7,4.3-8.3,10c0.5,6.5,6.2,11,11.5,11S86.3,232.4,86.3,226.6z"/>
	<polyline class="st9" points="518.5,107.1 258.7,257.6 221.2,388.1 258,491.9 275.9,482 555.5,323.6 556,194.7 518.5,107.1 	"/>
	<g>
		<polygon class="st10" points="322.3,285.1 457.6,206.9 457.6,338.7 322.3,416.9 		"/>
		<path class="st11" d="M456.1,209.5v128.4l-132.4,76.4V285.9L456.1,209.5 M459.1,204.3l-4.5,2.6l-132.4,76.5l-1.5,0.9v1.7v128.3
			v5.2l4.5-2.6l132.4-76.4l1.5-0.9v-1.7V209.5V204.3L459.1,204.3z"/>
	</g>
	<polygon class="st12" points="501.4,344.3 501.4,298.8 548.3,271.6 548.3,317.2 	"/>
	<polygon class="st13" points="518.5,107.1 258.7,257.6 73,150.3 332.9,0 	"/>
	<polygon class="st14" points="35.7,280.7 221.2,388.1 258,492 71.1,383.1 	"/>
	<polygon class="st3" points="68.7,267 105.4,288 110,272.3 72.9,251.2 	"/>
	<polygon class="st9" points="484.3,110.4 264.4,237.8 107.2,147 484.3,95.6 	"/>
	<polygon class="st13" points="484.3,95.6 264.4,222.9 107.2,132.1 327.2,5 	"/>
	<polygon class="st7" points="107.2,132.1 107.4,146.9 264.6,237.6 264.4,222.9 	"/>
	<g>
		<g>
			<g class="st15">
				<g class="st15">
					<defs>
						<path id="SVGID_1_" class="st15" d="M288.3,291.5l0.5,0.1c-0.3,0-0.5,0-0.8,0l-0.5-0.1C287.8,291.5,288,291.5,288.3,291.5z"/>
					</defs>
					<clipPath id="SVGID_2_">
						<use xlink:href="#SVGID_1_"  style="overflow:visible;"/>
					</clipPath>
					<g class="st16">
						<path class="st17" d="M288,291.5l-0.5-0.1c0.3,0,0.5,0,0.8,0l0.5,0.1C288.5,291.5,288.3,291.5,288,291.5"/>
					</g>
				</g>
				<g>
					
						<ellipse transform="matrix(0.1032 -0.9947 0.9947 0.1032 -37.4724 553.3693)" class="st18" cx="288.1" cy="297.5" rx="6" ry="5.1"/>
				</g>
				<g class="st15">
					<defs>
						<path id="SVGID_3_" class="st15" d="M287.5,303.4l-0.5-0.1c-2.5-0.3-4.5-2.6-4.5-5.6c-0.1-3.3,2.2-6.1,5-6.3l0.5,0.1
							c-2.8,0.2-5.1,3-5,6.3C283.1,300.8,285,303.1,287.5,303.4z"/>
					</defs>
					<clipPath id="SVGID_4_">
						<use xlink:href="#SVGID_3_"  style="overflow:visible;"/>
					</clipPath>
					<g class="st19">
						<path class="st20" d="M287.5,303.4l-0.5-0.1c-2.5-0.3-4.5-2.6-4.5-5.6c0-0.7,0.1-1.4,0.3-2.1l0.5,0.1
							c-0.2,0.7-0.3,1.4-0.3,2.1C283.1,300.8,285,303.1,287.5,303.4"/>
						<path class="st21" d="M283.3,295.7l-0.5-0.1c0.2-0.5,0.4-1,0.6-1.5l0.5,0.1C283.6,294.7,283.4,295.2,283.3,295.7"/>
						<path class="st22" d="M283.9,294.3l-0.5-0.1c0.3-0.5,0.6-0.9,1-1.3l0.5,0.1C284.5,293.4,284.2,293.8,283.9,294.3"/>
						<path class="st17" d="M284.9,293l-0.5-0.1c0.9-0.8,1.9-1.4,3.1-1.5l0.5,0.1C286.8,291.6,285.7,292.2,284.9,293"/>
					</g>
				</g>
			</g>
		</g>
	</g>
	<g>
		<g>
			<g class="st15">
				<g class="st15">
					<defs>
						<path id="SVGID_5_" class="st15" d="M301.4,284.9l0.5,0.1c-0.3,0-0.5,0-0.8,0l-0.5-0.1C300.9,284.8,301.1,284.8,301.4,284.9z"
							/>
					</defs>
					<clipPath id="SVGID_6_">
						<use xlink:href="#SVGID_5_"  style="overflow:visible;"/>
					</clipPath>
					<g class="st23">
						<path class="st24" d="M301.1,284.9l-0.5-0.1c0.3,0,0.5,0,0.8,0l0.5,0.1C301.6,284.9,301.4,284.9,301.1,284.9"/>
					</g>
				</g>
				<g>
					
						<ellipse transform="matrix(0.1032 -0.9947 0.9947 0.1032 -19.1253 560.489)" class="st25" cx="301.3" cy="290.9" rx="6" ry="5.1"/>
				</g>
				<g class="st15">
					<defs>
						<path id="SVGID_7_" class="st15" d="M300.7,296.8l-0.5-0.1c-2.5-0.3-4.4-2.6-4.5-5.6c-0.1-3.3,2.2-6.1,5-6.3l0.5,0.1
							c-2.8,0.2-5.1,3-5,6.3C296.2,294.2,298.2,296.5,300.7,296.8z"/>
					</defs>
					<clipPath id="SVGID_8_">
						<use xlink:href="#SVGID_7_"  style="overflow:visible;"/>
					</clipPath>
					<g class="st26">
						<path class="st27" d="M300.7,296.8l-0.5-0.1c-2.5-0.3-4.4-2.6-4.5-5.6c0-0.7,0.1-1.4,0.3-2.1l0.5,0.1
							c-0.2,0.7-0.3,1.4-0.3,2.1C296.2,294.2,298.2,296.5,300.7,296.8"/>
						<path class="st28" d="M296.4,289.1l-0.5-0.1c0.2-0.5,0.4-1,0.6-1.5l0.5,0.1C296.8,288.1,296.5,288.6,296.4,289.1"/>
						<path class="st29" d="M297,287.7l-0.5-0.1c0.3-0.5,0.6-0.9,1-1.3l0.5,0.1C297.6,286.8,297.3,287.2,297,287.7"/>
						<path class="st24" d="M298,286.4l-0.5-0.1c0.9-0.8,1.9-1.4,3.1-1.5l0.5,0.1C299.9,285,298.8,285.5,298,286.4"/>
					</g>
				</g>
			</g>
		</g>
	</g>
	<g>
		<polygon class="st30" points="132.4,292.2 148.2,218.4 235.4,269.2 219.8,342.9 		"/>
		<path class="st31" d="M149.2,220.8l84.5,49.2l-14.9,70.6l-84.7-49.1L149.2,220.8 M147.1,216.1l-16.4,76.8l90.1,52.3l16.2-76.8
			L147.1,216.1L147.1,216.1z"/>
	</g>
	<polyline class="st32" points="123.5,296.8 213.9,349.1 221.2,345.2 128.7,291.5 	"/>
	<polygon class="st7" points="213.9,349.1 238.8,262.9 221.2,345.2 	"/>
	<polygon class="st32" points="123.5,296.8 147.1,216.1 130.7,292.9 	"/>
	<path class="st33" d="M99.3,274.8c0,0,2.8-2,5.1,0c2.3,2,1.9,6-0.5,6.6C101.6,282.1,99.3,274.8,99.3,274.8z"/>
	<path class="st34" d="M105,278.6c0-2.1-2.2-4.2-4.2-4.2c-1.9,0-3.2,1.6-3,3.7c0.2,2.4,2.3,4,4.2,4C103.9,282.1,105,280.7,105,278.6
		z"/>
	<path class="st35" d="M85.7,267.1c0,0,2.8-2.1,5.1,0c3,2.7,1.1,6.4-1.2,7.1C84.6,275.6,85.7,267.1,85.7,267.1z"/>
	<path class="st36" d="M91.4,270.9c0-2.1-2.2-4.2-4.2-4.2s-3.2,1.6-3,3.7c0.2,2.4,2.3,4,4.2,4C90.4,274.4,91.4,273,91.4,270.9z"/>
	<path class="st37" d="M74,260.4c0,0,2.8-2,5.1,0c2.3,2,1.9,6-0.5,6.6C76.3,267.7,74,260.4,74,260.4z"/>
	<path class="st38" d="M79.7,264.1c0-2.1-2.2-4.2-4.2-4.2c-1.9,0-3.2,1.6-3,3.7c0.2,2.4,2.3,4,4.2,4S79.7,266.3,79.7,264.1z"/>
	<polygon class="st0" points="110,272.4 72.9,251.2 74.7,250.1 111.8,271.4 	"/>
	<polygon class="st2" points="105.4,288 110,272.5 111.8,271.4 107,287.1 	"/>
	<polygon class="st2" points="115.5,263 123.9,233.8 126.5,232.2 118,261.7 	"/>
	<g>
		<polygon class="st9" points="221.7,87.5 333.1,151.7 341,142.9 230.7,79.1 		"/>
		<polygon class="st39" points="341,142.9 341,147.2 333.1,151.7 		"/>
	</g>
	<g>
		<polygon class="st9" points="236.2,79.2 347.6,143.4 355.5,134.5 245.2,70.8 		"/>
		<polygon class="st39" points="355.5,134.5 355.5,138.9 347.6,143.4 		"/>
	</g>
	<g>
		<polygon class="st9" points="250.8,70.3 362.2,134.5 370.1,125.7 259.8,61.9 		"/>
		<polygon class="st39" points="370.1,125.7 370.1,130 362.2,134.5 		"/>
	</g>
	<g>
		<polygon class="st9" points="265.3,61.7 376.7,126 384.6,117.1 274.3,53.3 		"/>
		<polygon class="st39" points="384.6,117.1 384.6,121.5 376.7,126 		"/>
	</g>
	<g>
		<polygon class="st9" points="279.9,52.8 391.3,117.1 399.2,108.2 288.9,44.4 		"/>
		<polygon class="st39" points="399.2,108.2 399.2,112.6 391.3,117.1 		"/>
	</g>
	<g>
		<polygon class="st9" points="294.4,44.3 405.8,108.6 413.7,99.7 303.4,35.9 		"/>
		<polygon class="st39" points="413.7,99.7 413.7,104.1 405.8,108.6 		"/>
	</g>
	<g>
		<polygon class="st9" points="308.9,35.4 420.4,99.7 428.3,90.8 318,27 		"/>
		<polygon class="st39" points="428.3,90.8 428.3,95.2 420.4,99.7 		"/>
	</g>
	<g>
		<path class="st2" d="M95.6,229.9c0,0,6.5-4.7,12.8,1c8.1,7.3,3.3,18.1-3.2,19C99.3,249.7,95.6,229.9,95.6,229.9z"/>
		<path class="st8" d="M111.6,240.4c0-5.8-6-11.4-11.4-11.4c-5.3,0-8.7,4.3-8.3,10c0.5,6.5,6.2,11,11.5,11
			C108.8,250.1,111.6,246.2,111.6,240.4z"/>
		<path class="st40" d="M100.8,232.9c-3.4,0-5.5,2.7-5.2,6.3"/>
		<path class="st41" d="M106.9,236.7c-1.4-2.1-3.8-3.7-6.1-3.7"/>
		<path class="st42" d="M107.2,243.6c0.5-1,0.7-2.2,0.7-3.5c0-1.2-0.4-2.4-1.1-3.4"/>
		<path class="st2" d="M103.3,239.7c0-0.9-1-1.8-1.8-1.8s-1.4,0.7-1.3,1.6c0.1,1,1,1.8,1.8,1.8S103.3,240.6,103.3,239.7z"/>
		<polygon class="st2" points="102.3,238.9 100.2,235.3 100.8,239.6 		"/>
	</g>
	<path class="st40" d="M75.5,219.2c-3.4,0-5.5,2.7-5.2,6.3"/>
	<path class="st41" d="M81.6,222.9c-1.4-2.1-3.8-3.7-6.1-3.7"/>
	<path class="st42" d="M81.9,229.9c0.5-1,0.7-2.2,0.7-3.5c0-1.2-0.4-2.4-1.1-3.4"/>
	<path class="st2" d="M78.1,226c0-0.9-1-1.8-1.8-1.8s-1.4,0.7-1.3,1.6c0.1,1,1,1.8,1.8,1.8S78.1,226.9,78.1,226z"/>
	<polygon class="st2" points="77,225.1 74.9,221.5 75.5,225.8 	"/>
	<g>
		<polyline class="st43" points="170.4,96.6 167,128.8 201.4,128.8 198,96.6 		"/>
		<ellipse class="st44" cx="184.2" cy="96.6" rx="13.8" ry="7.9"/>
		<ellipse class="st45" cx="184.2" cy="128.8" rx="17.2" ry="9.9"/>
	</g>
	<g>
		<g>
			<g class="st15">
				<g class="st15">
					<defs>
						<path id="SVGID_9_" class="st15" d="M543.9,277.6l0.1,0C544,277.6,543.9,277.6,543.9,277.6l-0.2,0
							C543.8,277.6,543.9,277.6,543.9,277.6z"/>
					</defs>
					<clipPath id="SVGID_10_">
						<use xlink:href="#SVGID_9_"  style="overflow:visible;"/>
					</clipPath>
					<g class="st46">
						<path class="st47" d="M543.9,277.6l-0.1,0C543.8,277.6,543.9,277.6,543.9,277.6l0.2,0C544,277.6,543.9,277.6,543.9,277.6"/>
					</g>
				</g>
				<g>
					<path class="st48" d="M543.9,277.6c0.6,0,1.2,0.5,1.2,1.3c0,0.7-0.5,1.4-1.2,1.4c-0.7,0-1.2-0.5-1.2-1.3
						C542.7,278.3,543.2,277.6,543.9,277.6z"/>
				</g>
				<g class="st15">
					<defs>
						<path id="SVGID_11_" class="st15" d="M543.7,280.3l-0.1,0c-0.6-0.1-1-0.6-1-1.3c0-0.8,0.5-1.4,1.2-1.4l0.1,0
							c-0.7,0-1.2,0.7-1.2,1.4C542.7,279.7,543.1,280.2,543.7,280.3z"/>
					</defs>
					<clipPath id="SVGID_12_">
						<use xlink:href="#SVGID_11_"  style="overflow:visible;"/>
					</clipPath>
					<g class="st49">
						<path class="st50" d="M543.7,280.3l-0.1,0c-0.6-0.1-1-0.6-1-1.3c0-0.2,0-0.3,0.1-0.5l0.1,0c0,0.1-0.1,0.3-0.1,0.5
							C542.7,279.7,543.1,280.2,543.7,280.3"/>
						<path class="st51" d="M542.8,278.6l-0.1,0c0-0.1,0.1-0.2,0.1-0.3l0.1,0C542.8,278.3,542.8,278.4,542.8,278.6"/>
						<path class="st52" d="M542.9,278.2l-0.1,0c0.1-0.1,0.1-0.2,0.2-0.3l0.1,0C543,278,543,278.1,542.9,278.2"/>
						<path class="st47" d="M543.1,278l-0.1,0c0.2-0.2,0.5-0.3,0.8-0.4l0.1,0C543.6,277.6,543.3,277.8,543.1,278"/>
					</g>
				</g>
			</g>
		</g>
	</g>
	<g>
		<g>
			<g class="st15">
				<g class="st15">
					<defs>
						<path id="SVGID_13_" class="st15" d="M543.9,313.9l0.1,0C544,313.9,543.9,313.9,543.9,313.9l-0.2,0
							C543.8,313.9,543.9,313.9,543.9,313.9z"/>
					</defs>
					<clipPath id="SVGID_14_">
						<use xlink:href="#SVGID_13_"  style="overflow:visible;"/>
					</clipPath>
					<g class="st53">
						<path class="st47" d="M543.9,313.9l-0.1,0C543.8,313.9,543.9,313.9,543.9,313.9l0.2,0C544,313.9,543.9,313.9,543.9,313.9"/>
					</g>
				</g>
				<g>
					<path class="st48" d="M543.9,313.9c0.6,0,1.2,0.5,1.2,1.3c0,0.7-0.5,1.4-1.2,1.4c-0.7,0-1.2-0.5-1.2-1.3
						C542.7,314.6,543.2,313.9,543.9,313.9z"/>
				</g>
				<g class="st15">
					<defs>
						<path id="SVGID_15_" class="st15" d="M543.7,316.6l-0.1,0c-0.6-0.1-1-0.6-1-1.3c0-0.8,0.5-1.4,1.2-1.4l0.1,0
							c-0.7,0-1.2,0.7-1.2,1.4C542.7,316,543.1,316.5,543.7,316.6z"/>
					</defs>
					<clipPath id="SVGID_16_">
						<use xlink:href="#SVGID_15_"  style="overflow:visible;"/>
					</clipPath>
					<g class="st54">
						<path class="st50" d="M543.7,316.6l-0.1,0c-0.6-0.1-1-0.6-1-1.3c0-0.2,0-0.3,0.1-0.5l0.1,0c0,0.1-0.1,0.3-0.1,0.5
							C542.7,316,543.1,316.5,543.7,316.6"/>
						<path class="st51" d="M542.8,314.9l-0.1,0c0-0.1,0.1-0.2,0.1-0.3l0.1,0C542.8,314.6,542.8,314.8,542.8,314.9"/>
						<path class="st52" d="M542.9,314.5l-0.1,0c0.1-0.1,0.1-0.2,0.2-0.3l0.1,0C543,314.4,543,314.4,542.9,314.5"/>
						<path class="st47" d="M543.1,314.3l-0.1,0c0.2-0.2,0.5-0.3,0.8-0.4l0.1,0C543.6,313.9,543.3,314.1,543.1,314.3"/>
					</g>
				</g>
			</g>
		</g>
	</g>
	<g>
		<g>
			<g class="st15">
				<g class="st15">
					<defs>
						<path id="SVGID_17_" class="st15" d="M506.3,299.6l0.1,0C506.3,299.6,506.2,299.6,506.3,299.6l-0.2,0
							C506.1,299.6,506.2,299.6,506.3,299.6z"/>
					</defs>
					<clipPath id="SVGID_18_">
						<use xlink:href="#SVGID_17_"  style="overflow:visible;"/>
					</clipPath>
					<g class="st55">
						<path class="st47" d="M506.2,299.6l-0.1,0C506.1,299.6,506.2,299.6,506.2,299.6l0.2,0C506.3,299.6,506.2,299.6,506.2,299.6"/>
					</g>
				</g>
				<g>
					
						<ellipse transform="matrix(0.1206 -0.9927 0.9927 0.1206 146.3784 767.1984)" class="st48" cx="506.2" cy="301" rx="1.4" ry="1.2"/>
				</g>
				<g class="st15">
					<defs>
						<path id="SVGID_19_" class="st15" d="M506,302.3l-0.1,0c-0.6-0.1-1-0.6-1-1.3c0-0.7,0.5-1.4,1.2-1.4l0.1,0
							c-0.6,0-1.2,0.7-1.2,1.4C505,301.7,505.5,302.3,506,302.3z"/>
					</defs>
					<clipPath id="SVGID_20_">
						<use xlink:href="#SVGID_19_"  style="overflow:visible;"/>
					</clipPath>
					<g class="st56">
						<path class="st50" d="M506,302.3l-0.1,0c-0.6-0.1-1-0.6-1-1.3c0-0.2,0-0.3,0.1-0.5l0.1,0c0,0.1-0.1,0.3-0.1,0.5
							C505,301.7,505.5,302.3,506,302.3"/>
						<path class="st51" d="M505.1,300.6l-0.1,0c0-0.1,0.1-0.2,0.1-0.3l0.1,0C505.2,300.4,505.1,300.5,505.1,300.6"/>
						<path class="st52" d="M505.2,300.3l-0.1,0c0.1-0.1,0.1-0.2,0.2-0.3l0.1,0C505.3,300.1,505.3,300.2,505.2,300.3"/>
						<path class="st47" d="M505.4,300l-0.1,0c0.2-0.2,0.5-0.4,0.8-0.4l0.1,0C505.9,299.6,505.6,299.8,505.4,300"/>
					</g>
				</g>
			</g>
		</g>
	</g>
	<g>
		<g>
			<g class="st15">
				<g class="st15">
					<defs>
						<path id="SVGID_21_" class="st15" d="M506.3,335.9l0.1,0C506.3,335.9,506.2,335.9,506.3,335.9l-0.2,0
							C506.1,335.9,506.2,335.9,506.3,335.9z"/>
					</defs>
					<clipPath id="SVGID_22_">
						<use xlink:href="#SVGID_21_"  style="overflow:visible;"/>
					</clipPath>
					<g class="st57">
						<path class="st47" d="M506.2,335.9l-0.1,0C506.1,335.9,506.2,335.9,506.2,335.9l0.2,0C506.3,335.9,506.2,335.9,506.2,335.9"/>
					</g>
				</g>
				<g>
					<path class="st48" d="M506.2,335.9c0.6,0,1.2,0.5,1.2,1.3c0,0.7-0.5,1.4-1.2,1.4c-0.6,0-1.2-0.5-1.2-1.3
						C505,336.6,505.5,336,506.2,335.9z"/>
				</g>
				<g class="st15">
					<defs>
						<path id="SVGID_23_" class="st15" d="M506,338.6l-0.1,0c-0.6-0.1-1-0.6-1-1.3c0-0.7,0.5-1.4,1.2-1.4l0.1,0
							c-0.6,0-1.2,0.7-1.2,1.4C505,338,505.5,338.6,506,338.6z"/>
					</defs>
					<clipPath id="SVGID_24_">
						<use xlink:href="#SVGID_23_"  style="overflow:visible;"/>
					</clipPath>
					<g class="st58">
						<path class="st50" d="M506,338.6l-0.1,0c-0.6-0.1-1-0.6-1-1.3c0-0.2,0-0.3,0.1-0.5l0.1,0c0,0.1-0.1,0.3-0.1,0.5
							C505,338,505.5,338.6,506,338.6"/>
						<path class="st51" d="M505.1,336.9l-0.1,0c0-0.1,0.1-0.2,0.1-0.3l0.1,0C505.2,336.7,505.1,336.8,505.1,336.9"/>
						<path class="st52" d="M505.2,336.6l-0.1,0c0.1-0.1,0.1-0.2,0.2-0.3l0.1,0C505.3,336.4,505.3,336.5,505.2,336.6"/>
						<path class="st47" d="M505.4,336.3l-0.1,0c0.2-0.2,0.5-0.4,0.8-0.4l0.1,0C505.9,335.9,505.6,336.1,505.4,336.3"/>
					</g>
				</g>
			</g>
		</g>
	</g>
	<polyline class="st4" points="575.7,514.5 323.8,363 323.8,285.9 367.9,260.3 808.9,514.6 	"/>
	<g>
		<path class="st1" d="M487.6,492.6l-34.6,20c-5,2.9-11.2,2.6-15.9-0.8l-12.8-9.4c-6-4.4-5.5-13.4,0.8-17.2l37.4-22.1
			c3.7-2.2,8.3-1.8,11.7,0.8l14.6,11.8C494.6,480.2,493.9,489,487.6,492.6z"/>
		<path class="st0" d="M414.6,499.8l27.2,15.8c1.9,1.1,4.2,1.1,6,0l2.7-1.6c1-0.6,1.1-2,0.2-2.6l0,0c-3.7-2.8-5.9-7.2-5.9-11.9
			v-45.6c0-0.6-0.3-1.1-0.8-1.4l-34-19.8c-1.1-0.6-2.4,0.1-2.4,1.4l0,53.6C407.7,492.7,410.3,497.3,414.6,499.8z"/>
	</g>
	<polyline class="st0" points="587.5,514.6 323.8,363 323.7,394.9 533,514.5 	"/>
	<g>
		<path class="st2" d="M457.1,455.1c0,0,7-5.1,12.9,0c5.9,5.1,4.7,15.1-1.1,16.7C462.9,473.5,457.1,455.1,457.1,455.1z"/>
		<path class="st3" d="M471.4,464.6c0-5.4-5.6-10.5-10.5-10.5s-8.1,3.9-7.6,9.3c0.5,6,5.7,10.2,10.6,10.2
			C468.8,473.6,471.4,469.9,471.4,464.6z"/>
	</g>
	<g>
		<path class="st2" d="M384.6,410.6c0,0,7-5.1,12.9,0c5.9,5.1,4.7,15.1-1.1,16.7C390.5,429.1,384.6,410.6,384.6,410.6z"/>
		<path class="st3" d="M399,420.1c0-5.4-5.6-10.5-10.5-10.5s-8.1,3.9-7.6,9.3c0.5,6,5.7,10.2,10.6,10.2
			C396.4,429.1,399,425.5,399,420.1z"/>
	</g>
	<g>
		<path class="st2" d="M534.1,496.1c0,0,7-5.1,12.9,0c5.9,5.1,4.7,15.1-1.1,16.7C540,514.5,534.1,496.1,534.1,496.1z"/>
		<path class="st3" d="M548.5,505.6c0-5.4-5.6-10.5-10.5-10.5c-4.9,0-8.1,3.9-7.6,9.3c0.5,6,5.7,10.2,10.6,10.2
			C545.9,514.5,548.5,510.9,548.5,505.6z"/>
	</g>
	<line class="st5" x1="404.3" y1="393" x2="483.1" y2="347.6"/>
	<line class="st5" x1="552.9" y1="479.1" x2="631.6" y2="433.6"/>
	<g>
		<path class="st2" d="M325.2,371.4c-0.5-0.4-1-0.8-1.5-1c0,0.4,0.1,0.8,0.1,1.2c0,3-0.2,6,0.1,9c0.2,2.5,0.4,5.1,0.1,7.6
			c0,0,0,0,0,0C329.9,386.5,331,376.5,325.2,371.4z"/>
		<path class="st3" d="M323.7,374.2c0,2.1,0,4.2,0.2,6.3c0.2,2.5,0.4,5.1,0.1,7.6c1.7-1.6,2.7-4.1,2.7-7.2
			C326.7,378.5,325.5,376.1,323.7,374.2z"/>
	</g>
	<g>
		<polygon class="st59" points="628.8,509.2 587.8,485.6 587.8,438.2 628.8,461.8 		"/>
		<polygon class="st60" points="669.8,485.5 628.8,509.2 628.8,461.8 669.7,438.2 		"/>
		<polygon class="st61" points="628.8,414.4 587.8,438.2 628.8,461.8 669.7,438.2 		"/>
		<polygon class="st62" points="610.8,424.7 605.1,428 646,451.9 646.2,464.5 647.3,463 648.1,463.4 648.5,462.1 649.4,462.6 
			649.9,461.4 650.7,461.8 651.1,460.9 651.7,461.2 651.7,448.7 		"/>
		<polygon class="st62" points="645.5,423.9 651.3,427.2 610.4,451.2 610.3,463.8 609.2,462.2 608.4,462.7 608,461.4 607.1,461.9 
			606.6,460.7 605.8,461.1 605.4,460.3 604.7,460.5 604.7,448 		"/>
		<polygon class="st63" points="617.4,491.1 596.6,479.2 596.6,465.2 617.4,477.1 		"/>
		<polygon class="st64" points="667.8,484.2 654.7,491.7 654.7,476.6 667.8,469.1 		"/>
		<polygon class="st65" points="660.9,488 660.9,478.7 663.7,479.4 663.7,486.3 		"/>
		<polygon class="st65" points="659.1,482.1 665.5,478.4 662.3,476.2 		"/>
	</g>
</g>
</svg>
