<svg xmlns="http://www.w3.org/2000/svg" xmlns:xlink="http://www.w3.org/1999/xlink" viewBox="0 0 1431.22 913.25"><defs><style>.cls-1,.cls-13,.cls-65,.cls-7{fill:none;}.cls-2{fill:#162b33;}.cls-3{fill:#b3c7d5;}.cls-4{fill:#8c9daa;}.cls-5{fill:#c4d8e4;}.cls-6{fill:#20363d;}.cls-7{stroke:#2e4547;}.cls-13,.cls-41,.cls-42,.cls-43,.cls-65,.cls-7,.cls-9{stroke-miterlimit:10;}.cls-8{fill:#e9de39;}.cls-39,.cls-41,.cls-42,.cls-43,.cls-9{fill:#fff;}.cls-9{stroke:#8c9daa;}.cls-65,.cls-9{stroke-width:0.25px;}.cls-10{fill:#d5c017;}.cls-11{fill:#594f04;}.cls-12{fill:#3f3602;}.cls-13{stroke:#bca71d;}.cls-14{fill:#f6f22f;}.cls-15{fill:#c3ad1d;}.cls-16{isolation:isolate;}.cls-17{clip-path:url(#clip-path);}.cls-18{fill:#943c00;}.cls-19{fill:#ed6000;}.cls-20{clip-path:url(#clip-path-2);}.cls-21{fill:#853600;}.cls-22{fill:#8a3800;}.cls-23{fill:#8f3a00;}.cls-24{clip-path:url(#clip-path-3);}.cls-25{fill:#949494;}.cls-26{fill:#ededed;}.cls-27{clip-path:url(#clip-path-4);}.cls-28{fill:#858585;}.cls-29{fill:#8a8a8a;}.cls-30{fill:#8f8f8f;}.cls-31{fill:#00bab2;}.cls-32{fill:#81c7c2;}.cls-33{fill:#9f8a15;}.cls-34{fill:#0084bc;}.cls-35{fill:#00a6ff;}.cls-36{fill:#c10000;}.cls-37{fill:#f00000;}.cls-38{fill:#cacaca;}.cls-40{fill:#b4a01c;}.cls-41{stroke:#ff5a00;}.cls-41,.cls-42,.cls-43{stroke-linecap:round;stroke-width:0.75px;}.cls-42{stroke:#ffec00;}.cls-43{stroke:#46ff00;}.cls-44{fill:#ff6700;opacity:0.9;}.cls-45{fill:#ff801a;}.cls-46{fill:#e86100;}.cls-47{clip-path:url(#clip-path-5);}.cls-48{fill:#6d6111;}.cls-49{fill:#af9b1b;}.cls-50{clip-path:url(#clip-path-6);}.cls-51{fill:#62570f;}.cls-52{fill:#665a10;}.cls-53{fill:#695e10;}.cls-54{clip-path:url(#clip-path-7);}.cls-55{clip-path:url(#clip-path-8);}.cls-56{clip-path:url(#clip-path-9);}.cls-57{clip-path:url(#clip-path-10);}.cls-58{clip-path:url(#clip-path-11);}.cls-59{clip-path:url(#clip-path-12);}.cls-60{fill:#dcc073;}.cls-61{fill:#ccaa5e;}.cls-62{fill:#f8dd8a;}.cls-63{fill:#fff4de;}.cls-64{fill:#e9cb89;}.cls-65{stroke:#515151;}.cls-66{fill:#515151;}</style><clipPath id="clip-path"><path class="cls-1" d="M698.21,483.16l.51,0a5.06,5.06,0,0,0-.78,0l-.5-.05A4,4,0,0,1,698.21,483.16Z"/></clipPath><clipPath id="clip-path-2"><path class="cls-1" d="M697.48,495.07,697,495c-2.48-.26-4.44-2.58-4.52-5.56-.09-3.28,2.15-6.1,5-6.3l.5.05c-2.84.2-5.07,3-5,6.3C693,492.48,695,494.81,697.48,495.07Z"/></clipPath><clipPath id="clip-path-3"><path class="cls-1" d="M711.34,476.55l.5.06a4.92,4.92,0,0,0-.77,0l-.51,0A5,5,0,0,1,711.34,476.55Z"/></clipPath><clipPath id="clip-path-4"><path class="cls-1" d="M710.6,488.46l-.5,0c-2.49-.26-4.45-2.6-4.53-5.57-.08-3.28,2.15-6.1,5-6.3l.51,0c-2.85.2-5.08,3-5,6.3C706.15,485.86,708.11,488.2,710.6,488.46Z"/></clipPath><clipPath id="clip-path-5"><path class="cls-1" d="M953.88,469.27h0Z"/></clipPath><clipPath id="clip-path-6"><path class="cls-1" d="M953.65,472h-.1a1.23,1.23,0,0,1-1-1.29,1.34,1.34,0,0,1,1.16-1.41h.1a1.34,1.34,0,0,0-1.16,1.41A1.23,1.23,0,0,0,953.65,472Z"/></clipPath><clipPath id="clip-path-7"><path class="cls-1" d="M953.88,505.58h0Z"/></clipPath><clipPath id="clip-path-8"><path class="cls-1" d="M953.65,508.29h-.1a1.24,1.24,0,0,1-1-1.29,1.35,1.35,0,0,1,1.16-1.42h.1a1.36,1.36,0,0,0-1.16,1.42A1.24,1.24,0,0,0,953.65,508.29Z"/></clipPath><clipPath id="clip-path-9"><path class="cls-1" d="M916.21,491.3l.1,0h-.1Z"/></clipPath><clipPath id="clip-path-10"><path class="cls-1" d="M916,494l-.1,0a1.23,1.23,0,0,1-1-1.28A1.34,1.34,0,0,1,916,491.3h.1a1.34,1.34,0,0,0-1.16,1.41A1.25,1.25,0,0,0,916,494Z"/></clipPath><clipPath id="clip-path-11"><path class="cls-1" d="M916.21,527.61h-.08l-.1,0Z"/></clipPath><clipPath id="clip-path-12"><path class="cls-1" d="M916,530.31h-.1a1.24,1.24,0,0,1-1-1.29A1.35,1.35,0,0,1,916,527.6l.1,0A1.33,1.33,0,0,0,915,529,1.24,1.24,0,0,0,916,530.31Z"/></clipPath></defs><title>Asset 2</title><g id="Layer_2" data-name="Layer 2"><g id="Layer_1-2" data-name="Layer 1"><path class="cls-2" d="M340.49,362l-34.56,20a14.57,14.57,0,0,1-15.86-.84l-12.83-9.37a10.29,10.29,0,0,1,.84-17.17l37.43-22.1a10.3,10.3,0,0,1,11.68.85l14.6,11.75A10.28,10.28,0,0,1,340.49,362Z"/><path class="cls-3" d="M267.48,369.15,294.71,385a6,6,0,0,0,6,0l2.72-1.58a1.59,1.59,0,0,0,.17-2.64h0a14.9,14.9,0,0,1-5.91-11.87V323.25a1.59,1.59,0,0,0-.79-1.38l-34-19.77a1.59,1.59,0,0,0-2.39,1.38v53.59A14,14,0,0,0,267.48,369.15Z"/><path class="cls-2" d="M527.15,472.88l-34.55,20a14.55,14.55,0,0,1-15.86-.85l-12.84-9.37a10.28,10.28,0,0,1,.84-17.16l37.44-22.1a10.28,10.28,0,0,1,11.67.84L528.45,456A10.29,10.29,0,0,1,527.15,472.88Z"/><path class="cls-3" d="M454.14,480l27.23,15.8a6,6,0,0,0,6,0l2.73-1.57a1.6,1.6,0,0,0,.16-2.65h0a14.87,14.87,0,0,1-5.91-11.87V434.13a1.58,1.58,0,0,0-.79-1.37l-34-19.77a1.59,1.59,0,0,0-2.39,1.37V468A14,14,0,0,0,454.14,480Z"/><polyline class="cls-3" points="519.92 461.46 519.78 429.32 0.2 128.8 0 160.75"/><path class="cls-4" d="M455,403s7-5.12,12.87,0,4.75,15.06-1.14,16.74S455,403,455,403Z"/><path class="cls-5" d="M469.31,412.46c0-5.35-5.57-10.48-10.49-10.48s-8.07,3.92-7.63,9.25a11.13,11.13,0,0,0,10.59,10.2C466.69,421.43,469.31,417.81,469.31,412.46Z"/><polygon class="cls-6" points="0.2 128.8 519.78 429.32 631.27 364.92 0.2 0 0.2 128.8"/><path class="cls-4" d="M384.68,363.58s7-5.12,12.86,0,4.75,15.06-1.14,16.74S384.68,363.58,384.68,363.58Z"/><path class="cls-5" d="M399,373.08c0-5.35-5.58-10.48-10.49-10.48s-8.08,3.92-7.64,9.26a11.14,11.14,0,0,0,10.6,10.19C396.42,382.05,399,378.43,399,373.08Z"/><path class="cls-4" d="M306.63,319.17s7-5.12,12.87,0,4.74,15.06-1.14,16.74S306.63,319.17,306.63,319.17Z"/><path class="cls-5" d="M321,328.67c0-5.35-5.58-10.48-10.49-10.48s-8.07,3.92-7.64,9.26a11.16,11.16,0,0,0,10.6,10.2C318.37,337.65,321,334,321,328.67Z"/><line class="cls-7" x1="236.97" y1="249.79" x2="315.74" y2="204.29"/><line class="cls-7" x1="385.39" y1="335.66" x2="464.16" y2="290.17"/><polygon class="cls-8" points="481 574.79 445.67 472.36 482.91 341.96 668.62 449.25 668.62 558.24 668.51 663.82 650.58 673.64 481 574.79"/><polygon class="cls-5" points="469.18 422.6 525.26 454.83 533.72 425.26 477.09 392.85 469.18 422.6"/><path class="cls-4" d="M480.22,407.88s6.52-4.7,12.76,1c8.07,7.34,3.28,18.12-3.19,19C484,427.68,480.22,407.88,480.22,407.88Z"/><polygon class="cls-3" points="533.72 425.39 477.09 392.85 479.83 391.22 536.43 423.88 533.72 425.39"/><path class="cls-9" d="M496.26,418.33c0-5.8-6-11.36-11.36-11.36s-8.75,4.25-8.27,10c.52,6.47,6.15,11.05,11.47,11.05S496.26,424.12,496.26,418.33Z"/><polyline class="cls-10" points="928.48 298.77 668.62 449.25 631.1 579.74 667.92 683.55 685.85 673.73 965.49 515.31 965.97 386.37 928.48 298.77"/><polygon class="cls-11" points="732.2 476.74 867.57 398.55 867.57 530.36 732.2 608.54 732.2 476.74"/><path class="cls-12" d="M866.07,401.15V529.5L733.7,605.94V477.6l132.37-76.45m3-5.2-4.5,2.6L732.2,475l-1.5.87V611.14l4.5-2.6,132.37-76.45,1.5-.86V396Z"/><polygon class="cls-13" points="911.32 535.96 911.32 490.44 958.27 463.32 958.27 508.85 911.32 535.96"/><polygon class="cls-14" points="928.48 298.77 668.62 449.25 482.91 341.96 742.82 191.68 928.48 298.77"/><polygon class="cls-15" points="445.67 472.36 631.1 579.74 667.9 683.72 481 574.79 445.67 472.36"/><polygon class="cls-5" points="478.65 458.65 515.35 479.66 519.92 464.02 482.87 442.88 478.65 458.65"/><polygon class="cls-10" points="894.2 302.11 674.32 429.44 517.19 338.65 894.2 287.25 894.2 302.11"/><polygon class="cls-14" points="894.2 287.25 674.32 414.57 517.19 323.79 737.11 196.63 894.2 287.25"/><polygon class="cls-8" points="517.19 323.79 517.31 338.58 674.52 429.32 674.32 414.57 517.19 323.79"/><g class="cls-16"><g class="cls-16"><g class="cls-17"><g class="cls-16"><path class="cls-18" d="M697.94,483.2l-.5-.05a4,4,0,0,1,.77,0l.51,0a5.06,5.06,0,0,0-.78,0"/></g></g></g><path class="cls-19" d="M697.94,483.2c2.84-.2,5.21,2.3,5.3,5.58s-2.15,6.1-5,6.3-5.21-2.3-5.3-5.58S695.1,483.4,697.94,483.2Z"/><g class="cls-16"><g class="cls-20"><g class="cls-16"><path class="cls-21" d="M697.48,495.07,697,495c-2.48-.26-4.44-2.58-4.52-5.56a7,7,0,0,1,.27-2.11l.5.06a6.92,6.92,0,0,0-.27,2.1c.08,3,2,5.31,4.53,5.57"/><path class="cls-22" d="M693.22,487.4l-.5-.06a6.47,6.47,0,0,1,.62-1.45l.5.05a6.54,6.54,0,0,0-.62,1.46"/><path class="cls-23" d="M693.84,485.94l-.5-.05a5.79,5.79,0,0,1,1-1.26l.5.05a6.39,6.39,0,0,0-1,1.26"/><path class="cls-18" d="M694.81,484.68l-.5-.05a4.91,4.91,0,0,1,3.13-1.48l.5.05a4.91,4.91,0,0,0-3.13,1.48"/></g></g></g></g><g class="cls-16"><g class="cls-16"><g class="cls-24"><g class="cls-16"><path class="cls-25" d="M711.07,476.59l-.51,0a5,5,0,0,1,.78,0l.5.06a4.92,4.92,0,0,0-.77,0"/></g></g></g><path class="cls-26" d="M711.07,476.59c2.83-.19,5.21,2.3,5.29,5.58s-2.15,6.1-5,6.3-5.22-2.3-5.31-5.58S708.22,476.79,711.07,476.59Z"/><g class="cls-16"><g class="cls-27"><g class="cls-16"><path class="cls-28" d="M710.6,488.46l-.5,0c-2.49-.26-4.45-2.6-4.53-5.57a7,7,0,0,1,.27-2.11l.51,0a7,7,0,0,0-.28,2.11c.08,3,2,5.31,4.53,5.57"/><path class="cls-29" d="M706.35,480.78l-.51,0a6.47,6.47,0,0,1,.62-1.45l.51.05a6.67,6.67,0,0,0-.62,1.45"/><path class="cls-30" d="M707,479.33l-.51-.05a6,6,0,0,1,1-1.26l.5.05a6,6,0,0,0-1,1.26"/><path class="cls-25" d="M707.93,478.07l-.5-.05a5,5,0,0,1,3.13-1.48l.51,0a5,5,0,0,0-3.14,1.48"/></g></g></g></g><polygon class="cls-31" points="542.35 483.85 558.11 410.1 645.3 460.83 629.76 534.53 542.35 483.85"/><path class="cls-32" d="M559.15,412.43l84.46,49.16L628.72,532.2l-84.67-49.1,15.1-70.67m-2.07-4.67L540.66,484.6l90.14,52.27L647,460.08l-89.91-52.32Z"/><polyline class="cls-33" points="533.43 488.46 623.88 540.78 631.1 536.87 538.67 483.16"/><polygon class="cls-8" points="623.87 540.78 648.78 454.63 631.1 536.87 623.87 540.78"/><polygon class="cls-33" points="533.43 488.51 557.08 407.76 540.66 484.6 533.43 488.51"/><path class="cls-34" d="M509.22,466.47s2.76-2,5.09,0,1.88,6-.45,6.64S509.22,466.47,509.22,466.47Z"/><path class="cls-35" d="M514.9,470.24a4.54,4.54,0,0,0-4.15-4.15c-1.95,0-3.2,1.55-3,3.66a4.42,4.42,0,0,0,4.2,4C513.87,473.79,514.9,472.36,514.9,470.24Z"/><path class="cls-36" d="M495.65,458.77s2.82-2.08,5.1,0a4.13,4.13,0,0,1-1.19,7.09C494.57,467.23,495.65,458.77,495.65,458.77Z"/><path class="cls-37" d="M501.34,462.53a4.54,4.54,0,0,0-4.15-4.15c-1.95,0-3.2,1.55-3,3.67a4.42,4.42,0,0,0,4.2,4C500.31,466.09,501.34,464.65,501.34,462.53Z"/><path class="cls-38" d="M484,452.05s2.77-2,5.09,0,1.89,6-.45,6.63S484,452.05,484,452.05Z"/><path class="cls-39" d="M489.67,455.81a4.54,4.54,0,0,0-4.16-4.15c-1.94,0-3.2,1.55-3,3.67a4.42,4.42,0,0,0,4.19,4C488.63,459.37,489.67,457.93,489.67,455.81Z"/><polygon class="cls-3" points="519.92 464.1 482.87 442.88 484.66 441.82 521.7 463.12 519.92 464.1"/><polygon class="cls-4" points="515.35 479.66 519.98 464.18 521.7 463.12 516.95 478.8 515.35 479.66"/><polygon class="cls-4" points="525.49 454.71 533.8 425.52 536.43 423.88 527.95 453.39 525.49 454.71"/><polygon class="cls-10" points="631.61 279.16 743.09 343.43 750.92 334.54 640.66 270.76 631.61 279.16"/><polygon class="cls-40" points="750.92 334.54 750.92 338.91 743.09 343.43 750.92 334.54"/><polygon class="cls-10" points="646.11 270.84 757.59 335.11 765.42 326.22 655.16 262.44 646.11 270.84"/><polygon class="cls-40" points="765.42 326.22 765.42 330.59 757.59 335.11 765.42 326.22"/><polygon class="cls-10" points="660.7 261.95 772.19 326.22 780.01 317.33 669.75 253.55 660.7 261.95"/><polygon class="cls-40" points="780.01 317.33 780.01 321.7 772.19 326.22 780.01 317.33"/><polygon class="cls-10" points="675.2 253.41 786.69 317.68 794.52 308.79 684.25 245.01 675.2 253.41"/><polygon class="cls-40" points="794.52 308.79 794.52 313.16 786.69 317.68 794.52 308.79"/><polygon class="cls-10" points="689.8 244.52 801.28 308.79 809.11 299.9 698.85 236.12 689.8 244.52"/><polygon class="cls-40" points="809.11 299.9 809.11 304.27 801.28 308.79 809.11 299.9"/><polygon class="cls-10" points="704.3 235.98 815.78 300.25 823.61 291.36 713.35 227.58 704.3 235.98"/><polygon class="cls-40" points="823.61 291.36 823.61 295.73 815.78 300.25 823.61 291.36"/><polygon class="cls-10" points="718.89 227.09 830.38 291.36 838.21 282.47 727.95 218.69 718.89 227.09"/><polygon class="cls-40" points="838.21 282.47 838.21 286.84 830.38 291.36 838.21 282.47"/><path class="cls-4" d="M505.5,421.63s6.52-4.7,12.76,1c8.07,7.35,3.28,18.12-3.18,19C509.25,441.42,505.5,421.63,505.5,421.63Z"/><path class="cls-9" d="M521.54,432.07c0-5.79-6-11.35-11.36-11.35s-8.75,4.25-8.27,10c.53,6.46,6.15,11,11.47,11S521.54,437.87,521.54,432.07Z"/><path class="cls-41" d="M510.74,424.62c-3.35,0-5.51,2.68-5.21,6.32"/><path class="cls-42" d="M516.82,428.35a7.82,7.82,0,0,0-6.08-3.73"/><path class="cls-43" d="M517.16,435.31a7.84,7.84,0,0,0,.74-3.54,6.37,6.37,0,0,0-1.08-3.42"/><path class="cls-4" d="M513.28,431.39a2,2,0,0,0-1.82-1.82,1.35,1.35,0,0,0-1.33,1.6,1.94,1.94,0,0,0,1.84,1.77C512.82,432.94,513.28,432.32,513.28,431.39Z"/><polygon class="cls-4" points="512.26 430.57 510.12 426.94 510.74 431.26 512.26 430.57"/><path class="cls-41" d="M485.46,410.87c-3.35,0-5.51,2.68-5.21,6.32"/><path class="cls-42" d="M491.54,414.6a7.84,7.84,0,0,0-6.08-3.73"/><path class="cls-43" d="M491.87,421.56a7.68,7.68,0,0,0,.75-3.54,6.42,6.42,0,0,0-1.08-3.42"/><path class="cls-4" d="M488,417.64a2,2,0,0,0-1.82-1.82,1.35,1.35,0,0,0-1.33,1.61,2,2,0,0,0,1.84,1.77C487.54,419.2,488,418.57,488,417.64Z"/><polygon class="cls-4" points="486.98 416.82 484.84 413.19 485.46 417.51 486.98 416.82"/><polyline class="cls-44" points="580.34 288.27 576.9 320.47 611.39 320.47 607.95 288.27"/><ellipse class="cls-45" cx="594.15" cy="288.27" rx="13.8" ry="7.91"/><ellipse class="cls-46" cx="594.15" cy="320.47" rx="17.24" ry="9.88"/><g class="cls-16"><g class="cls-16"><g class="cls-47"><g class="cls-16"><path class="cls-48" d="M953.8,469.28h0"/></g></g></g><ellipse class="cls-49" cx="953.81" cy="470.63" rx="1.36" ry="1.17" transform="translate(371.61 1360.74) rotate(-83.08)"/><g class="cls-16"><g class="cls-50"><g class="cls-16"><path class="cls-51" d="M953.65,472h-.1a1.23,1.23,0,0,1-1-1.29,1.68,1.68,0,0,1,.06-.45h.1a1.74,1.74,0,0,0-.06.45,1.23,1.23,0,0,0,1,1.29"/><path class="cls-52" d="M952.7,470.24h-.1a1.3,1.3,0,0,1,.14-.32h.1a1.3,1.3,0,0,0-.14.32"/><path class="cls-53" d="M952.84,469.92h-.1a1.42,1.42,0,0,1,.2-.28h.1a1.79,1.79,0,0,0-.2.28"/><path class="cls-48" d="M953,469.64h-.1a1.14,1.14,0,0,1,.76-.36h.1a1.14,1.14,0,0,0-.76.36"/></g></g></g></g><g class="cls-16"><g class="cls-16"><g class="cls-54"><g class="cls-16"><path class="cls-48" d="M953.8,505.58h0"/></g></g></g><ellipse class="cls-49" cx="953.81" cy="506.94" rx="1.36" ry="1.17" transform="translate(335.57 1392.67) rotate(-83.08)"/><g class="cls-16"><g class="cls-55"><g class="cls-16"><path class="cls-51" d="M953.65,508.29h-.1a1.24,1.24,0,0,1-1-1.29,1.63,1.63,0,0,1,.06-.45h.1a1.63,1.63,0,0,0-.06.45,1.24,1.24,0,0,0,1,1.29"/><path class="cls-52" d="M952.7,506.55h-.1a1.36,1.36,0,0,1,.14-.33l.1,0a1.3,1.3,0,0,0-.14.32"/><path class="cls-53" d="M952.84,506.23l-.1,0a1.35,1.35,0,0,1,.2-.27h.1a1.18,1.18,0,0,0-.2.28"/><path class="cls-48" d="M953,506h-.1a1.15,1.15,0,0,1,.76-.37h.1a1.2,1.2,0,0,0-.76.37"/></g></g></g></g><g class="cls-16"><g class="cls-16"><g class="cls-56"><g class="cls-16"><path class="cls-48" d="M916.13,491.31h.08l.1,0h-.18"/></g></g></g><path class="cls-49" d="M916.13,491.31a1.21,1.21,0,0,1,1.19,1.28,1.34,1.34,0,0,1-1.17,1.42,1.2,1.2,0,0,1-1.18-1.29A1.34,1.34,0,0,1,916.13,491.31Z"/><g class="cls-16"><g class="cls-57"><g class="cls-16"><path class="cls-51" d="M916,494l-.1,0a1.23,1.23,0,0,1-1-1.28,1.76,1.76,0,0,1,.06-.46l.11,0a1.33,1.33,0,0,0-.07.45,1.25,1.25,0,0,0,1,1.29"/><path class="cls-52" d="M915,492.27l-.11,0a1.83,1.83,0,0,1,.14-.32l.1,0a1,1,0,0,0-.13.32"/><path class="cls-53" d="M915.17,492l-.1,0a1.89,1.89,0,0,1,.2-.27h.1a1.55,1.55,0,0,0-.2.28"/><path class="cls-48" d="M915.37,491.67h-.1a1.12,1.12,0,0,1,.76-.36h.1a1.16,1.16,0,0,0-.76.36"/></g></g></g></g><g class="cls-16"><g class="cls-16"><g class="cls-58"><g class="cls-16"><path class="cls-48" d="M916.13,527.62l-.1,0h.1"/></g></g></g><path class="cls-49" d="M916.13,527.62a1.2,1.2,0,0,1,1.19,1.28,1.35,1.35,0,0,1-1.17,1.42A1.21,1.21,0,0,1,915,529,1.33,1.33,0,0,1,916.13,527.62Z"/><g class="cls-16"><g class="cls-59"><g class="cls-16"><path class="cls-51" d="M916,530.31h-.1a1.24,1.24,0,0,1-1-1.29,1.63,1.63,0,0,1,.06-.45H915a1.37,1.37,0,0,0-.07.45,1.24,1.24,0,0,0,1,1.29"/><path class="cls-52" d="M915,528.57h-.11a1.83,1.83,0,0,1,.14-.32h.1a1.27,1.27,0,0,0-.13.32"/><path class="cls-53" d="M915.17,528.25h-.1a1.89,1.89,0,0,1,.2-.27h.1a1.89,1.89,0,0,0-.2.27"/><path class="cls-48" d="M915.37,528h-.1a1.13,1.13,0,0,1,.76-.37l.1,0a1.12,1.12,0,0,0-.76.36"/></g></g></g></g><path class="cls-2" d="M1082.06,790.75l-34.56,20a14.55,14.55,0,0,1-15.86-.85l-12.83-9.37a10.28,10.28,0,0,1,.83-17.16l37.44-22.1a10.29,10.29,0,0,1,11.68.84l14.6,11.75A10.29,10.29,0,0,1,1082.06,790.75Z"/><path class="cls-3" d="M1009.05,797.91l27.23,15.8a6,6,0,0,0,6,0l2.72-1.57a1.59,1.59,0,0,0,.16-2.65h0a14.86,14.86,0,0,1-5.9-11.87V752a1.59,1.59,0,0,0-.8-1.37l-34-19.77a1.58,1.58,0,0,0-2.38,1.37v53.59A14,14,0,0,0,1009.05,797.91Z"/><path class="cls-6" d="M1319.31,907,733.79,554.64l-.09-77L777.87,452,1357.1,785.94l67.49,37.62a13,13,0,0,1,.12,22.64Z"/><path class="cls-2" d="M897.57,684.28l-34.55,20a14.55,14.55,0,0,1-15.86-.84L834.32,694a10.28,10.28,0,0,1,.84-17.16l37.44-22.1a10.26,10.26,0,0,1,11.67.84l14.6,11.75A10.29,10.29,0,0,1,897.57,684.28Z"/><path class="cls-3" d="M824.56,691.43l27.23,15.8a6,6,0,0,0,6,0l2.73-1.57a1.6,1.6,0,0,0,.16-2.65h0a14.89,14.89,0,0,1-5.91-11.87V645.53a1.6,1.6,0,0,0-.79-1.38l-34-19.77a1.59,1.59,0,0,0-2.39,1.38v53.59A14,14,0,0,0,824.56,691.43Z"/><path class="cls-3" d="M1315.1,888.9,733.79,554.64l-.19,32,568.53,324.92a13,13,0,0,0,19.5-11.33h0A13,13,0,0,0,1315.1,888.9Z"/><path class="cls-4" d="M867,646.77s7-5.11,12.86,0,4.75,15.06-1.14,16.74S867,646.77,867,646.77Z"/><path class="cls-5" d="M881.38,656.28c0-5.35-5.58-10.49-10.49-10.49s-8.08,3.93-7.64,9.26a11.15,11.15,0,0,0,10.59,10.2C878.76,665.25,881.38,661.63,881.38,656.28Z"/><path class="cls-4" d="M794.57,602.32s7-5.12,12.86,0,4.75,15.06-1.14,16.74S794.57,602.32,794.57,602.32Z"/><path class="cls-5" d="M808.93,611.82c0-5.35-5.58-10.48-10.5-10.48s-8.07,3.92-7.63,9.25a11.14,11.14,0,0,0,10.59,10.2C806.3,620.79,808.93,617.17,808.93,611.82Z"/><path class="cls-4" d="M1015.71,729s7-5.12,12.87,0,4.75,15.06-1.14,16.74S1015.71,729,1015.71,729Z"/><path class="cls-5" d="M1030.07,738.5c0-5.35-5.58-10.48-10.49-10.48s-8.07,3.93-7.63,9.26a11.14,11.14,0,0,0,10.59,10.2C1027.45,747.48,1030.07,743.86,1030.07,738.5Z"/><path class="cls-4" d="M944.06,687.75s7-5.12,12.87,0,4.75,15.06-1.14,16.74S944.06,687.75,944.06,687.75Z"/><path class="cls-5" d="M958.42,697.25c0-5.35-5.58-10.48-10.49-10.48s-8.07,3.92-7.64,9.25a11.15,11.15,0,0,0,10.6,10.2C955.8,706.22,958.42,702.6,958.42,697.25Z"/><line class="cls-7" x1="814.29" y1="584.73" x2="893.06" y2="539.23"/><line class="cls-7" x1="962.8" y1="670.81" x2="1041.57" y2="625.31"/><line class="cls-7" x1="1111.22" y1="756.68" x2="1189.99" y2="711.19"/><path class="cls-4" d="M735.11,563.07a9.27,9.27,0,0,0-1.48-1,7.51,7.51,0,0,1,.1,1.18,81.32,81.32,0,0,0,.12,9,36.81,36.81,0,0,1,.1,7.64h0C739.86,578.13,741,568.19,735.11,563.07Z"/><path class="cls-5" d="M733.69,565.88a57.75,57.75,0,0,0,.16,6.3,37.23,37.23,0,0,1,.1,7.61c1.74-1.56,2.66-4.08,2.66-7.21A10.18,10.18,0,0,0,733.69,565.88Z"/><polygon class="cls-60" points="1038.72 700.9 997.7 677.25 997.77 629.83 1038.7 653.53 1038.72 700.9"/><polygon class="cls-61" points="1079.77 677.2 1038.72 700.9 1038.7 653.53 1079.69 629.83 1079.77 677.2"/><polygon class="cls-62" points="1038.78 606.1 997.77 629.83 1038.7 653.53 1079.69 629.83 1038.78 606.1"/><polygon class="cls-63" points="1020.76 616.41 1015.04 619.72 1055.95 643.62 1056.15 656.21 1057.25 654.63 1058.05 655.05 1058.44 653.77 1059.33 654.24 1059.8 653.12 1060.6 653.51 1061.03 652.63 1061.69 652.85 1061.69 640.35 1020.76 616.41"/><polygon class="cls-63" points="1055.47 615.56 1061.21 618.85 1020.39 642.91 1020.22 655.5 1019.11 653.93 1018.31 654.35 1017.91 653.07 1017.02 653.54 1016.55 652.42 1015.75 652.82 1015.32 651.94 1014.66 652.16 1014.64 639.66 1055.47 615.56"/><polygon class="cls-64" points="1027.36 682.76 1006.51 670.92 1006.54 656.9 1027.35 668.75 1027.36 682.76"/><polygon class="cls-65" points="1077.77 675.83 1064.68 683.39 1064.68 668.29 1077.74 660.74 1077.77 675.83"/><polygon class="cls-66" points="1070.83 679.66 1070.83 670.41 1073.65 671.06 1073.65 678.02 1070.83 679.66"/><polygon class="cls-66" points="1069.02 673.78 1075.45 670.1 1072.24 667.92 1069.02 673.78"/></g></g></svg>