<svg class="lb__cards__card__icon" enable-background="new 0 0 194.2 188.6" version="1.1" viewBox="0 0 194.2 188.6" xml:space="preserve" xmlns="http://www.w3.org/2000/svg">
<style type="text/css">
	.st05{fill:#08BBB2;}
	.st15{fill:#FFFFFF;}
	.st25{fill:none;stroke:#FFFFFF;stroke-width:1.9836;stroke-linecap:round;stroke-miterlimit:10;}
	.st35{fill:#FC5169;}
	.st45{fill:none;stroke:#FF0000;stroke-width:2.4794;stroke-linecap:round;stroke-miterlimit:10;}
</style>
<path class="st05" d="m75.9 89.9c0.6-0.8 1.9-0.5 2.1 0.5l5.3 25.8 25.4-32.4c1.7-2.2 2.3-5.1 1.5-7.7l-0.1-0.3 1.4-0.4 0.1 0.3c0.9 3.1 0.3 6.5-1.7 9.1l-30.3 38.6c-1.5 1.9-1.4 4.6 0.2 6.5 0.7 0.8 1.8 1.3 2.9 1.4 1.1 0 2.2-0.4 3-1.1l37.3-36.7c2-1.9 3.4-4.4 4-7.1l1-4.5c1.2-5.3-0.5-10.1-3.4-13.3-1.6-1.4-3.5-2.6-5.7-3.2l-3.9-1.8c-2.4-0.7-4.2-2.6-4.7-5v-0.1c-0.4-1.8 0.2-3.6 1.5-4.8 5.9-5.4 6.4-13.3 6.4-22 0-16.4-9.5-27.7-23.7-27.7s-23.7 11.3-23.7 27.7c0 9.4 5 19.4 11.2 24.4 1.5 1.3 2.7 3.3 2.3 5.2s-1.8 3.1-6.5 4.1c-8.8 1.9-24.1 26.9-24.1 26.9-0.5 0.6-0.9 1.3-1.2 2l-11.1 22.4c-1.2 2.5-0.4 5.5 1.8 7.2l0.2 0.1c1.9 1.4 4.6 1.1 6.2-0.6l14-20.6c0.4-0.6 0.9-1.2 1.4-1.7l10.9-11.2z"></path>
<circle class="st15" cx="86.4" cy="31.1" r="2.5"></circle>
<circle class="st15" cx="105.7" cy="24.9" r="2.5"></circle>
<path class="st25" d="m93.5 45.1l2.7 0.3c2.9 0.3 5.8-0.4 8.2-2l1.8-1.2"></path>
<path class="st35" d="m24.3 17.1l-0.3-0.6-1.1-1.8-22.9 13 2.7 4.7 5.2 9.2c-1.1 0-2.2 0.2-3.2 0.8-3 1.7-4.1 5.6-2.4 8.6s5.6 4.1 8.6 2.4c2.8-1.6 4-5.1 2.7-8l-8.2-14.5 17.5-9.9 5.2 9.2c-1.1 0-2.2 0.2-3.2 0.8-3 1.7-4.1 5.6-2.4 8.6s5.6 4.1 8.6 2.4c2.8-1.6 4-5.1 2.7-8l-8.2-14.6-1.3-2.3z"></path>
<path class="st35" d="m193.2 45.7l0.2-0.6 0.8-2-24.5-9.6-2 5.1-3.8 9.8c-0.7-0.9-1.6-1.6-2.7-2-3.3-1.3-6.9 0.3-8.2 3.6s0.3 6.9 3.6 8.2c3 1.2 6.4-0.1 7.9-3l6.1-15.6 18.7 7.3-3.8 9.8c-0.7-0.9-1.6-1.6-2.7-2-3.3-1.3-6.9 0.3-8.2 3.6s0.3 6.9 3.6 8.2c3 1.2 6.4-0.1 7.9-3l6.1-15.6 1-2.2z"></path>
<line class="st45" x1="136.9" x2="148.4" y1="12.2" y2="4.6"></line>
<line class="st45" x1="131.4" x2="136.6" y1="8" y2="1.2"></line>
<line class="st45" x1="138" x2="145.9" y1="19.6" y2="17.2"></line>
<line class="st45" x1="22.6" x2="9.9" y1="123.5" y2="129.1"></line>
<line class="st45" x1="27.3" x2="21.1" y1="128.5" y2="134.3"></line>
<line class="st45" x1="22.7" x2="14.5" y1="116" y2="117"></line>
<path class="st05" d="m133.3 122.1l-6.6-31c-0.7 1.3-1.6 2.5-2.7 3.5l-37.4 36.6c-0.4 0.4-0.9 0.8-1.5 1l-19.9 45c-0.9 2-0.4 5.3 1.6 6.1l15.6 5.3c1.4 0.5 2.7-0.8 2.2-2.2l-1.7-7.9 16.5-33.5c0.2-0.3 0.4-0.6 0.6-0.8 0.1-0.5 0.5-0.9 1-0.8h0.2c0.4-0.2 0.8-0.3 1.2-0.3l8.8-0.4c1-0.2 1.9-0.5 2.7-0.8 0.5-0.2 1.1 0 1.3 0.5s0 1.1-0.5 1.3c-1.1 0.5-2.4 0.8-3.8 1.1l-12.4 33.4c-0.6 1.7 0.3 3.6 2.1 4.1l16 4.3c1.8 0.5 3.4-1.3 2.7-3.1l-2.6-6.2 15.2-38.6c2.1-5.2 2.6-11 1.4-16.6z"></path>
</svg>
