<svg class="lb__cards__card__icon" enable-background="new 0 0 186.9 182.5" version="1.1" viewBox="0 0 186.9 182.5" xml:space="preserve" xmlns="http://www.w3.org/2000/svg">
<style type="text/css">
	.st06{fill:#08BBB2;}
	.st16{fill:#FC5169;}
	.st26{fill:none;stroke:#FF0000;stroke-width:2.1996;stroke-linecap:round;stroke-miterlimit:10;}
	.st36{fill:#FFFFFF;}
	.st46{fill:none;stroke:#FFFFFF;stroke-width:1.7835;stroke-linecap:round;stroke-miterlimit:10;}
</style>
<path class="st06" d="m123.6 86.9c0 0.1 0 0.1-0.1 0.2v0.1l-2.5 6.9c-1.2 4.4-1.7 8.5-0.2 9.6 3.3 2.3 5.6 1.2 6.9-0.1 0.1-0.1 0.2-0.1 0.3-0.2 0.2-0.2 0.3-0.4 0.5-0.6l10.3-20.7 1.4-2.6c2.1-4 0.6-8.9-3.2-11.2-1-0.6-2.6-1.7-3.5-2.4l-14.1-10.6c-2-1.5-4.3-2.8-6.6-3.9-5.9-2.9-1.5-7.9 0.6-10.3 3.8-4.5 5.6-10.2 5.6-16.4 0-14.8-8.3-24.7-21.1-24.7s-21 9.9-21 24.6c0 4.2 2.3 10.6 5.2 14.2 5.1 6.4 2.1 9.8-1.6 10-2.1 0.1-4.1-0.9-5.3-2.6l-11.7-16-18-24.6c-1.9-1.5-4.7-1.2-6.3 0.7-1.8 2.2-1.8 5.5 0.2 7.6 0 0 30.2 56.1 31.1 60.5l5.6 27.6c0.4 2.2 0.4 4.5-0.1 6.6l-0.8 3.2c-0.5 2.3-1.5 4.5-2.8 6.4 0 0-7.8 10.1-11.8 16.5-1.1 1.8-1.8 3.8-2 5.9l-1.2 12.9c-0.1 1.6-0.6 3.1-1.4 4.5l-4.8 4.7c-1.2 1.9 0.3 4.4 2.6 4.3l15.6-0.7c2.1-0.1 3.9-1.8 4-3.9l1.9-18.3c0.1-1.9 0.8-3.8 1.9-5.4l12.8-12.7c-0.7-0.3-1.2-0.5-1.3-0.6-0.2-0.3-0.3-0.6-0.2-1 0.1-0.3 0.4-0.6 0.8-0.6 0.3 0 0.5 0.1 0.7 0.2 0.4 0.2 1.5 0.6 2.9 0.9l5.2 0.4c1.1-0.1 2.2-0.3 3.3-0.6 0.5-0.2 1 0.1 1.1 0.6 0.1 0.2 0.1 0.4 0 0.5 0.1 0.2 0.3 0.4 0.7 1 0 0 10.4 21.1 10.7 21.5l9.2 18.7c0.1 0.2 0.2 0.4 0.3 0.5 1.1 1.5 1.9 3.1 2.1 4.9 0 0.1 0 0.2 0.1 0.3 0.9 6 4.7 10.3 8.5 9.7 3.7-0.6 6-5.9 5.1-11.9 0-0.2-0.1-0.4-0.1-0.7-0.2-1.2-0.4-2.4-0.2-3.6 0-0.3 0-0.6-0.1-0.9l-15.3-51.2c-0.6-1.3-0.6-2.6-0.7-4l-0.5-3.7c-0.8-0.3-1.6-0.7-2.5-1.3-2.1-1.5-2.3-5-0.7-10.9 0.4-1.4 0.8-2.7 1.2-3.9l-1.4-11.3c-0.3-2 0.1-3.6 2-3 0 0 6.4 0.7 5.1 4.1l-2.4 6.8z"></path>
<path class="st16" d="m29.1 61.6l-0.1-0.6-0.3-1.9-23.1 3.5 0.7 4.8 1.4 9.3c-0.9-0.4-1.9-0.5-2.9-0.3-3.1 0.5-5.2 3.3-4.7 6.4s3.3 5.2 6.4 4.7c2.9-0.4 4.9-2.9 4.8-5.8l-2.3-14.7 17.6-2.7 1.4 9.3c-0.9-0.4-1.9-0.5-2.9-0.3-3.1 0.5-5.2 3.3-4.7 6.4s3.3 5.2 6.4 4.7c2.9-0.4 4.9-2.9 4.8-5.8l-2.2-14.7-0.3-2.3z"></path>
<path class="st16" d="m184.6 12.1l-0.1-0.6-0.3-1.9-23.1 3.2 0.7 4.8 1.2 9.4c-0.9-0.4-1.9-0.5-2.9-0.4-3.1 0.4-5.2 3.3-4.8 6.3 0.4 3.1 3.3 5.2 6.3 4.8 2.9-0.4 4.9-2.9 4.8-5.7l-2-14.7 17.6-2.5 1.3 9.3c-0.9-0.4-1.9-0.5-2.9-0.4-3.1 0.4-5.2 3.3-4.8 6.3 0.4 3.1 3.3 5.2 6.3 4.8 2.9-0.4 4.9-2.9 4.8-5.7l-2-14.7-0.1-2.3z"></path>
<line class="st26" x1="153" x2="165.3" y1="76.3" y2="76.1"></line>
<line class="st26" x1="150.8" x2="157.9" y1="70.6" y2="67.9"></line>
<line class="st26" x1="150.3" x2="157.4" y1="82.4" y2="84.4"></line>
<line class="st26" x1="28.8" x2="17" y1="11.3" y2="7.7"></line>
<line class="st26" x1="29.1" x2="21.5" y1="17.4" y2="17.7"></line>
<line class="st26" x1="33.2" x2="27.1" y1="6.4" y2="2.3"></line>
<circle class="st36" cx="86.9" cy="15.8" r="2.4"></circle>
<circle class="st36" cx="103.5" cy="18.8" r="2.4"></circle>
<path class="st46" d="m89.1 33.5l2.3 1.1c2.5 1.1 5.3 1.3 8 0.6l2-0.6"></path>
</svg>
