<svg class="lb__cards__card__icon" enable-background="new 0 0 258.2 178" version="1.1" viewBox="0 0 258.2 178" xml:space="preserve" xmlns="http://www.w3.org/2000/svg">
<style type="text/css">
	.st02{fill:#E9DD4A;}
	.st12{fill:#FFFFFF;}
	.st22{fill:#08BBB2;}
	.st32{fill:#FC5169;}
	.st42{fill:#FC5169;stroke:#FFFFFF;stroke-width:3;stroke-miterlimit:10;}
</style>
<path class="st02" d="m107.5 149.5c-9 0-16.3-7.3-16.3-16.3v-97.1c0-9 7.3-16.3 16.3-16.3h52c9 0 16.3 7.3 16.3 16.3v97.2c0 9-7.3 16.3-16.3 16.3h-52z"></path>
<path class="st12" d="m159.5 22.9c7.3 0 13.2 5.9 13.2 13.2v97.2c0 7.3-5.9 13.2-13.2 13.2h-52c-7.3 0-13.2-5.9-13.2-13.2v-97.2c0-7.3 5.9-13.2 13.2-13.2h52m0-6.1h-52c-10.6 0-19.3 8.7-19.3 19.3v97.2c0 10.6 8.7 19.3 19.3 19.3h52c10.6 0 19.3-8.7 19.3-19.3v-97.2c0-10.7-8.7-19.3-19.3-19.3z"></path>
<path class="st22" d="m113.3 132.6h40.3c5.6 0 10.3-4.6 10.3-10.3v-75.3c0-5.6-4.6-10.3-10.3-10.3h-40.3c-5.6 0-10.3 4.6-10.3 10.3v75.4c0 5.6 4.7 10.2 10.3 10.2z"></path>
<path class="st32" d="m196 142.6s0 0.1 0.1 0.1c1.9 3.4 6.9 3.6 8.9 0.2 9.1-14.9 14.4-32.4 14.4-51.1 0-19.9-6-38.5-16.2-54-2.2-3.3-7-3-8.9 0.4 0 0 0 0.1-0.1 0.1-0.9 1.7-0.8 3.7 0.2 5.3 9.1 13.8 14.5 30.4 14.5 48.2 0 16.7-4.7 32.3-12.8 45.5-1 1.7-1 3.6-0.1 5.3z"></path>
<path class="st42" d="m219.5 172.2c3.2 5.6 11.2 5.7 14.5 0.2 14.4-23.7 22.8-51.5 22.8-81.3 0-31.7-9.5-61.2-25.7-85.9-3.5-5.3-11.4-5.1-14.5 0.5-1.5 2.7-1.3 6 0.3 8.5 14.5 22.1 23 48.5 23 76.8 0 26.5-7.4 51.4-20.3 72.6-1.6 2.8-1.6 6-0.1 8.6z"></path>
<path class="st32" d="m62.2 142.6s0 0.1-0.1 0.1c-1.9 3.4-6.9 3.6-8.9 0.2-9.1-14.9-14.4-32.4-14.4-51.1 0-19.9 6-38.5 16.2-54 2.2-3.3 7-3 8.9 0.4 0 0 0 0.1 0.1 0.1 0.9 1.7 0.8 3.7-0.2 5.3-9 13.9-14.4 30.4-14.4 48.2 0 16.7 4.7 32.3 12.8 45.5 1 1.7 1 3.6 0 5.3z"></path>
<path class="st42" d="m38.8 172.2c-3.2 5.6-11.2 5.7-14.5 0.2-14.5-23.6-22.8-51.4-22.8-81.2 0-31.7 9.5-61.2 25.7-85.9 3.5-5.3 11.4-5 14.5 0.6 1.5 2.7 1.3 6-0.3 8.5-14.5 22.1-23 48.5-23 76.8 0 26.5 7.4 51.4 20.3 72.6 1.5 2.6 1.6 5.8 0.1 8.4z"></path>
</svg>
