<svg class="lb__cards__card__icon" enable-background="new 0 0 197.5 182.7" version="1.1" viewBox="0 0 197.5 182.7" xml:space="preserve" xmlns="http://www.w3.org/2000/svg">
<style type="text/css">
	.st011{fill:#FC5169;}
	.st11{fill:#E9DD4A;}
	.st21{fill:#FFFFFF;}
	.st31{fill:#08BBB2;}
</style>
<path class="st011" d="m35.2 3.4c-23.1 14.5-33.2 33.2-32.7 61.9 0 0.4-0.2 0.9-0.7 1l-1.2 0.5c-0.8 0.3-0.9 1.4-0.2 1.9l7.3 5.1c0.6 0.4 1.4 0.2 1.7-0.5 0.9-2.3 2.9-7.2 3.9-9.8 0.3-0.8-0.3-1.6-1.2-1.5-0.6 0.1-1.2 0.1-1.7 0.2-0.7 0.1-1.3-0.5-1.2-1.1 1-21.5 15.1-35.5 34.3-46.3 0.9-0.5 1.1-1.6 0.6-2.4l-5.9-8.4c-0.6-0.9-2-1.2-3-0.6z"></path>
<path class="st011" d="m66.6 178.7c26 8.3 46.8 3.9 68.4-15 0.3-0.3 0.8-0.4 1.2-0.2l1.3 0.6c0.7 0.4 1.6-0.2 1.5-1l-0.8-9c-0.1-0.7-0.8-1.2-1.5-1-2.4 0.8-7.4 2.5-10.1 3.3-0.8 0.3-1 1.3-0.4 1.8 0.3 0.3 0.7 0.6 1 0.9 0.7 0.6 0.6 1.7-0.1 2.2-17 12.8-36.6 11.1-57.2 3.5-0.9-0.3-1.9 0.2-2.2 1.1l-2.6 9.9c-0.3 1.3 0.4 2.5 1.5 2.9z"></path>
<path class="st011" d="m197.5 57.6c-4.3-26.9-17.5-43.4-43.9-54.1-0.6-0.3-1-0.8-1-1.5v-0.9c0-0.9-1-1.4-1.7-0.9l-7 4.3c-0.9 0.6-1.1 1.8-0.3 2.6l7 7c0.6 0.6 1.6 0.3 1.8-0.5 0.1-0.3 0.2-0.7 0.3-1 0.3-1 1.4-1.5 2.3-1 18.9 9.4 26.2 27.6 28.7 49.4 0.1 1 1 1.7 2 1.4l10-2.2c1.2-0.3 2-1.4 1.8-2.6z"></path>
<path class="st11" d="m71.5 150.8c-9 0-16.3-7.3-16.3-16.3v-97.1c0-9 7.3-16.3 16.3-16.3h52c9 0 16.3 7.3 16.3 16.3v97.2c0 9-7.3 16.3-16.3 16.3h-52z"></path>
<path class="st21" d="m123.5 24.2c7.3 0 13.2 5.9 13.2 13.2v97.2c0 7.3-5.9 13.2-13.2 13.2h-52c-7.3 0-13.2-5.9-13.2-13.2v-97.2c0-7.3 5.9-13.2 13.2-13.2h52m0-6.1h-52c-10.6 0-19.3 8.7-19.3 19.3v97.2c0 10.6 8.7 19.3 19.3 19.3h52c10.6 0 19.3-8.7 19.3-19.3v-97.2c0-10.7-8.7-19.3-19.3-19.3z"></path>
<path class="st31" d="m77.3 133.9h40.3c5.6 0 10.3-4.6 10.3-10.3v-75.3c0-5.6-4.6-10.3-10.3-10.3h-40.3c-5.7 0-10.3 4.6-10.3 10.3v75.4c0 5.6 4.6 10.2 10.3 10.2z"></path>
</svg>
