<svg class="lb__cards__card__icon" enable-background="new 0 0 157.5 179.8" version="1.1" viewBox="0 0 157.5 179.8" xml:space="preserve" xmlns="http://www.w3.org/2000/svg">
<style type="text/css">
	.st03{fill:#FC5169;}
	.st13{fill:#E9DD4A;}
	.st23{fill:#FFFFFF;}
	.st33{fill:#08BBB2;}
</style>
<path class="st03" d="m0 172.2l1.6-16.4c0.2-1.9 2.4-2.7 3.8-1.4l4.5 4.1c0.6 0.6 1.6 0.5 2.1-0.1l131.5-156.6c2-2.3 5.6-2.4 7.6-0.1l3.4 3.9c1.8 2.1 1.8 5.2 0 7.3l-134.7 152.8c-0.5 0.5-0.5 1.3-0.1 1.8l2.9 4.1c1 1.3 0 3.2-1.6 3.2l-18.1 0.4c-1.7 0.1-3.1-1.4-2.9-3z"></path>
<path class="st03" d="m157.5 176.8l-1.3-16.5c-0.1-1.9-2.4-2.8-3.8-1.5l-4.6 4c-0.6 0.5-1.6 0.5-2.1-0.2l-129.6-159.6c-1.9-2.4-5.5-2.5-7.6-0.2l-3.4 3.7c-1.9 2.1-1.9 5.2-0.1 7.3l133 156.1c0.5 0.5 0.5 1.3 0.1 1.8l-3 4c-1 1.3-0.1 3.2 1.5 3.2l18.1 0.8c1.5 0.2 2.9-1.2 2.8-2.9z"></path>
<path class="st13" d="m52.2 161.6c-9 0-16.3-7.3-16.3-16.3v-97.2c0-9 7.3-16.3 16.3-16.3h52c9 0 16.3 7.3 16.3 16.3v97.2c0 9-7.3 16.3-16.3 16.3h-52z"></path>
<path class="st23" d="m104.2 34.9c7.3 0 13.2 5.9 13.2 13.2v97.2c0 7.3-5.9 13.2-13.2 13.2h-52c-7.3 0-13.2-5.9-13.2-13.2v-97.2c0-7.3 5.9-13.2 13.2-13.2h52m0-6.1h-52c-10.6 0-19.3 8.7-19.3 19.3v97.2c0 10.6 8.7 19.3 19.3 19.3h52c10.6 0 19.3-8.7 19.3-19.3v-97.2c0-10.6-8.7-19.3-19.3-19.3z"></path>
<path class="st33" d="m58 144.7h40.3c5.6 0 10.3-4.6 10.3-10.3v-75.4c0-5.6-4.6-10.3-10.3-10.3h-40.3c-5.6 0-10.3 4.6-10.3 10.3v75.4c0 5.7 4.6 10.3 10.3 10.3z"></path>
</svg>
