<svg class="lb__cards__card__icon" enable-background="new 0 0 123.6 184" version="1.1" viewBox="0 0 123.6 184" xml:space="preserve" xmlns="http://www.w3.org/2000/svg">
<style type="text/css">
	.st04{fill:#E9DD4A;}
	.st14{fill:#08BBB2;}
	.st24{fill:#FC5169;}
</style>
<path class="st04" d="M0,68.7v52c0,7.3,5.9,13.2,13.2,13.2h97.2c7.3,0,13.2-5.9,13.2-13.2v-52c0-7.3-5.9-13.2-13.2-13.2H13.2   C5.9,55.5,0,61.4,0,68.7z"></path>
<path class="st14" d="m13.9 74.5v40.3c0 5.6 4.6 10.3 10.3 10.3h75.4c5.6 0 10.3-4.6 10.3-10.3v-40.3c0-5.6-4.6-10.3-10.3-10.3h-75.5c-5.6 0.1-10.2 4.7-10.2 10.3z"></path>
<path class="st24" d="m27.7 138l-5.1 7.1c-0.7 0.9 0.1 2.2 1.2 2.1l8.8-0.6c0.6 0 1.2 0.3 1.4 0.9 2.7 7.5 22 55.8 57.9 27.7 35.6-27.8 24.4-69.1 22.2-75.8-0.2-0.6-0.7-0.9-1.3-0.9h-14.8c-0.9 0-1.6 0.9-1.3 1.8 2.9 8.5 13.5 45.7-13.3 66.5-26.9 20.9-37.2-13.8-39.3-21.9-0.2-0.9 0.4-1.7 1.3-1.7h6.7c1.1 0 1.7-1.2 1.1-2.1l-2.7-3.9-22.8 0.8z"></path>
<path class="st24" d="m35.1 50.3c0.3-13 4.3-22.7 17.8-33.1 25.1-19.7 35.8 9.5 38.7 20 0.5 1.8-0.8 3.5-2.7 3.5h-4.2c-1.1 0-1.5 1.3-0.7 2l19.1 15c1.1 0.9 2.8 0.5 3.4-0.9l7.6-17.8c0.5-1.1-0.4-2.4-1.6-2.3l-7.9 0.5c-1.2 0.1-2.3-0.6-2.8-1.8-3.7-9.9-22.8-53.8-57.4-26.7-18.1 14.1-24.1 26.8-25.3 41.6"></path>
</svg>
